NotoSans-CondensedSemiBoldItalic.ufo
<glyph name="quotedbl" format="2">
  <advance width="395"/>
  <unicode hex="0022"/>
  <outline>
    <contour>
      <point x="276" y="456" type="line"/>
      <point x="374" y="456" type="line"/>
      <point x="445" y="714" type="line"/>
      <point x="315" y="714" type="line"/>
    </contour>
    <contour>
      <point x="95" y="456" type="line"/>
      <point x="193" y="456" type="line"/>
      <point x="263" y="714" type="line"/>
      <point x="134" y="714" type="line"/>
    </contour>
  </outline>
</glyph>
<glyph name="hyphen" format="2">
  <advance width="285"/>
  <unicode hex="002D"/>
  <outline>
    <contour>
      <point x="12" y="211" type="line"/>
      <point x="245" y="211" type="line"/>
      <point x="270" y="326" type="line"/>
      <point x="36" y="326" type="line"/>
    </contour>
  </outline>
</glyph>
<glyph name="one" format="2">
  <advance width="434"/>
  <unicode hex="0031"/>
  <outline>
    <contour>
      <point x="142" y="0" type="line"/>
      <point x="265" y="0" type="line"/>
      <point x="417" y="714" type="line"/>
      <point x="306" y="714" type="line"/>
      <point x="96" y="521" type="line"/>
      <point x="153" y="443" type="line"/>
      <point x="226" y="510" type="line" smooth="yes"/>
      <point x="239" y="521"/>
      <point x="250" y="534"/>
      <point x="261" y="546" type="curve"/>
      <point x="248" y="499"/>
      <point x="244" y="480"/>
      <point x="234" y="437" type="curve" smooth="yes"/>
    </contour>
  </outline>
</glyph>
<glyph name="less" format="2">
  <advance width="473"/>
  <unicode hex="003C"/>
  <outline>
    <contour>
      <point x="450" y="120" type="line"/>
      <point x="450" y="238" type="line"/>
      <point x="191" y="359" type="line"/>
      <point x="450" y="478" type="line"/>
      <point x="450" y="597" type="line"/>
      <point x="39" y="394" type="line"/>
      <point x="39" y="324" type="line"/>
    </contour>
  </outline>
</glyph>
<glyph name="greater" format="2">
  <advance width="473"/>
  <unicode hex="003E"/>
  <outline>
    <contour>
      <point x="42" y="238" type="line"/>
      <point x="42" y="120" type="line"/>
      <point x="453" y="324" type="line"/>
      <point x="453" y="394" type="line"/>
      <point x="42" y="597" type="line"/>
      <point x="42" y="478" type="line"/>
      <point x="301" y="359" type="line"/>
    </contour>
  </outline>
</glyph>
<glyph name="L" format="2">
  <advance width="370"/>
  <unicode hex="004C"/>
  <anchor x="129" y="0" name="bottom"/>
  <anchor x="216" y="357" name="center"/>
  <anchor x="280" y="714" name="top"/>
  <anchor x="389" y="714" name="topright"/>
  <outline>
    <contour>
      <point x="-2" y="0" type="line"/>
      <point x="295" y="0" type="line"/>
      <point x="317" y="110" type="line"/>
      <point x="145" y="110" type="line"/>
      <point x="274" y="714" type="line"/>
      <point x="149" y="714" type="line"/>
    </contour>
  </outline>
</glyph>
<glyph name="bracketleft" format="2">
  <advance width="285"/>
  <unicode hex="005B"/>
  <outline>
    <contour>
      <point x="-40" y="-165" type="line"/>
      <point x="169" y="-165" type="line"/>
      <point x="190" y="-70" type="line"/>
      <point x="90" y="-70" type="line"/>
      <point x="239" y="632" type="line"/>
      <point x="339" y="632" type="line"/>
      <point x="359" y="727" type="line"/>
      <point x="150" y="727" type="line"/>
    </contour>
  </outline>
</glyph>
<glyph name="asciicircum" format="2">
  <advance width="434"/>
  <unicode hex="005E"/>
  <outline>
    <contour>
      <point x="-6" y="285" type="line"/>
      <point x="108" y="285" type="line"/>
      <point x="264" y="541" type="line"/>
      <point x="326" y="285" type="line"/>
      <point x="435" y="285" type="line"/>
      <point x="331" y="714" type="line"/>
      <point x="261" y="714" type="line"/>
    </contour>
  </outline>
</glyph>
<glyph name="underscore" format="2">
  <advance width="346"/>
  <unicode hex="005F"/>
  <outline>
    <contour>
      <point x="-92" y="-165" type="line"/>
      <point x="255" y="-165" type="line"/>
      <point x="274" y="-73" type="line"/>
      <point x="-74" y="-73" type="line"/>
    </contour>
  </outline>
</glyph>
<glyph name="overscore" format="2">
  <advance width="428"/>
  <unicode hex="00AF"/>
  <outline>
    <contour>
      <point x="97" y="760" type="line"/>
      <point x="531" y="760" type="line"/>
      <point x="550" y="852" type="line"/>
      <point x="117" y="852" type="line"/>
    </contour>
  </outline>
</glyph>
<glyph name="plusminus" format="2">
  <advance width="473"/>
  <unicode hex="00B1"/>
  <outline>
    <contour>
      <point x="43" y="0" type="line"/>
      <point x="450" y="0" type="line"/>
      <point x="450" y="106" type="line"/>
      <point x="43" y="106" type="line"/>
    </contour>
    <component base="plus" yOffset="44"/>
  </outline>
</glyph>
<glyph name="Eth" format="2">
  <advance width="506"/>
  <unicode hex="00D0"/>
  <anchor x="197" y="0" name="bottom"/>
  <anchor x="348" y="714" name="top"/>
  <outline>
    <contour>
      <point x="-2" y="0" type="line"/>
      <point x="150" y="0" type="line" smooth="yes"/>
      <point x="394" y="0"/>
      <point x="499" y="270"/>
      <point x="499" y="495" type="curve" smooth="yes"/>
      <point x="499" y="635"/>
      <point x="426" y="714"/>
      <point x="290" y="714" type="curve" smooth="yes"/>
      <point x="149" y="714" type="line"/>
      <point x="86" y="419" type="line"/>
      <point x="35" y="419" type="line"/>
      <point x="15" y="323" type="line"/>
      <point x="66" y="323" type="line"/>
    </contour>
    <contour>
      <point x="146" y="112" type="line"/>
      <point x="190" y="323" type="line"/>
      <point x="264" y="323" type="line"/>
      <point x="284" y="419" type="line"/>
      <point x="211" y="419" type="line"/>
      <point x="250" y="603" type="line"/>
      <point x="278" y="603" type="line" smooth="yes"/>
      <point x="337" y="603"/>
      <point x="367" y="566"/>
      <point x="367" y="483" type="curve" smooth="yes"/>
      <point x="367" y="361"/>
      <point x="317" y="112"/>
      <point x="168" y="112" type="curve" smooth="yes"/>
    </contour>
  </outline>
</glyph>
<glyph name="uni018B" format="2">
  <advance width="445"/>
  <unicode hex="018B"/>
  <anchor x="167" y="0" name="bottom"/>
  <anchor x="318" y="714" name="top"/>
  <outline>
    <contour>
      <point x="183" y="0" type="curve" smooth="yes"/>
      <point x="325" y="0" type="line"/>
      <point x="476" y="714" type="line"/>
      <point x="146" y="714" type="line"/>
      <point x="122" y="603" type="line"/>
      <point x="327" y="603" type="line"/>
      <point x="297" y="456" type="line"/>
      <point x="255" y="456" type="line" smooth="yes"/>
      <point x="85" y="456"/>
      <point x="5" y="311"/>
      <point x="5" y="164" type="curve" smooth="yes"/>
      <point x="5" y="65"/>
      <point x="60" y="0"/>
    </contour>
    <contour>
      <point x="204" y="109" type="line" smooth="yes"/>
      <point x="157" y="109"/>
      <point x="134" y="130"/>
      <point x="134" y="180" type="curve" smooth="yes"/>
      <point x="134" y="279"/>
      <point x="177" y="347"/>
      <point x="254" y="347" type="curve" smooth="yes"/>
      <point x="274" y="347" type="line"/>
      <point x="223" y="109" type="line"/>
    </contour>
  </outline>
</glyph>
<glyph name="uni018E" format="2">
  <advance width="393"/>
  <unicode hex="018E"/>
  <anchor x="141" y="0" name="bottom"/>
  <anchor x="292" y="714" name="top"/>
  <outline>
    <contour>
      <point x="-21" y="0" type="line"/>
      <point x="273" y="0" type="line"/>
      <point x="424" y="714" type="line"/>
      <point x="131" y="714" type="line"/>
      <point x="108" y="604" type="line"/>
      <point x="276" y="604" type="line"/>
      <point x="237" y="424" type="line"/>
      <point x="82" y="424" type="line"/>
      <point x="58" y="315" type="line"/>
      <point x="215" y="315" type="line"/>
      <point x="170" y="109" type="line"/>
      <point x="2" y="109" type="line"/>
    </contour>
  </outline>
</glyph>
<glyph name="uni0191" format="2">
  <advance width="510"/>
  <unicode hex="0191"/>
  <anchor x="105" y="0" name="bottom"/>
  <anchor x="427" y="714" name="top"/>
  <anchor x="595" y="714" name="topright"/>
  <outline>
    <contour>
      <point x="124" y="-11" type="curve" smooth="yes"/>
      <point x="231" y="-11"/>
      <point x="278" y="57"/>
      <point x="298" y="153" type="curve" smooth="yes"/>
      <point x="333" y="318" type="line"/>
      <point x="478" y="318" type="line"/>
      <point x="502" y="427" type="line"/>
      <point x="356" y="427" type="line"/>
      <point x="394" y="605" type="line"/>
      <point x="552" y="605" type="line"/>
      <point x="575" y="714" type="line"/>
      <point x="292" y="714" type="line"/>
      <point x="176" y="168" type="line" smooth="yes"/>
      <point x="167" y="125"/>
      <point x="148" y="105"/>
      <point x="121" y="105" type="curve" smooth="yes"/>
      <point x="93" y="105"/>
      <point x="83" y="127"/>
      <point x="83" y="148" type="curve" smooth="yes"/>
      <point x="83" y="164"/>
      <point x="86" y="177"/>
      <point x="91" y="191" type="curve"/>
      <point x="-9" y="227" type="line"/>
      <point x="-19" y="204"/>
      <point x="-28" y="178"/>
      <point x="-28" y="136" type="curve" smooth="yes"/>
      <point x="-28" y="49"/>
      <point x="27" y="-11"/>
    </contour>
  </outline>
</glyph>
<glyph name="florin" format="2">
  <advance width="399"/>
  <unicode hex="0192"/>
  <anchor x="89" y="0" name="bottom"/>
  <anchor x="420" y="765" name="top"/>
  <anchor x="525" y="765" name="topright"/>
  <outline>
    <contour>
      <point x="120" y="-10" type="curve" smooth="yes"/>
      <point x="213" y="-10"/>
      <point x="263" y="58"/>
      <point x="284" y="153" type="curve" smooth="yes"/>
      <point x="347" y="444" type="line"/>
      <point x="425" y="444" type="line"/>
      <point x="445" y="545" type="line"/>
      <point x="368" y="545" type="line"/>
      <point x="378" y="590" type="line" smooth="yes"/>
      <point x="388" y="634"/>
      <point x="400" y="663"/>
      <point x="431" y="663" type="curve" smooth="yes"/>
      <point x="443" y="663"/>
      <point x="459" y="658"/>
      <point x="472" y="651" type="curve"/>
      <point x="514" y="743" type="line"/>
      <point x="482" y="759"/>
      <point x="449" y="765"/>
      <point x="416" y="765" type="curve" smooth="yes"/>
      <point x="307" y="765"/>
      <point x="279" y="677"/>
      <point x="258" y="589" type="curve" smooth="yes"/>
      <point x="247" y="543" type="line"/>
      <point x="184" y="508" type="line"/>
      <point x="171" y="444" type="line"/>
      <point x="227" y="444" type="line"/>
      <point x="167" y="159" type="line" smooth="yes"/>
      <point x="159" y="122"/>
      <point x="144" y="93"/>
      <point x="116" y="93" type="curve" smooth="yes"/>
      <point x="92" y="93"/>
      <point x="79" y="108"/>
      <point x="79" y="138" type="curve" smooth="yes"/>
      <point x="79" y="147"/>
      <point x="80" y="159"/>
      <point x="83" y="173" type="curve"/>
      <point x="-14" y="199" type="line"/>
      <point x="-21" y="177"/>
      <point x="-25" y="154"/>
      <point x="-25" y="131" type="curve" smooth="yes"/>
      <point x="-25" y="52"/>
      <point x="20" y="-10"/>
    </contour>
  </outline>
</glyph>
<glyph name="uni023A" format="2">
  <advance width="470"/>
  <unicode hex="023A"/>
  <anchor x="179" y="0" name="bottom"/>
  <anchor x="326" y="716" name="top"/>
  <anchor x="546" y="714" name="topright"/>
  <outline>
    <contour>
      <point x="81" y="-75" type="line"/>
      <point x="150" y="-75" type="line"/>
      <point x="467" y="760" type="line"/>
      <point x="399" y="760" type="line"/>
    </contour>
    <component base="A"/>
  </outline>
</glyph>
<glyph name="uni023B" format="2">
  <advance width="430"/>
  <unicode hex="023B"/>
  <anchor x="182" y="0" name="bottom"/>
  <anchor x="334" y="714" name="top"/>
  <anchor x="506" y="714" name="topright"/>
  <outline>
    <contour>
      <point x="105" y="-75" type="line"/>
      <point x="167" y="-75" type="line"/>
      <point x="444" y="760" type="line"/>
      <point x="383" y="760" type="line"/>
    </contour>
    <component base="C"/>
  </outline>
</glyph>
<glyph name="uni023C" format="2">
  <advance width="359"/>
  <unicode hex="023C"/>
  <anchor x="91" y="-145" name="bottom"/>
  <anchor x="269" y="690" name="top"/>
  <anchor x="397" y="545" name="topright"/>
  <outline>
    <contour>
      <point x="86" y="-145" type="line"/>
      <point x="148" y="-145" type="line"/>
      <point x="382" y="690" type="line"/>
      <point x="320" y="690" type="line"/>
    </contour>
    <component base="c"/>
  </outline>
</glyph>
<glyph name="uni023E" format="2">
  <advance width="388"/>
  <unicode hex="023E"/>
  <anchor x="138" y="0" name="bottom"/>
  <anchor x="290" y="714" name="top"/>
  <anchor x="226" y="357" name="center"/>
  <anchor x="463" y="714" name="topright"/>
  <outline>
    <contour>
      <point x="-57" y="-38" type="line"/>
      <point x="12" y="-38" type="line"/>
      <point x="447" y="797" type="line"/>
      <point x="379" y="797" type="line"/>
    </contour>
    <component base="T"/>
  </outline>
</glyph>
<glyph name="uni0246" format="2">
  <advance width="394"/>
  <unicode hex="0246"/>
  <anchor x="141" y="0" name="bottom"/>
  <anchor x="292" y="714" name="top"/>
  <anchor x="469" y="714" name="topright"/>
  <outline>
    <contour>
      <point x="108" y="-75" type="line"/>
      <point x="177" y="-75" type="line"/>
      <point x="425" y="760" type="line"/>
      <point x="357" y="760" type="line"/>
    </contour>
    <component base="E"/>
  </outline>
</glyph>
<glyph name="uni024C" format="2">
  <advance width="464"/>
  <unicode hex="024C"/>
  <anchor x="176" y="0" name="bottom"/>
  <anchor x="327" y="714" name="top"/>
  <outline>
    <contour>
      <point x="-2" y="0" type="line"/>
      <point x="123" y="0" type="line"/>
      <point x="182" y="282" type="line"/>
      <point x="215" y="282" type="line"/>
      <point x="265" y="0" type="line"/>
      <point x="403" y="0" type="line"/>
      <point x="333" y="307" type="line"/>
      <point x="419" y="338"/>
      <point x="473" y="431"/>
      <point x="473" y="552" type="curve" smooth="yes"/>
      <point x="473" y="656"/>
      <point x="411" y="714"/>
      <point x="284" y="714" type="curve" smooth="yes"/>
      <point x="149" y="714" type="line"/>
      <point x="79" y="384" type="line"/>
      <point x="27" y="384" type="line"/>
      <point x="5" y="282" type="line"/>
      <point x="57" y="282" type="line"/>
    </contour>
    <contour>
      <point x="204" y="384" type="line"/>
      <point x="251" y="607" type="line"/>
      <point x="271" y="607" type="line" smooth="yes"/>
      <point x="317" y="607"/>
      <point x="341" y="583"/>
      <point x="341" y="535" type="curve" smooth="yes"/>
      <point x="341" y="462"/>
      <point x="307" y="384"/>
      <point x="233" y="384" type="curve" smooth="yes"/>
    </contour>
  </outline>
</glyph>
<glyph name="uni024E" format="2">
  <advance width="423"/>
  <unicode hex="024E"/>
  <anchor x="156" y="0" name="bottom"/>
  <anchor x="307" y="714" name="top"/>
  <outline>
    <contour>
      <point x="89" y="0" type="line"/>
      <point x="214" y="0" type="line"/>
      <point x="272" y="276" type="line"/>
      <point x="405" y="515" type="line"/>
      <point x="473" y="515" type="line"/>
      <point x="489" y="598" type="line"/>
      <point x="452" y="598" type="line"/>
      <point x="515" y="714" type="line"/>
      <point x="381" y="714" type="line"/>
      <point x="323" y="598" type="line"/>
      <point x="228" y="598" type="line"/>
      <point x="219" y="714" type="line"/>
      <point x="89" y="714" type="line"/>
      <point x="103" y="598" type="line"/>
      <point x="69" y="598" type="line"/>
      <point x="52" y="515" type="line"/>
      <point x="114" y="515" type="line"/>
      <point x="146" y="272" type="line"/>
    </contour>
    <contour>
      <point x="237" y="415" type="line"/>
      <point x="233" y="515" type="line"/>
      <point x="283" y="515" type="line"/>
    </contour>
  </outline>
</glyph>
<glyph name="uni024F" format="2">
  <advance width="402"/>
  <unicode hex="024F"/>
  <anchor x="94" y="-240" name="bottom"/>
  <anchor x="257" y="530" name="top"/>
  <anchor x="438" y="530" name="topright"/>
  <outline>
    <contour>
      <point x="-4" y="232" type="line"/>
      <point x="392" y="232" type="line"/>
      <point x="413" y="327" type="line"/>
      <point x="17" y="327" type="line"/>
    </contour>
    <component base="y"/>
  </outline>
</glyph>
<glyph name="uni0250" format="2">
  <advance width="455"/>
  <unicode hex="0250"/>
  <anchor x="171" y="0" name="bottom"/>
  <anchor x="283" y="530" name="top"/>
  <outline>
    <contour>
      <point x="164" y="-10" type="curve" smooth="yes"/>
      <point x="214" y="-10"/>
      <point x="274" y="6"/>
      <point x="328" y="34" type="curve"/>
      <point x="313" y="125" type="line"/>
      <point x="264" y="100"/>
      <point x="227" y="88"/>
      <point x="196" y="88" type="curve" smooth="yes"/>
      <point x="163" y="88"/>
      <point x="147" y="105"/>
      <point x="147" y="140" type="curve" smooth="yes"/>
      <point x="147" y="152"/>
      <point x="148" y="166"/>
      <point x="152" y="182" type="curve" smooth="yes"/>
      <point x="157" y="207" type="line"/>
      <point x="225" y="210" type="line" smooth="yes"/>
      <point x="368" y="215"/>
      <point x="450" y="308"/>
      <point x="450" y="443" type="curve" smooth="yes"/>
      <point x="450" y="506"/>
      <point x="415" y="555"/>
      <point x="343" y="555" type="curve" smooth="yes"/>
      <point x="282" y="555"/>
      <point x="246" y="527"/>
      <point x="203" y="472" type="curve"/>
      <point x="201" y="472" type="line"/>
      <point x="197" y="545" type="line"/>
      <point x="108" y="545" type="line"/>
      <point x="34" y="194" type="line" smooth="yes"/>
      <point x="28" y="168"/>
      <point x="25" y="144"/>
      <point x="25" y="123" type="curve" smooth="yes"/>
      <point x="25" y="41"/>
      <point x="68" y="-10"/>
    </contour>
    <contour>
      <point x="174" y="288" type="line"/>
      <point x="185" y="340" type="line" smooth="yes"/>
      <point x="201" y="413"/>
      <point x="239" y="457"/>
      <point x="283" y="457" type="curve" smooth="yes"/>
      <point x="309" y="457"/>
      <point x="324" y="442"/>
      <point x="324" y="412" type="curve" smooth="yes"/>
      <point x="324" y="348"/>
      <point x="289" y="294"/>
      <point x="213" y="291" type="curve" smooth="yes"/>
    </contour>
  </outline>
</glyph>
<glyph name="uni0289" format="2">
  <advance width="452"/>
  <unicode hex="0289"/>
  <anchor x="171" y="0" name="bottom"/>
  <anchor x="283" y="530" name="top"/>
  <anchor x="490" y="545" name="topright"/>
  <outline>
    <contour>
      <point x="-6" y="231" type="line"/>
      <point x="445" y="231" type="line"/>
      <point x="466" y="327" type="line"/>
      <point x="15" y="327" type="line"/>
    </contour>
    <component base="u"/>
  </outline>
</glyph>
<glyph name="uni028F" format="2">
  <advance width="402"/>
  <unicode hex="028F"/>
  <anchor x="145" y="0" name="bottom"/>
  <anchor x="257" y="530" name="top"/>
  <outline>
    <contour>
      <point x="83" y="0" type="line"/>
      <point x="204" y="0" type="line"/>
      <point x="256" y="246" type="line"/>
      <point x="447" y="545" type="line"/>
      <point x="313" y="545" type="line"/>
      <point x="223" y="385" type="line"/>
      <point x="199" y="545" type="line"/>
      <point x="70" y="545" type="line"/>
      <point x="136" y="246" type="line"/>
    </contour>
  </outline>
</glyph>
<glyph name="kturned" format="2">
  <advance width="423"/>
  <unicode hex="029E"/>
  <anchor x="110" y="-215" name="bottom"/>
  <anchor x="268" y="545" name="top"/>
  <outline>
    <contour>
      <point x="150" y="-215" type="line"/>
      <point x="270" y="-215" type="line"/>
      <point x="432" y="545" type="line"/>
      <point x="311" y="545" type="line"/>
      <point x="278" y="376" type="line"/>
      <point x="228" y="326" type="line"/>
      <point x="185" y="545" type="line"/>
      <point x="55" y="545" type="line"/>
      <point x="124" y="229" type="line"/>
      <point x="-50" y="0" type="line"/>
      <point x="80" y="0" type="line"/>
      <point x="247" y="224" type="line"/>
      <point x="249" y="224" type="line"/>
      <point x="237" y="183"/>
      <point x="228" y="147"/>
      <point x="221" y="114" type="curve" smooth="yes"/>
    </contour>
  </outline>
</glyph>
<glyph name="uni029F" format="2">
  <advance width="329"/>
  <unicode hex="029F"/>
  <anchor x="108" y="0" name="bottom"/>
  <anchor x="220" y="530" name="top"/>
  <outline>
    <contour>
      <point x="-9" y="0" type="line"/>
      <point x="266" y="0" type="line"/>
      <point x="288" y="103" type="line"/>
      <point x="133" y="103" type="line"/>
      <point x="226" y="545" type="line"/>
      <point x="107" y="545" type="line"/>
    </contour>
  </outline>
</glyph>
<glyph name="uni02C1" format="2">
  <advance width="250"/>
  <unicode hex="02C1"/>
  <outline>
    <contour>
      <point x="156" y="496" type="line"/>
      <point x="240" y="496" type="line"/>
      <point x="259" y="586" type="line"/>
      <point x="218" y="594"/>
      <point x="194" y="609"/>
      <point x="194" y="639" type="curve" smooth="yes"/>
      <point x="194" y="667"/>
      <point x="214" y="691"/>
      <point x="247" y="691" type="curve" smooth="yes"/>
      <point x="270" y="691"/>
      <point x="287" y="684"/>
      <point x="299" y="669" type="curve"/>
      <point x="341" y="737" type="line"/>
      <point x="315" y="755"/>
      <point x="285" y="766"/>
      <point x="234" y="766" type="curve" smooth="yes"/>
      <point x="151" y="766"/>
      <point x="92" y="706"/>
      <point x="92" y="634" type="curve" smooth="yes"/>
      <point x="92" y="581"/>
      <point x="117" y="552"/>
      <point x="165" y="538" type="curve"/>
    </contour>
  </outline>
</glyph>
<glyph name="uni02C8" format="2">
  <advance width="169"/>
  <unicode hex="02C8"/>
  <outline>
    <contour>
      <point x="88" y="496" type="line"/>
      <point x="177" y="496" type="line"/>
      <point x="235" y="771" type="line"/>
      <point x="146" y="771" type="line"/>
    </contour>
  </outline>
</glyph>
<glyph name="hungarumlaut" format="2">
  <advance width="429"/>
  <unicode hex="02DD"/>
  <outline>
    <contour>
      <point x="275" y="606" type="line"/>
      <point x="340" y="606" type="line"/>
      <point x="389" y="645"/>
      <point x="465" y="719"/>
      <point x="492" y="758" type="curve"/>
      <point x="493" y="766" type="line"/>
      <point x="378" y="766" type="line"/>
      <point x="361" y="735"/>
      <point x="326" y="683"/>
      <point x="277" y="617" type="curve"/>
    </contour>
    <contour>
      <point x="111" y="606" type="line"/>
      <point x="170" y="606" type="line"/>
      <point x="227" y="648"/>
      <point x="303" y="718"/>
      <point x="327" y="758" type="curve"/>
      <point x="328" y="766" type="line"/>
      <point x="214" y="766" type="line"/>
      <point x="197" y="736"/>
      <point x="162" y="684"/>
      <point x="113" y="617" type="curve"/>
    </contour>
  </outline>
</glyph>
<glyph name="uni02DF" format="2">
  <advance width="280"/>
  <unicode hex="02DF"/>
  <outline>
    <contour>
      <point x="149" y="571" type="line"/>
      <point x="220" y="631" type="line"/>
      <point x="267" y="570" type="line"/>
      <point x="311" y="605" type="line"/>
      <point x="264" y="668" type="line"/>
      <point x="332" y="727" type="line"/>
      <point x="297" y="770" type="line"/>
      <point x="229" y="712" type="line"/>
      <point x="184" y="771" type="line"/>
      <point x="139" y="736" type="line"/>
      <point x="184" y="676" type="line"/>
      <point x="113" y="614" type="line"/>
    </contour>
  </outline>
</glyph>
<glyph name="uni02F0" format="2">
  <advance width="326"/>
  <unicode hex="02F0"/>
  <outline>
    <contour>
      <point x="-67" y="-229" type="line"/>
      <point x="-10" y="-229" type="line"/>
      <point x="87" y="-96" type="line"/>
      <point x="126" y="-229" type="line"/>
      <point x="179" y="-229" type="line"/>
      <point x="116" y="-25" type="line"/>
      <point x="82" y="-25" type="line"/>
    </contour>
  </outline>
</glyph>
<glyph name="uni02FA" format="2">
  <advance width="334"/>
  <unicode hex="02FA"/>
  <outline>
    <contour>
      <point x="280" y="455" type="line"/>
      <point x="333" y="455" type="line"/>
      <point x="333" y="681" type="line"/>
      <point x="127" y="681" type="line"/>
      <point x="127" y="628" type="line"/>
      <point x="280" y="628" type="line"/>
    </contour>
  </outline>
</glyph>
<glyph name="uni02FD" format="2">
  <advance width="382"/>
  <unicode hex="02FD"/>
  <outline>
    <contour>
      <point x="-27" y="-201" type="line"/>
      <point x="241" y="-201" type="line"/>
      <point x="241" y="-44" type="line"/>
      <point x="188" y="-44" type="line"/>
      <point x="188" y="-149" type="line"/>
      <point x="25" y="-149" type="line"/>
      <point x="25" y="-44" type="line"/>
      <point x="-27" y="-44" type="line"/>
    </contour>
  </outline>
</glyph>
<glyph name="uni02FE" format="2">
  <advance width="377"/>
  <unicode hex="02FE"/>
  <outline>
    <contour>
      <point x="-27" y="-201" type="line"/>
      <point x="236" y="-201" type="line"/>
      <point x="236" y="-148" type="line"/>
      <point x="26" y="-148" type="line"/>
      <point x="26" y="-41" type="line"/>
      <point x="-27" y="-41" type="line"/>
    </contour>
  </outline>
</glyph>
<glyph name="uni02FF" format="2">
  <advance width="427"/>
  <unicode hex="02FF"/>
  <outline>
    <contour>
      <point x="154" y="-229" type="line"/>
      <point x="154" y="-176" type="line"/>
      <point x="55" y="-107" type="line"/>
      <point x="306" y="-107" type="line"/>
      <point x="306" y="-57" type="line"/>
      <point x="55" y="-57" type="line"/>
      <point x="154" y="11" type="line"/>
      <point x="154" y="64" type="line"/>
      <point x="-31" y="-62" type="line"/>
      <point x="-31" y="-102" type="line"/>
    </contour>
  </outline>
</glyph>
<glyph name="overlinecmb" format="2">
  <unicode hex="0305"/>
  <anchor x="55" y="530" name="_top"/>
  <anchor x="114" y="840" name="top"/>
  <outline>
    <contour>
      <point x="-64" y="748" type="line"/>
      <point x="268" y="748" type="line"/>
      <point x="286" y="840" type="line"/>
      <point x="-46" y="840" type="line"/>
    </contour>
  </outline>
</glyph>
<glyph name="dblverticallineabovecomb" format="2">
  <unicode hex="030E"/>
  <anchor x="56" y="530" name="_top"/>
  <anchor x="89" y="764" name="top"/>
  <outline>
    <contour>
      <point x="107" y="596" type="line"/>
      <point x="196" y="596" type="line"/>
      <point x="233" y="771" type="line"/>
      <point x="144" y="771" type="line"/>
    </contour>
    <contour>
      <point x="-55" y="596" type="line"/>
      <point x="34" y="596" type="line"/>
      <point x="72" y="771" type="line"/>
      <point x="-18" y="771" type="line"/>
    </contour>
  </outline>
</glyph>
<glyph name="horncomb" format="2">
  <unicode hex="031B"/>
  <anchor x="71" y="607" name="_topright"/>
  <outline>
    <contour>
      <point x="-39" y="524" type="line"/>
      <point x="78" y="530"/>
      <point x="148" y="591"/>
      <point x="195" y="749" type="curve"/>
      <point x="192" y="760" type="line"/>
      <point x="79" y="760" type="line"/>
      <point x="62" y="679"/>
      <point x="33" y="612"/>
      <point x="-21" y="607" type="curve"/>
    </contour>
  </outline>
</glyph>
<glyph name="downtackbelowcomb" format="2">
  <unicode hex="031E"/>
  <anchor x="-44" y="0" name="_bottom"/>
  <anchor x="-74" y="-204" name="bottom"/>
  <outline>
    <contour>
      <point x="-126" y="-204" type="line"/>
      <point x="-70" y="-204" type="line"/>
      <point x="-48" y="-100" type="line"/>
      <point x="4" y="-100" type="line"/>
      <point x="15" y="-48" type="line"/>
      <point x="-145" y="-48" type="line"/>
      <point x="-156" y="-100" type="line"/>
      <point x="-104" y="-100" type="line"/>
    </contour>
  </outline>
</glyph>
<glyph name="commaaccentcomb" format="2">
  <unicode hex="0326"/>
  <anchor x="137" y="0" name="_bottom"/>
  <anchor x="94" y="-221" name="bottom"/>
  <outline>
    <contour>
      <point x="30" y="-221" type="line"/>
      <point x="109" y="-221" type="line"/>
      <point x="141" y="-183"/>
      <point x="184" y="-116"/>
      <point x="203" y="-71" type="curve"/>
      <point x="203" y="-61" type="line"/>
      <point x="89" y="-61" type="line"/>
      <point x="77" y="-105"/>
      <point x="48" y="-171"/>
      <point x="30" y="-208" type="curve"/>
    </contour>
  </outline>
</glyph>
<glyph name="strokelongoverlaycomb" format="2">
  <unicode hex="0336"/>
  <anchor x="2" y="276" name="_center"/>
  <outline>
    <contour>
      <point x="-329" y="230" type="line"/>
      <point x="313" y="230" type="line"/>
      <point x="333" y="322" type="line"/>
      <point x="-310" y="322" type="line"/>
    </contour>
  </outline>
</glyph>
<glyph name="slashshortoverlaycomb" format="2">
  <unicode hex="0337"/>
  <anchor x="1" y="282" name="_center"/>
  <outline>
    <contour>
      <point x="-95" y="152" type="line"/>
      <point x="151" y="343" type="line"/>
      <point x="97" y="412" type="line"/>
      <point x="-148" y="221" type="line"/>
    </contour>
  </outline>
</glyph>
<glyph name="slashlongoverlaycomb" format="2">
  <unicode hex="0338"/>
  <anchor x="6" y="352" name="_center"/>
  <outline>
    <contour>
      <point x="-239" y="-58" type="line"/>
      <point x="-165" y="-58" type="line"/>
      <point x="251" y="761" type="line"/>
      <point x="177" y="761" type="line"/>
    </contour>
  </outline>
</glyph>
<glyph name="bridgeinvertedbelowcomb" format="2">
  <unicode hex="033A"/>
  <anchor x="-57" y="0" name="_bottom"/>
  <anchor x="-90" y="-216" name="bottom"/>
  <outline>
    <contour>
      <point x="-238" y="-216" type="line"/>
      <point x="30" y="-216" type="line"/>
      <point x="64" y="-59" type="line"/>
      <point x="13" y="-59" type="line"/>
      <point x="-10" y="-165" type="line"/>
      <point x="-176" y="-165" type="line"/>
      <point x="-153" y="-59" type="line"/>
      <point x="-204" y="-59" type="line"/>
    </contour>
  </outline>
</glyph>
<glyph name="ypogegrammenicomb" format="2">
  <unicode hex="0345"/>
  <anchor x="-28" y="0" name="_bottom"/>
  <anchor x="-63" y="-233" name="bottom"/>
  <outline>
    <contour>
      <point x="-61" y="-233" type="curve" smooth="yes"/>
      <point x="-36" y="-233"/>
      <point x="-10" y="-227"/>
      <point x="6" y="-221" type="curve"/>
      <point x="21" y="-146" type="line"/>
      <point x="12" y="-149"/>
      <point x="0" y="-151"/>
      <point x="-12" y="-151" type="curve" smooth="yes"/>
      <point x="-27" y="-151"/>
      <point x="-37" y="-145"/>
      <point x="-37" y="-127" type="curve" smooth="yes"/>
      <point x="-37" y="-123"/>
      <point x="-36" y="-117"/>
      <point x="-34" y="-111" type="curve" smooth="yes"/>
      <point x="-22" y="-56" type="line"/>
      <point x="-118" y="-56" type="line"/>
      <point x="-135" y="-133" type="line" smooth="yes"/>
      <point x="-138" y="-145"/>
      <point x="-139" y="-155"/>
      <point x="-139" y="-165" type="curve" smooth="yes"/>
      <point x="-139" y="-210"/>
      <point x="-111" y="-233"/>
    </contour>
  </outline>
</glyph>
<glyph name="arrowupbelowcomb" format="2">
  <unicode hex="034E"/>
  <anchor x="-54" y="0" name="_bottom"/>
  <anchor x="-87" y="-234" name="bottom"/>
  <outline>
    <contour>
      <point x="-130" y="-234" type="line"/>
      <point x="-82" y="-234" type="line"/>
      <point x="-58" y="-123" type="line"/>
      <point x="-14" y="-123" type="line"/>
      <point x="-62" y="-31" type="line"/>
      <point x="-149" y="-123" type="line"/>
      <point x="-106" y="-123" type="line"/>
    </contour>
  </outline>
</glyph>
<glyph name="arrowheadleftbelowcomb" format="2">
  <unicode hex="0354"/>
  <anchor x="-63.992" y="0" name="_bottom"/>
  <anchor x="-100" y="-240" name="bottom"/>
  <outline>
    <contour>
      <point x="-41" y="-240" type="curve"/>
      <point x="-33" y="-240" type="line"/>
      <point x="-33" y="-197" type="line"/>
      <point x="-53" y="-177"/>
      <point x="-75" y="-159"/>
      <point x="-103" y="-140" type="curve"/>
      <point x="-76" y="-121"/>
      <point x="-52" y="-103"/>
      <point x="-33" y="-83" type="curve"/>
      <point x="-33" y="-40" type="line"/>
      <point x="-41" y="-40" type="line"/>
      <point x="-73" y="-68"/>
      <point x="-122" y="-98"/>
      <point x="-156" y="-111" type="curve"/>
      <point x="-156" y="-167" type="line"/>
      <point x="-121" y="-182"/>
      <point x="-70" y="-218"/>
    </contour>
  </outline>
</glyph>
<glyph name="asteriskbelowcomb" format="2">
  <unicode hex="0359"/>
  <anchor x="-56" y="0" name="_bottom"/>
  <anchor x="-90" y="-234" name="bottom"/>
  <outline>
    <contour>
      <point x="-114" y="-234" type="line"/>
      <point x="-85" y="-172" type="line"/>
      <point x="-56" y="-234" type="line"/>
      <point x="-2" y="-194" type="line"/>
      <point x="-52" y="-149" type="line"/>
      <point x="15" y="-140" type="line"/>
      <point x="-6" y="-79" type="line"/>
      <point x="-65" y="-112" type="line"/>
      <point x="-53" y="-45" type="line"/>
      <point x="-118" y="-45" type="line"/>
      <point x="-106" y="-112" type="line"/>
      <point x="-164" y="-79" type="line"/>
      <point x="-186" y="-140" type="line"/>
      <point x="-118" y="-149" type="line"/>
      <point x="-168" y="-194" type="line"/>
    </contour>
  </outline>
</glyph>
<glyph name="doubleringbelowcomb" format="2">
  <unicode hex="035A"/>
  <anchor x="-49" y="0" name="_bottom"/>
  <anchor x="-84" y="-239" name="bottom"/>
  <outline>
    <contour>
      <point x="-161" y="-239" type="curve" smooth="yes"/>
      <point x="-123" y="-239"/>
      <point x="-94" y="-224"/>
      <point x="-77" y="-197" type="curve"/>
      <point x="-61" y="-224"/>
      <point x="-32" y="-239"/>
      <point x="6" y="-239" type="curve" smooth="yes"/>
      <point x="70" y="-239"/>
      <point x="113" y="-200"/>
      <point x="113" y="-134" type="curve" smooth="yes"/>
      <point x="113" y="-70"/>
      <point x="70" y="-30"/>
      <point x="6" y="-30" type="curve" smooth="yes"/>
      <point x="-32" y="-30"/>
      <point x="-62" y="-46"/>
      <point x="-77" y="-72" type="curve"/>
      <point x="-94" y="-46"/>
      <point x="-123" y="-30"/>
      <point x="-161" y="-30" type="curve" smooth="yes"/>
      <point x="-225" y="-30"/>
      <point x="-268" y="-70"/>
      <point x="-268" y="-134" type="curve" smooth="yes"/>
      <point x="-268" y="-200"/>
      <point x="-225" y="-239"/>
    </contour>
    <contour>
      <point x="-161" y="-196" type="curve" smooth="yes"/>
      <point x="-199" y="-196"/>
      <point x="-222" y="-172"/>
      <point x="-222" y="-134" type="curve" smooth="yes"/>
      <point x="-222" y="-97"/>
      <point x="-196" y="-74"/>
      <point x="-161" y="-74" type="curve" smooth="yes"/>
      <point x="-127" y="-74"/>
      <point x="-101" y="-97"/>
      <point x="-101" y="-134" type="curve" smooth="yes"/>
      <point x="-101" y="-172"/>
      <point x="-125" y="-196"/>
    </contour>
    <contour>
      <point x="6" y="-196" type="curve" smooth="yes"/>
      <point x="-30" y="-196"/>
      <point x="-54" y="-172"/>
      <point x="-54" y="-134" type="curve" smooth="yes"/>
      <point x="-54" y="-97"/>
      <point x="-29" y="-74"/>
      <point x="6" y="-74" type="curve" smooth="yes"/>
      <point x="41" y="-74"/>
      <point x="67" y="-97"/>
      <point x="67" y="-134" type="curve" smooth="yes"/>
      <point x="67" y="-172"/>
      <point x="44" y="-196"/>
    </contour>
  </outline>
</glyph>
<glyph name="zigzagabovecomb" format="2">
  <unicode hex="035B"/>
  <anchor x="57" y="530" name="_top"/>
  <anchor x="98" y="790" name="top"/>
  <outline>
    <contour>
      <point x="90" y="583" type="line"/>
      <point x="143" y="583" type="line"/>
      <point x="185" y="712" type="line"/>
      <point x="63" y="712" type="line"/>
      <point x="89" y="790" type="line"/>
      <point x="37" y="790" type="line"/>
      <point x="-6" y="661" type="line"/>
      <point x="115" y="661" type="line"/>
    </contour>
  </outline>
</glyph>
<glyph name="doublemacroncomb" format="2">
  <unicode hex="035E"/>
  <anchor x="200" y="530" name="_top"/>
  <anchor x="228" y="697" name="top"/>
  <outline>
    <contour>
      <point x="-16" y="605" type="line"/>
      <point x="447" y="605" type="line"/>
      <point x="467" y="697" type="line"/>
      <point x="4" y="697" type="line"/>
    </contour>
  </outline>
</glyph>
<glyph name="tildedoublecomb" format="2">
  <unicode hex="0360"/>
  <anchor x="264" y="530" name="_top"/>
  <anchor x="301" y="753" name="top"/>
  <outline>
    <contour>
      <point x="-20" y="607" type="curve"/>
      <point x="48" y="607" type="line"/>
      <point x="63" y="647"/>
      <point x="89" y="664"/>
      <point x="126" y="664" type="curve" smooth="yes"/>
      <point x="237" y="664"/>
      <point x="320" y="608"/>
      <point x="432" y="608" type="curve" smooth="yes"/>
      <point x="517" y="608"/>
      <point x="584" y="654"/>
      <point x="612" y="753" type="curve"/>
      <point x="545" y="753" type="line"/>
      <point x="533" y="717"/>
      <point x="510" y="696"/>
      <point x="472" y="696" type="curve" smooth="yes"/>
      <point x="355" y="696"/>
      <point x="278" y="752"/>
      <point x="156" y="752" type="curve" smooth="yes"/>
      <point x="76" y="752"/>
      <point x="8" y="706"/>
    </contour>
  </outline>
</glyph>
<glyph name="arrowdoublerightbelowcomb" format="2">
  <unicode hex="0362"/>
  <anchor x="233" y="0" name="_bottom"/>
  <anchor x="203" y="-224" name="bottom"/>
  <outline>
    <contour>
      <point x="396" y="-224" type="line"/>
      <point x="506" y="-127" type="line"/>
      <point x="396" y="-30" type="line"/>
      <point x="396" y="-96" type="line"/>
      <point x="-93" y="-96" type="line"/>
      <point x="-93" y="-158" type="line"/>
      <point x="396" y="-158" type="line"/>
    </contour>
  </outline>
</glyph>
<glyph name="Heta" format="2">
  <advance width="342"/>
  <unicode hex="0370"/>
  <anchor x="115" y="0" name="bottom"/>
  <anchor x="266" y="714" name="top"/>
  <outline>
    <contour>
      <point x="-2" y="0" type="line"/>
      <point x="123" y="0" type="line"/>
      <point x="190" y="317" type="line"/>
      <point x="327" y="317" type="line"/>
      <point x="351" y="428" type="line"/>
      <point x="213" y="428" type="line"/>
      <point x="274" y="714" type="line"/>
      <point x="149" y="714" type="line"/>
    </contour>
  </outline>
</glyph>
<glyph name="heta" format="2">
  <advance width="291"/>
  <unicode hex="0371"/>
  <anchor x="90" y="0" name="bottom"/>
  <anchor x="202" y="530" name="top"/>
  <outline>
    <contour>
      <point x="-6" y="0" type="line"/>
      <point x="114" y="0" type="line"/>
      <point x="163" y="230" type="line"/>
      <point x="267" y="230" type="line"/>
      <point x="289" y="332" type="line"/>
      <point x="185" y="332" type="line"/>
      <point x="230" y="545" type="line"/>
      <point x="110" y="545" type="line"/>
    </contour>
  </outline>
</glyph>
<glyph name="archaicsampi" format="2">
  <advance width="551"/>
  <unicode hex="0373"/>
  <anchor x="220" y="0" name="bottom"/>
  <anchor x="381" y="760" name="top"/>
  <outline>
    <contour>
      <point x="153" y="0" type="line"/>
      <point x="273" y="0" type="line"/>
      <point x="411" y="652" type="line"/>
      <point x="529" y="652" type="line"/>
      <point x="552" y="760" type="line"/>
      <point x="197" y="760" type="line"/>
      <point x="174" y="652" type="line"/>
      <point x="291" y="652" type="line"/>
    </contour>
    <contour>
      <point x="57" y="442" type="line"/>
      <point x="174" y="442" type="line"/>
      <point x="242" y="760" type="line"/>
      <point x="124" y="760" type="line"/>
    </contour>
    <contour>
      <point x="439" y="442" type="line"/>
      <point x="556" y="442" type="line"/>
      <point x="624" y="760" type="line"/>
      <point x="506" y="760" type="line"/>
    </contour>
  </outline>
</glyph>
<glyph name="uni0375" format="2">
  <advance width="378"/>
  <unicode hex="0375"/>
  <outline>
    <contour>
      <point x="0" y="-221" type="line"/>
      <point x="114" y="-221" type="line"/>
      <point x="126" y="-177"/>
      <point x="155" y="-111"/>
      <point x="173" y="-74" type="curve"/>
      <point x="173" y="-61" type="line"/>
      <point x="94" y="-61" type="line"/>
      <point x="62" y="-99"/>
      <point x="19" y="-166"/>
      <point x="0" y="-211" type="curve"/>
    </contour>
  </outline>
</glyph>
<glyph name="pamphyliandigamma" format="2">
  <advance width="456"/>
  <unicode hex="0377"/>
  <anchor x="172" y="0" name="bottom"/>
  <anchor x="284" y="530" name="top"/>
  <outline>
    <contour>
      <point x="-6" y="0" type="line"/>
      <point x="114" y="0" type="line"/>
      <point x="291" y="291" type="line"/>
      <point x="287" y="274"/>
      <point x="282" y="251"/>
      <point x="278" y="234" type="curve" smooth="yes"/>
      <point x="229" y="0" type="line"/>
      <point x="346" y="0" type="line"/>
      <point x="461" y="545" type="line"/>
      <point x="342" y="545" type="line"/>
      <point x="164" y="262" type="line"/>
      <point x="169" y="278"/>
      <point x="175" y="302"/>
      <point x="179" y="318" type="curve" smooth="yes"/>
      <point x="226" y="545" type="line"/>
      <point x="110" y="545" type="line"/>
    </contour>
  </outline>
</glyph>
<glyph name="tonos" format="2">
  <advance width="434"/>
  <unicode hex="0384"/>
  <anchor x="275" y="530" name="_top"/>
  <outline>
    <contour>
      <point x="218" y="606" type="line"/>
      <point x="293" y="606" type="line"/>
      <point x="320" y="641"/>
      <point x="374" y="725"/>
      <point x="396" y="762" type="curve"/>
      <point x="398" y="772" type="line"/>
      <point x="287" y="772" type="line"/>
      <point x="276" y="740"/>
      <point x="238" y="651"/>
      <point x="221" y="619" type="curve"/>
    </contour>
  </outline>
</glyph>
<glyph name="dieresistonos" format="2">
  <advance width="444"/>
  <unicode hex="0385"/>
  <anchor x="248" y="530" name="_top"/>
  <outline>
    <contour>
      <point x="250" y="688" type="line"/>
      <point x="310" y="688" type="line"/>
      <point x="334" y="718"/>
      <point x="385" y="796"/>
      <point x="401" y="830" type="curve"/>
      <point x="403" y="838" type="line"/>
      <point x="302" y="838" type="line"/>
      <point x="294" y="808"/>
      <point x="264" y="730"/>
      <point x="250" y="697" type="curve"/>
    </contour>
    <contour>
      <point x="164" y="622" type="curve" smooth="yes"/>
      <point x="199" y="622"/>
      <point x="229" y="656"/>
      <point x="229" y="705" type="curve" smooth="yes"/>
      <point x="229" y="734"/>
      <point x="213" y="750"/>
      <point x="186" y="750" type="curve" smooth="yes"/>
      <point x="142" y="750"/>
      <point x="118" y="711"/>
      <point x="118" y="669" type="curve" smooth="yes"/>
      <point x="118" y="638"/>
      <point x="134" y="622"/>
    </contour>
    <contour>
      <point x="398" y="622" type="curve" smooth="yes"/>
      <point x="434" y="622"/>
      <point x="463" y="656"/>
      <point x="463" y="705" type="curve" smooth="yes"/>
      <point x="463" y="734"/>
      <point x="447" y="750"/>
      <point x="421" y="750" type="curve" smooth="yes"/>
      <point x="377" y="750"/>
      <point x="353" y="711"/>
      <point x="353" y="669" type="curve" smooth="yes"/>
      <point x="353" y="638"/>
      <point x="369" y="622"/>
    </contour>
  </outline>
</glyph>
<glyph name="Gamma" format="2">
  <advance width="370"/>
  <unicode hex="0393"/>
  <anchor x="129" y="0" name="bottom"/>
  <anchor x="280" y="714" name="top"/>
  <outline>
    <contour>
      <point x="-2" y="0" type="line"/>
      <point x="123" y="0" type="line"/>
      <point x="251" y="604" type="line"/>
      <point x="424" y="604" type="line"/>
      <point x="447" y="714" type="line"/>
      <point x="149" y="714" type="line"/>
    </contour>
  </outline>
</glyph>
<glyph name="Delta" format="2">
  <advance width="470"/>
  <unicode hex="0394"/>
  <anchor x="178" y="0" name="bottom"/>
  <anchor x="329" y="714" name="top"/>
  <outline>
    <contour>
      <point x="-34" y="0" type="line"/>
      <point x="402" y="0" type="line"/>
      <point x="417" y="77" type="line"/>
      <point x="405" y="717" type="line"/>
      <point x="247" y="717" type="line"/>
      <point x="-34" y="77" type="line"/>
    </contour>
    <contour>
      <point x="111" y="111" type="line"/>
      <point x="261" y="488" type="line" smooth="yes"/>
      <point x="275" y="520"/>
      <point x="289" y="568"/>
      <point x="296" y="595" type="curve"/>
      <point x="294" y="548"/>
      <point x="294" y="520"/>
      <point x="293" y="488" type="curve" smooth="yes"/>
      <point x="288" y="111" type="line"/>
    </contour>
  </outline>
</glyph>
<glyph name="Lambda" format="2">
  <advance width="462"/>
  <unicode hex="039B"/>
  <anchor x="175" y="0" name="bottom"/>
  <anchor x="327" y="714" name="top"/>
  <outline>
    <contour>
      <point x="-61" y="0" type="line"/>
      <point x="70" y="0" type="line"/>
      <point x="232" y="397" type="line" smooth="yes"/>
      <point x="248" y="436"/>
      <point x="263" y="475"/>
      <point x="280" y="526" type="curve"/>
      <point x="278" y="489"/>
      <point x="277" y="447"/>
      <point x="276" y="413" type="curve" smooth="yes"/>
      <point x="270" y="0" type="line"/>
      <point x="402" y="0" type="line"/>
      <point x="394" y="717" type="line"/>
      <point x="249" y="717" type="line"/>
    </contour>
  </outline>
</glyph>
<glyph name="Xi" format="2">
  <advance width="397"/>
  <unicode hex="039E"/>
  <anchor x="143" y="0" name="bottom"/>
  <anchor x="294" y="714" name="top"/>
  <outline>
    <contour>
      <point x="-29" y="0" type="line"/>
      <point x="305" y="0" type="line"/>
      <point x="328" y="110" type="line"/>
      <point x="-6" y="110" type="line"/>
    </contour>
    <contour>
      <point x="73" y="320" type="line"/>
      <point x="338" y="320" type="line"/>
      <point x="362" y="429" type="line"/>
      <point x="96" y="429" type="line"/>
    </contour>
    <contour>
      <point x="111" y="605" type="line"/>
      <point x="423" y="605" type="line"/>
      <point x="446" y="714" type="line"/>
      <point x="134" y="714" type="line"/>
    </contour>
  </outline>
</glyph>
<glyph name="Pi" format="2">
  <advance width="515"/>
  <unicode hex="03A0"/>
  <anchor x="202" y="0" name="bottom"/>
  <anchor x="353" y="714" name="top"/>
  <outline>
    <contour>
      <point x="-2" y="0" type="line"/>
      <point x="123" y="0" type="line"/>
      <point x="250" y="603" type="line"/>
      <point x="399" y="603" type="line"/>
      <point x="271" y="0" type="line"/>
      <point x="396" y="0" type="line"/>
      <point x="547" y="714" type="line"/>
      <point x="149" y="714" type="line"/>
    </contour>
  </outline>
</glyph>
<glyph name="Sigma" format="2">
  <advance width="407"/>
  <unicode hex="03A3"/>
  <anchor x="148" y="0" name="bottom"/>
  <anchor x="299" y="714" name="top"/>
  <outline>
    <contour>
      <point x="-32" y="0" type="line"/>
      <point x="320" y="0" type="line"/>
      <point x="344" y="110" type="line"/>
      <point x="130" y="110" type="line"/>
      <point x="325" y="375" type="line"/>
      <point x="245" y="605" type="line"/>
      <point x="433" y="605" type="line"/>
      <point x="455.992" y="714" type="line"/>
      <point x="126" y="714" type="line"/>
      <point x="105" y="613" type="line"/>
      <point x="191" y="374" type="line"/>
      <point x="-11" y="103" type="line"/>
    </contour>
  </outline>
</glyph>
<glyph name="Phi" format="2">
  <advance width="632"/>
  <unicode hex="03A6"/>
  <anchor x="260" y="0" name="bottom"/>
  <anchor x="411" y="714" name="top"/>
  <outline>
    <contour>
      <point x="190" y="-10" type="line"/>
      <point x="311" y="-10" type="line"/>
      <point x="335" y="100" type="line"/>
      <point x="522" y="102"/>
      <point x="621" y="263"/>
      <point x="621" y="442" type="curve" smooth="yes"/>
      <point x="621" y="558"/>
      <point x="553" y="631"/>
      <point x="449" y="636" type="curve"/>
      <point x="467" y="724" type="line"/>
      <point x="346" y="724" type="line"/>
      <point x="327" y="636" type="line"/>
      <point x="134" y="630"/>
      <point x="41" y="468"/>
      <point x="41" y="294" type="curve" smooth="yes"/>
      <point x="41" y="168"/>
      <point x="108" y="105"/>
      <point x="214" y="100" type="curve"/>
    </contour>
    <contour>
      <point x="236" y="206" type="line"/>
      <point x="190" y="208"/>
      <point x="166" y="237"/>
      <point x="166" y="301" type="curve" smooth="yes"/>
      <point x="166" y="401"/>
      <point x="210" y="529"/>
      <point x="305" y="530" type="curve"/>
    </contour>
    <contour>
      <point x="357" y="206" type="curve"/>
      <point x="426" y="530" type="line"/>
      <point x="470" y="529"/>
      <point x="495" y="496"/>
      <point x="495" y="432" type="curve" smooth="yes"/>
      <point x="495" y="324"/>
      <point x="443" y="207"/>
    </contour>
  </outline>
</glyph>
<glyph name="Psi" format="2">
  <advance width="642"/>
  <unicode hex="03A8"/>
  <anchor x="265" y="0" name="bottom"/>
  <anchor x="416" y="714" name="top"/>
  <outline>
    <contour>
      <point x="197" y="0" type="line"/>
      <point x="319" y="0" type="line"/>
      <point x="362" y="203" type="line"/>
      <point x="365" y="203" type="line" smooth="yes"/>
      <point x="540" y="203"/>
      <point x="592" y="292"/>
      <point x="626" y="453" type="curve" smooth="yes"/>
      <point x="681" y="714" type="line"/>
      <point x="556" y="714" type="line"/>
      <point x="502" y="459" type="line" smooth="yes"/>
      <point x="485" y="379"/>
      <point x="464" y="314"/>
      <point x="387" y="314" type="curve" smooth="yes"/>
      <point x="385" y="314" type="line"/>
      <point x="470" y="714" type="line"/>
      <point x="348" y="714" type="line"/>
      <point x="264" y="314" type="line"/>
      <point x="262" y="314" type="line" smooth="yes"/>
      <point x="223" y="315"/>
      <point x="197" y="330"/>
      <point x="197" y="383" type="curve" smooth="yes"/>
      <point x="197" y="404"/>
      <point x="201" y="430"/>
      <point x="208" y="462" type="curve" smooth="yes"/>
      <point x="262" y="714" type="line"/>
      <point x="137" y="714" type="line"/>
      <point x="87" y="478" type="line" smooth="yes"/>
      <point x="78" y="438"/>
      <point x="73" y="399"/>
      <point x="73" y="368" type="curve" smooth="yes"/>
      <point x="73" y="261"/>
      <point x="128" y="206"/>
      <point x="239" y="203" type="curve" smooth="yes"/>
      <point x="240" y="203" type="line"/>
    </contour>
  </outline>
</glyph>
<glyph name="Omega" format="2">
  <advance width="540"/>
  <unicode hex="03A9"/>
  <anchor x="214" y="0" name="bottom"/>
  <anchor x="366" y="714" name="top"/>
  <anchor x="115" y="714" name="topleft"/>
  <outline>
    <contour>
      <point x="-39" y="0" type="line"/>
      <point x="181" y="0" type="line"/>
      <point x="206" y="118" type="line"/>
      <point x="181" y="153"/>
      <point x="169" y="198"/>
      <point x="169" y="258" type="curve" smooth="yes"/>
      <point x="169" y="377"/>
      <point x="222" y="614"/>
      <point x="334" y="614" type="curve" smooth="yes"/>
      <point x="381" y="614"/>
      <point x="406" y="575"/>
      <point x="406" y="501" type="curve" smooth="yes"/>
      <point x="406" y="375"/>
      <point x="354" y="196"/>
      <point x="258" y="118" type="curve"/>
      <point x="233" y="0" type="line"/>
      <point x="457" y="0" type="line"/>
      <point x="481" y="110" type="line"/>
      <point x="354" y="110" type="line"/>
      <point x="472" y="196"/>
      <point x="538" y="354"/>
      <point x="538" y="516" type="curve" smooth="yes"/>
      <point x="538" y="642"/>
      <point x="471" y="725"/>
      <point x="347" y="725" type="curve" smooth="yes"/>
      <point x="162" y="725"/>
      <point x="49" y="501"/>
      <point x="49" y="301" type="curve" smooth="yes"/>
      <point x="49" y="227"/>
      <point x="67" y="156"/>
      <point x="110" y="110" type="curve"/>
      <point x="-16" y="110" type="line"/>
    </contour>
  </outline>
</glyph>
<glyph name="alpha" format="2">
  <advance width="480"/>
  <unicode hex="03B1"/>
  <anchor x="184" y="0" name="bottom"/>
  <anchor x="296" y="530" name="top"/>
  <outline>
    <contour>
      <point x="132" y="-10" type="curve" smooth="yes"/>
      <point x="182" y="-10"/>
      <point x="221" y="21"/>
      <point x="256.008" y="70.991" type="curve"/>
      <point x="259" y="71" type="line"/>
      <point x="258" y="40"/>
      <point x="269" y="-10"/>
      <point x="352" y="-10" type="curve" smooth="yes"/>
      <point x="370" y="-10"/>
      <point x="405" y="-2"/>
      <point x="427" y="6" type="curve"/>
      <point x="427" y="104" type="line"/>
      <point x="415" y="97"/>
      <point x="405" y="95"/>
      <point x="398" y="95" type="curve" smooth="yes"/>
      <point x="386" y="95"/>
      <point x="379" y="100"/>
      <point x="379" y="118" type="curve" smooth="yes"/>
      <point x="379" y="130"/>
      <point x="382" y="150"/>
      <point x="386" y="168" type="curve" smooth="yes"/>
      <point x="422" y="337" type="line" smooth="yes"/>
      <point x="439" y="416"/>
      <point x="461" y="486"/>
      <point x="489" y="545" type="curve"/>
      <point x="384" y="545" type="line"/>
      <point x="371" y="529"/>
      <point x="357" y="503"/>
      <point x="345" y="475" type="curve"/>
      <point x="342" y="475" type="line"/>
      <point x="326" y="530"/>
      <point x="285" y="555"/>
      <point x="239" y="555" type="curve" smooth="yes"/>
      <point x="101" y="555"/>
      <point x="19" y="326"/>
      <point x="19" y="148" type="curve" smooth="yes"/>
      <point x="19" y="49"/>
      <point x="63" y="-10"/>
    </contour>
    <contour>
      <point x="179" y="92" type="curve" smooth="yes"/>
      <point x="155" y="92"/>
      <point x="143" y="116"/>
      <point x="143" y="165" type="curve" smooth="yes"/>
      <point x="143" y="248"/>
      <point x="186" y="450"/>
      <point x="258" y="450" type="curve" smooth="yes"/>
      <point x="287" y="450"/>
      <point x="302" y="428"/>
      <point x="302" y="382" type="curve" smooth="yes"/>
      <point x="302" y="352"/>
      <point x="297" y="315"/>
      <point x="283" y="252" type="curve" smooth="yes"/>
      <point x="267" y="182"/>
      <point x="235" y="92"/>
    </contour>
  </outline>
</glyph>
<glyph name="beta" format="2">
  <advance width="463"/>
  <unicode hex="03B2"/>
  <anchor x="250" y="0" name="bottom"/>
  <anchor x="338" y="765" name="top"/>
  <anchor x="550" y="765" name="topright"/>
  <outline>
    <contour>
      <point x="-57" y="-240" type="line"/>
      <point x="61" y="-240" type="line"/>
      <point x="117" y="17" type="line"/>
      <point x="139" y="1"/>
      <point x="178" y="-10"/>
      <point x="218" y="-10" type="curve" smooth="yes"/>
      <point x="354" y="-10"/>
      <point x="427" y="132"/>
      <point x="427" y="261" type="curve" smooth="yes"/>
      <point x="427" y="332"/>
      <point x="394" y="390"/>
      <point x="333" y="402" type="curve"/>
      <point x="430" y="424"/>
      <point x="475" y="509"/>
      <point x="475" y="614" type="curve" smooth="yes"/>
      <point x="475" y="701"/>
      <point x="420" y="765"/>
      <point x="323" y="765" type="curve" smooth="yes"/>
      <point x="198" y="765"/>
      <point x="140" y="688"/>
      <point x="111" y="555" type="curve" smooth="yes"/>
    </contour>
    <contour>
      <point x="199" y="96" type="curve" smooth="yes"/>
      <point x="179" y="96"/>
      <point x="152" y="107"/>
      <point x="139" y="125" type="curve"/>
      <point x="232" y="562" type="line" smooth="yes"/>
      <point x="246" y="627"/>
      <point x="268" y="662"/>
      <point x="304" y="662" type="curve" smooth="yes"/>
      <point x="334" y="662"/>
      <point x="349" y="641"/>
      <point x="349" y="602" type="curve" smooth="yes"/>
      <point x="349" y="539"/>
      <point x="322" y="445"/>
      <point x="262" y="445" type="curve" smooth="yes"/>
      <point x="246" y="445" type="line"/>
      <point x="224" y="342" type="line"/>
      <point x="245" y="342" type="line" smooth="yes"/>
      <point x="283" y="342"/>
      <point x="304" y="312"/>
      <point x="304" y="260" type="curve" smooth="yes"/>
      <point x="304" y="201"/>
      <point x="277" y="96"/>
    </contour>
  </outline>
</glyph>
<glyph name="gamma" format="2">
  <advance width="401"/>
  <unicode hex="03B3"/>
  <anchor x="93" y="-240" name="bottom"/>
  <anchor x="256" y="530" name="top"/>
  <anchor x="437" y="530" name="topright"/>
  <outline>
    <contour>
      <point x="0" y="-240" type="curve"/>
      <point x="126" y="-240" type="line"/>
      <point x="142" y="-168"/>
      <point x="178" y="-63"/>
      <point x="215" y="19" type="curve" smooth="yes"/>
      <point x="454" y="545" type="line"/>
      <point x="326" y="545" type="line"/>
      <point x="235" y="326" type="line" smooth="yes"/>
      <point x="213" y="276"/>
      <point x="196" y="228"/>
      <point x="182" y="183" type="curve"/>
      <point x="178" y="183" type="line"/>
      <point x="181" y="218"/>
      <point x="183" y="283"/>
      <point x="183" y="329" type="curve" smooth="yes"/>
      <point x="183" y="545" type="line"/>
      <point x="62" y="545" type="line"/>
      <point x="80" y="2" type="line"/>
      <point x="47" y="-77"/>
      <point x="18" y="-159"/>
    </contour>
  </outline>
</glyph>
<glyph name="delta" format="2">
  <advance width="445"/>
  <unicode hex="03B4"/>
  <anchor x="167" y="0" name="bottom"/>
  <anchor x="329" y="765" name="top"/>
  <outline>
    <contour>
      <point x="178" y="-10" type="curve" smooth="yes"/>
      <point x="332" y="-10"/>
      <point x="408" y="122"/>
      <point x="408" y="280" type="curve" smooth="yes"/>
      <point x="408" y="353"/>
      <point x="388" y="415"/>
      <point x="342" y="477" type="curve" smooth="yes"/>
      <point x="312" y="518"/>
      <point x="270" y="557"/>
      <point x="270" y="600" type="curve" smooth="yes"/>
      <point x="270" y="639"/>
      <point x="294" y="663"/>
      <point x="333" y="663" type="curve" smooth="yes"/>
      <point x="365" y="663"/>
      <point x="401" y="651"/>
      <point x="439" y="622" type="curve"/>
      <point x="496" y="717" type="line"/>
      <point x="463" y="744"/>
      <point x="406" y="765"/>
      <point x="336" y="765" type="curve" smooth="yes"/>
      <point x="226" y="765"/>
      <point x="149" y="696"/>
      <point x="149" y="593" type="curve" smooth="yes"/>
      <point x="149" y="535"/>
      <point x="171" y="492"/>
      <point x="207" y="448" type="curve"/>
      <point x="89" y="401"/>
      <point x="14" y="291"/>
      <point x="14" y="163" type="curve" smooth="yes"/>
      <point x="14" y="55"/>
      <point x="67" y="-10"/>
    </contour>
    <contour>
      <point x="188" y="92" type="curve" smooth="yes"/>
      <point x="155" y="92"/>
      <point x="138" y="123"/>
      <point x="138" y="166" type="curve" smooth="yes"/>
      <point x="138" y="246"/>
      <point x="187" y="356"/>
      <point x="251" y="388" type="curve"/>
      <point x="273" y="357"/>
      <point x="284" y="321"/>
      <point x="284" y="272" type="curve" smooth="yes"/>
      <point x="284" y="212"/>
      <point x="257" y="92"/>
    </contour>
  </outline>
</glyph>
<glyph name="epsilon" format="2">
  <advance width="372"/>
  <unicode hex="03B5"/>
  <anchor x="130" y="0" name="bottom"/>
  <anchor x="242" y="530" name="top"/>
  <outline>
    <contour>
      <point x="154" y="-10" type="curve" smooth="yes"/>
      <point x="200.995" y="-10"/>
      <point x="253" y="1"/>
      <point x="297" y="25" type="curve"/>
      <point x="297" y="126" type="line"/>
      <point x="256" y="103"/>
      <point x="220" y="92"/>
      <point x="186" y="92" type="curve" smooth="yes"/>
      <point x="142" y="92"/>
      <point x="125" y="113"/>
      <point x="125" y="149" type="curve" smooth="yes"/>
      <point x="125" y="202"/>
      <point x="164" y="238"/>
      <point x="223" y="238" type="curve" smooth="yes"/>
      <point x="267" y="238" type="line"/>
      <point x="286" y="328" type="line"/>
      <point x="250" y="328" type="line" smooth="yes"/>
      <point x="210" y="328"/>
      <point x="191" y="344"/>
      <point x="191" y="380" type="curve" smooth="yes"/>
      <point x="191" y="425"/>
      <point x="216" y="454"/>
      <point x="258" y="454" type="curve" smooth="yes"/>
      <point x="285" y="454"/>
      <point x="316" y="444"/>
      <point x="342" y="423" type="curve"/>
      <point x="396" y="513" type="line"/>
      <point x="354" y="543"/>
      <point x="306" y="555"/>
      <point x="252" y="555" type="curve" smooth="yes"/>
      <point x="145" y="555"/>
      <point x="75" y="485"/>
      <point x="75" y="395" type="curve" smooth="yes"/>
      <point x="75" y="339"/>
      <point x="97" y="305"/>
      <point x="129" y="290" type="curve"/>
      <point x="128" y="286" type="line"/>
      <point x="41" y="269"/>
      <point x="-1" y="195"/>
      <point x="-1" y="124" type="curve" smooth="yes"/>
      <point x="-1" y="35"/>
      <point x="52" y="-10"/>
    </contour>
  </outline>
</glyph>
<glyph name="zeta" format="2">
  <advance width="355"/>
  <unicode hex="03B6"/>
  <anchor x="82" y="-188" name="bottom"/>
  <anchor x="283" y="760" name="top"/>
  <outline>
    <contour>
      <point x="76" y="-188" type="curve"/>
      <point x="198" y="-188" type="line"/>
      <point x="246" y="-135"/>
      <point x="284" y="-81"/>
      <point x="284" y="-8" type="curve" smooth="yes"/>
      <point x="284" y="43"/>
      <point x="244" y="74"/>
      <point x="211" y="97" type="curve" smooth="yes"/>
      <point x="178" y="123"/>
      <point x="142" y="147"/>
      <point x="142" y="200" type="curve" smooth="yes"/>
      <point x="142" y="343"/>
      <point x="294" y="541"/>
      <point x="426" y="679" type="curve"/>
      <point x="443" y="760" type="line"/>
      <point x="157" y="760" type="line"/>
      <point x="135" y="658" type="line"/>
      <point x="223" y="658" type="line" smooth="yes"/>
      <point x="247" y="658"/>
      <point x="268" y="659"/>
      <point x="286" y="663" type="curve"/>
      <point x="155" y="529"/>
      <point x="13" y="344"/>
      <point x="13" y="158" type="curve" smooth="yes"/>
      <point x="13" y="86"/>
      <point x="44" y="54"/>
      <point x="91" y="20" type="curve" smooth="yes"/>
      <point x="121" y="-1"/>
      <point x="149" y="-19"/>
      <point x="149" y="-51" type="curve" smooth="yes"/>
      <point x="149" y="-96"/>
      <point x="107" y="-153"/>
    </contour>
  </outline>
</glyph>
<glyph name="theta" format="2">
  <advance width="458"/>
  <unicode hex="03B8"/>
  <anchor x="173" y="0" name="bottom"/>
  <anchor x="336" y="771" name="top"/>
  <anchor x="545" y="771" name="topright"/>
  <outline>
    <contour>
      <point x="178" y="-10" type="curve" smooth="yes"/>
      <point x="276" y="-10"/>
      <point x="343" y="79"/>
      <point x="391" y="200" type="curve" smooth="yes"/>
      <point x="437" y="309"/>
      <point x="465" y="467"/>
      <point x="465" y="567" type="curve" smooth="yes"/>
      <point x="465" y="717"/>
      <point x="406" y="771"/>
      <point x="319" y="771" type="curve" smooth="yes"/>
      <point x="175" y="771"/>
      <point x="97" y="589"/>
      <point x="58" y="410" type="curve" smooth="yes"/>
      <point x="40" y="330"/>
      <point x="31" y="253"/>
      <point x="31" y="191" type="curve" smooth="yes"/>
      <point x="31" y="54"/>
      <point x="80" y="-10"/>
    </contour>
    <contour>
      <point x="186" y="88" type="curve" smooth="yes"/>
      <point x="160" y="88"/>
      <point x="143" y="115"/>
      <point x="143" y="172" type="curve" smooth="yes"/>
      <point x="143" y="207"/>
      <point x="151" y="263"/>
      <point x="164" y="335" type="curve"/>
      <point x="311" y="335" type="line"/>
      <point x="281" y="209"/>
      <point x="241" y="88"/>
    </contour>
    <contour>
      <point x="186" y="433" type="line"/>
      <point x="217" y="572"/>
      <point x="256" y="672"/>
      <point x="306" y="672" type="curve" smooth="yes"/>
      <point x="333" y="672"/>
      <point x="348" y="646"/>
      <point x="348" y="589" type="curve" smooth="yes"/>
      <point x="348" y="552"/>
      <point x="341" y="500"/>
      <point x="331" y="433" type="curve"/>
    </contour>
  </outline>
</glyph>
<glyph name="iota" format="2">
  <advance width="272"/>
  <unicode hex="03B9"/>
  <anchor x="80" y="0" name="bottom"/>
  <anchor x="174" y="534" name="top"/>
  <anchor x="77" y="534" name="topleft"/>
  <outline>
    <contour>
      <point x="120" y="-10" type="curve" smooth="yes"/>
      <point x="148" y="-10"/>
      <point x="184" y="-1"/>
      <point x="212" y="15" type="curve"/>
      <point x="212" y="110" type="line"/>
      <point x="197" y="102"/>
      <point x="178" y="96"/>
      <point x="166" y="96" type="curve" smooth="yes"/>
      <point x="151" y="96"/>
      <point x="144" y="106"/>
      <point x="144" y="122" type="curve" smooth="yes"/>
      <point x="144" y="133"/>
      <point x="146" y="143"/>
      <point x="148" y="154" type="curve" smooth="yes"/>
      <point x="231" y="545" type="line"/>
      <point x="111" y="545" type="line"/>
      <point x="31" y="167" type="line" smooth="yes"/>
      <point x="25" y="141"/>
      <point x="21" y="111"/>
      <point x="21" y="90" type="curve" smooth="yes"/>
      <point x="21" y="27"/>
      <point x="56" y="-10"/>
    </contour>
  </outline>
</glyph>
<glyph name="lambda" format="2">
  <advance width="429"/>
  <unicode hex="03BB"/>
  <anchor x="159" y="0" name="bottom"/>
  <anchor x="321" y="767" name="top"/>
  <outline>
    <contour>
      <point x="325" y="-10" type="curve" smooth="yes"/>
      <point x="342" y="-10"/>
      <point x="372" y="-6"/>
      <point x="390" y="-1" type="curve"/>
      <point x="390" y="104" type="line"/>
      <point x="376" y="100"/>
      <point x="367" y="98"/>
      <point x="358" y="98" type="curve" smooth="yes"/>
      <point x="338" y="98"/>
      <point x="329" y="111"/>
      <point x="328" y="152" type="curve" smooth="yes"/>
      <point x="320" y="600" type="line" smooth="yes"/>
      <point x="316" y="701"/>
      <point x="297" y="767"/>
      <point x="201" y="767" type="curve" smooth="yes"/>
      <point x="179" y="767"/>
      <point x="146" y="762"/>
      <point x="128" y="757" type="curve"/>
      <point x="128" y="658" type="line"/>
      <point x="143" y="663"/>
      <point x="150" y="665"/>
      <point x="161" y="665" type="curve" smooth="yes"/>
      <point x="185" y="665"/>
      <point x="198" y="650"/>
      <point x="199" y="604" type="curve" smooth="yes"/>
      <point x="199" y="526" type="line"/>
      <point x="-54" y="0" type="line"/>
      <point x="71" y="0" type="line"/>
      <point x="193" y="275" type="line" smooth="yes"/>
      <point x="201" y="294"/>
      <point x="208" y="320"/>
      <point x="214" y="340" type="curve"/>
      <point x="213" y="314"/>
      <point x="213" y="288"/>
      <point x="213" y="262" type="curve" smooth="yes"/>
      <point x="212" y="137" type="line" smooth="yes"/>
      <point x="213" y="50"/>
      <point x="232" y="-10"/>
    </contour>
  </outline>
</glyph>
<glyph name="nu" format="2">
  <advance width="416"/>
  <unicode hex="03BD"/>
  <anchor x="152" y="0" name="bottom"/>
  <anchor x="264" y="530" name="top"/>
  <outline>
    <contour>
      <point x="66" y="0" type="line"/>
      <point x="185" y="0" type="line"/>
      <point x="325" y="166"/>
      <point x="404" y="337"/>
      <point x="449" y="545" type="curve"/>
      <point x="324" y="545" type="line"/>
      <point x="289" y="377"/>
      <point x="242" y="251"/>
      <point x="178" y="151" type="curve"/>
      <point x="180" y="187"/>
      <point x="181" y="228"/>
      <point x="182" y="267" type="curve" smooth="yes"/>
      <point x="186" y="545" type="line"/>
      <point x="64" y="545" type="line"/>
    </contour>
  </outline>
</glyph>
<glyph name="xi" format="2">
  <advance width="368"/>
  <unicode hex="03BE"/>
  <anchor x="89" y="-188" name="bottom"/>
  <anchor x="290" y="760" name="top"/>
  <outline>
    <contour>
      <point x="75" y="-188" type="curve"/>
      <point x="197" y="-188" type="line"/>
      <point x="251" y="-128"/>
      <point x="282" y="-66"/>
      <point x="282" y="-3" type="curve" smooth="yes"/>
      <point x="282" y="53"/>
      <point x="254" y="81"/>
      <point x="211" y="102" type="curve" smooth="yes"/>
      <point x="171" y="125"/>
      <point x="144" y="141"/>
      <point x="144" y="191" type="curve" smooth="yes"/>
      <point x="144" y="281"/>
      <point x="193" y="344"/>
      <point x="277" y="344" type="curve" smooth="yes"/>
      <point x="325" y="344" type="line"/>
      <point x="347" y="447" type="line"/>
      <point x="301" y="447" type="line" smooth="yes"/>
      <point x="254" y="447"/>
      <point x="232" y="467"/>
      <point x="232" y="511" type="curve" smooth="yes"/>
      <point x="232" y="593"/>
      <point x="289" y="659"/>
      <point x="370" y="659" type="curve" smooth="yes"/>
      <point x="412" y="659" type="line"/>
      <point x="434" y="760" type="line"/>
      <point x="152" y="760" type="line"/>
      <point x="130" y="658" type="line"/>
      <point x="168" y="658" type="line" smooth="yes"/>
      <point x="187" y="658"/>
      <point x="206" y="659"/>
      <point x="229" y="662" type="curve"/>
      <point x="156" y="640"/>
      <point x="109" y="571"/>
      <point x="109" y="499" type="curve" smooth="yes"/>
      <point x="109" y="454"/>
      <point x="128" y="418"/>
      <point x="172" y="402" type="curve"/>
      <point x="171" y="398" type="line"/>
      <point x="66" y="367"/>
      <point x="16" y="270"/>
      <point x="16" y="166" type="curve" smooth="yes"/>
      <point x="16" y="88"/>
      <point x="48" y="44"/>
      <point x="109" y="13" type="curve" smooth="yes"/>
      <point x="142" y="-3"/>
      <point x="156" y="-17"/>
      <point x="157" y="-43" type="curve" smooth="yes"/>
      <point x="157" y="-85"/>
      <point x="107" y="-152"/>
    </contour>
  </outline>
</glyph>
<glyph name="pi" format="2">
  <advance width="502"/>
  <unicode hex="03C0"/>
  <anchor x="195" y="0" name="bottom"/>
  <anchor x="307" y="530" name="top"/>
  <outline>
    <contour>
      <point x="349" y="-8" type="curve" smooth="yes"/>
      <point x="377" y="-8"/>
      <point x="412" y="0"/>
      <point x="439" y="15" type="curve"/>
      <point x="439" y="110" type="line"/>
      <point x="427" y="104"/>
      <point x="412" y="98"/>
      <point x="398" y="98" type="curve" smooth="yes"/>
      <point x="382" y="98"/>
      <point x="374" y="107"/>
      <point x="374" y="124" type="curve" smooth="yes"/>
      <point x="374" y="136"/>
      <point x="376" y="146"/>
      <point x="378" y="157" type="curve" smooth="yes"/>
      <point x="439" y="443" type="line"/>
      <point x="511" y="443" type="line"/>
      <point x="533" y="545" type="line"/>
      <point x="113" y="545" type="line"/>
      <point x="45" y="497" type="line"/>
      <point x="33" y="443" type="line"/>
      <point x="107" y="443" type="line"/>
      <point x="12" y="0" type="line"/>
      <point x="132" y="0" type="line"/>
      <point x="227" y="443" type="line"/>
      <point x="319" y="443" type="line"/>
      <point x="261" y="170" type="line" smooth="yes"/>
      <point x="255" y="144"/>
      <point x="251" y="115"/>
      <point x="251" y="92" type="curve" smooth="yes"/>
      <point x="251" y="27"/>
      <point x="287" y="-8"/>
    </contour>
  </outline>
</glyph>
<glyph name="sigma" format="2">
  <advance width="468"/>
  <unicode hex="03C3"/>
  <anchor x="178" y="0" name="bottom"/>
  <anchor x="290" y="530" name="top"/>
  <outline>
    <contour>
      <point x="175" y="-10" type="curve" smooth="yes"/>
      <point x="328" y="-10"/>
      <point x="417" y="187"/>
      <point x="417" y="336" type="curve" smooth="yes"/>
      <point x="417" y="383"/>
      <point x="408" y="416"/>
      <point x="395" y="443" type="curve"/>
      <point x="482" y="443" type="line"/>
      <point x="503" y="545" type="line"/>
      <point x="304" y="545" type="line" smooth="yes"/>
      <point x="96" y="545"/>
      <point x="22" y="333"/>
      <point x="22" y="168" type="curve" smooth="yes"/>
      <point x="22" y="56"/>
      <point x="79" y="-10"/>
    </contour>
    <contour>
      <point x="188" y="92" type="curve" smooth="yes"/>
      <point x="157" y="92"/>
      <point x="143" y="119"/>
      <point x="143" y="167" type="curve" smooth="yes"/>
      <point x="143" y="275"/>
      <point x="184" y="443"/>
      <point x="283" y="443" type="curve" smooth="yes"/>
      <point x="295" y="443" type="line"/>
      <point x="298" y="427"/>
      <point x="300" y="405"/>
      <point x="300" y="376" type="curve" smooth="yes"/>
      <point x="300" y="265"/>
      <point x="260" y="92"/>
    </contour>
  </outline>
</glyph>
<glyph name="tau" format="2">
  <advance width="336"/>
  <unicode hex="03C4"/>
  <anchor x="112" y="0" name="bottom"/>
  <anchor x="224" y="530" name="top"/>
  <outline>
    <contour>
      <point x="164" y="-11" type="curve" smooth="yes"/>
      <point x="193" y="-11"/>
      <point x="229" y="-2"/>
      <point x="258" y="14" type="curve"/>
      <point x="258" y="109" type="line"/>
      <point x="243" y="102"/>
      <point x="224" y="95"/>
      <point x="211" y="95" type="curve" smooth="yes"/>
      <point x="192" y="95"/>
      <point x="183" y="107"/>
      <point x="183" y="126" type="curve" smooth="yes"/>
      <point x="183" y="139"/>
      <point x="185" y="151"/>
      <point x="188" y="165" type="curve" smooth="yes"/>
      <point x="247" y="443" type="line"/>
      <point x="355" y="443" type="line"/>
      <point x="377" y="545" type="line"/>
      <point x="111" y="545" type="line"/>
      <point x="43" y="496" type="line"/>
      <point x="31" y="443" type="line"/>
      <point x="127" y="443" type="line"/>
      <point x="70" y="179" type="line" smooth="yes"/>
      <point x="63" y="148"/>
      <point x="59" y="118"/>
      <point x="59" y="94" type="curve" smooth="yes"/>
      <point x="59" y="27"/>
      <point x="97" y="-11"/>
    </contour>
  </outline>
</glyph>
<glyph name="chi" format="2">
  <advance width="411"/>
  <unicode hex="03C7"/>
  <anchor x="99" y="-240" name="bottom"/>
  <anchor x="262" y="530" name="top"/>
  <anchor x="447" y="530" name="topright"/>
  <outline>
    <contour>
      <point x="-123" y="-240" type="line"/>
      <point x="5" y="-240" type="line"/>
      <point x="131" y="9" type="line"/>
      <point x="132" y="-100" type="line" smooth="yes"/>
      <point x="137" y="-202"/>
      <point x="167" y="-240"/>
      <point x="233" y="-240" type="curve" smooth="yes"/>
      <point x="260" y="-240"/>
      <point x="293" y="-234"/>
      <point x="321" y="-222" type="curve"/>
      <point x="321" y="-122" type="line"/>
      <point x="308" y="-128"/>
      <point x="290" y="-134"/>
      <point x="279" y="-134" type="curve" smooth="yes"/>
      <point x="260" y="-134"/>
      <point x="251" y="-119"/>
      <point x="250" y="-80" type="curve" smooth="yes"/>
      <point x="241" y="164" type="line"/>
      <point x="458" y="545" type="line"/>
      <point x="329" y="545" type="line"/>
      <point x="230" y="349" type="line"/>
      <point x="230" y="429" type="line" smooth="yes"/>
      <point x="225" y="507"/>
      <point x="197" y="553"/>
      <point x="126" y="553" type="curve" smooth="yes"/>
      <point x="104" y="553"/>
      <point x="74" y="550"/>
      <point x="57" y="545" type="curve"/>
      <point x="42" y="440" type="line"/>
      <point x="54" y="444"/>
      <point x="68" y="448"/>
      <point x="81" y="448" type="curve" smooth="yes"/>
      <point x="104" y="448"/>
      <point x="112" y="429"/>
      <point x="113" y="392" type="curve" smooth="yes"/>
      <point x="121" y="183" type="line"/>
    </contour>
  </outline>
</glyph>
<glyph name="psi" format="2">
  <advance width="604"/>
  <unicode hex="03C8"/>
  <anchor x="195" y="-240" name="bottom"/>
  <anchor x="407" y="760" name="top"/>
  <outline>
    <contour>
      <point x="134" y="-240" type="line"/>
      <point x="252" y="-240" type="line"/>
      <point x="301" y="-8" type="line"/>
      <point x="550" y="-5"/>
      <point x="591" y="289"/>
      <point x="592" y="545" type="curve"/>
      <point x="475" y="545" type="line"/>
      <point x="474" y="377"/>
      <point x="446" y="100"/>
      <point x="324" y="100" type="curve"/>
      <point x="464" y="760" type="line"/>
      <point x="347" y="760" type="line"/>
      <point x="206" y="99" type="line"/>
      <point x="163" y="103"/>
      <point x="147" y="125"/>
      <point x="147" y="173" type="curve" smooth="yes"/>
      <point x="147" y="197"/>
      <point x="151" y="224"/>
      <point x="158" y="256" type="curve" smooth="yes"/>
      <point x="220" y="545" type="line"/>
      <point x="100" y="545" type="line"/>
      <point x="42" y="275" type="line" smooth="yes"/>
      <point x="33" y="234"/>
      <point x="28" y="196"/>
      <point x="28" y="164" type="curve" smooth="yes"/>
      <point x="28" y="63"/>
      <point x="79" y="4"/>
      <point x="184" y="-8" type="curve"/>
    </contour>
  </outline>
</glyph>
<glyph name="omega" format="2">
  <advance width="608"/>
  <unicode hex="03C9"/>
  <anchor x="249" y="0" name="bottom"/>
  <anchor x="361" y="530" name="top"/>
  <outline>
    <contour>
      <point x="134" y="-10" type="curve" smooth="yes"/>
      <point x="189" y="-10"/>
      <point x="231" y="22"/>
      <point x="260" y="79" type="curve"/>
      <point x="261" y="37"/>
      <point x="285" y="-10"/>
      <point x="361" y="-10" type="curve" smooth="yes"/>
      <point x="537" y="-10"/>
      <point x="589" y="272"/>
      <point x="589" y="444" type="curve" smooth="yes"/>
      <point x="589" y="491"/>
      <point x="588" y="520"/>
      <point x="586" y="545" type="curve"/>
      <point x="464" y="545" type="line"/>
      <point x="468" y="519"/>
      <point x="469" y="490"/>
      <point x="469" y="445" type="curve" smooth="yes"/>
      <point x="469" y="343"/>
      <point x="438" y="101"/>
      <point x="366" y="101" type="curve" smooth="yes"/>
      <point x="348" y="101"/>
      <point x="340" y="116"/>
      <point x="340" y="147" type="curve" smooth="yes"/>
      <point x="340" y="168"/>
      <point x="345" y="198"/>
      <point x="353" y="240" type="curve" smooth="yes"/>
      <point x="381" y="370" type="line"/>
      <point x="264" y="370" type="line"/>
      <point x="236" y="240" type="line" smooth="yes"/>
      <point x="217" y="144"/>
      <point x="202" y="101"/>
      <point x="167" y="101" type="curve" smooth="yes"/>
      <point x="150" y="101"/>
      <point x="137" y="118"/>
      <point x="137" y="155" type="curve" smooth="yes"/>
      <point x="137" y="266"/>
      <point x="185" y="409"/>
      <point x="253" y="545" type="curve"/>
      <point x="133" y="545" type="line"/>
      <point x="68" y="426"/>
      <point x="16" y="269"/>
      <point x="16" y="152" type="curve" smooth="yes"/>
      <point x="16" y="51"/>
      <point x="52" y="-10"/>
    </contour>
  </outline>
</glyph>
<glyph name="KaiSymbol" format="2">
  <advance width="459"/>
  <unicode hex="03CF"/>
  <outline>
    <contour>
      <point x="107" y="-240" type="curve" smooth="yes"/>
      <point x="259" y="-240"/>
      <point x="356" y="-159"/>
      <point x="405" y="0" type="curve"/>
      <point x="328" y="382" type="line"/>
      <point x="553" y="714" type="line"/>
      <point x="416" y="714" type="line"/>
      <point x="251" y="470" type="line"/>
      <point x="206" y="394" type="line"/>
      <point x="274" y="714" type="line"/>
      <point x="149" y="714" type="line"/>
      <point x="-2" y="0" type="line"/>
      <point x="123" y="0" type="line"/>
      <point x="177" y="255" type="line"/>
      <point x="218" y="292" type="line"/>
      <point x="268" y="0" type="line"/>
      <point x="236" y="-100"/>
      <point x="180" y="-129"/>
      <point x="105" y="-129" type="curve" smooth="yes"/>
      <point x="50" y="-129"/>
      <point x="3" y="-110"/>
      <point x="-28" y="-91" type="curve"/>
      <point x="-52" y="-205" type="line"/>
      <point x="-29" y="-220"/>
      <point x="30" y="-240"/>
    </contour>
  </outline>
</glyph>
<glyph name="uni03D0" format="2">
  <advance width="449"/>
  <unicode hex="03D0"/>
  <anchor x="167" y="-10" name="bottom"/>
  <anchor x="331" y="765" name="top"/>
  <outline>
    <contour>
      <point x="187" y="-10" type="curve" smooth="yes"/>
      <point x="324" y="-10"/>
      <point x="416" y="142"/>
      <point x="416" y="300" type="curve" smooth="yes"/>
      <point x="416" y="411"/>
      <point x="367" y="449"/>
      <point x="299" y="449" type="curve" smooth="yes"/>
      <point x="252" y="449"/>
      <point x="209" y="423"/>
      <point x="174" y="376" type="curve"/>
      <point x="188" y="443"/>
      <point x="204" y="494"/>
      <point x="227" y="540" type="curve"/>
      <point x="255" y="528"/>
      <point x="291" y="519"/>
      <point x="324" y="519" type="curve" smooth="yes"/>
      <point x="419" y="519"/>
      <point x="473" y="570"/>
      <point x="473" y="650" type="curve" smooth="yes"/>
      <point x="473" y="719"/>
      <point x="427" y="765"/>
      <point x="345" y="765" type="curve" smooth="yes"/>
      <point x="203" y="765"/>
      <point x="104" y="583"/>
      <point x="62" y="419" type="curve" smooth="yes"/>
      <point x="39" y="338"/>
      <point x="32" y="253"/>
      <point x="32" y="182" type="curve" smooth="yes"/>
      <point x="32" y="41"/>
      <point x="99" y="-10"/>
    </contour>
    <contour>
      <point x="193" y="92" type="curve" smooth="yes"/>
      <point x="169" y="92"/>
      <point x="152" y="118"/>
      <point x="152" y="175" type="curve" smooth="yes"/>
      <point x="152" y="214"/>
      <point x="155" y="252"/>
      <point x="160" y="278" type="curve"/>
      <point x="181" y="317"/>
      <point x="220" y="358"/>
      <point x="250" y="358" type="curve" smooth="yes"/>
      <point x="283" y="358"/>
      <point x="290" y="325"/>
      <point x="290" y="290" type="curve" smooth="yes"/>
      <point x="290" y="196"/>
      <point x="250" y="92"/>
    </contour>
    <contour>
      <point x="334" y="592" type="curve" smooth="yes"/>
      <point x="313" y="592"/>
      <point x="283" y="598"/>
      <point x="262" y="611" type="curve"/>
      <point x="286" y="653"/>
      <point x="317" y="686"/>
      <point x="349" y="686" type="curve" smooth="yes"/>
      <point x="378" y="686"/>
      <point x="393" y="669"/>
      <point x="393" y="643" type="curve" smooth="yes"/>
      <point x="393" y="614"/>
      <point x="376" y="592"/>
    </contour>
  </outline>
</glyph>
<glyph name="uni03D2" format="2">
  <advance width="425"/>
  <unicode hex="03D2"/>
  <anchor x="308" y="714" name="top"/>
  <outline>
    <contour>
      <point x="89" y="0" type="line"/>
      <point x="214" y="0" type="line"/>
      <point x="271" y="269" type="line"/>
      <point x="319" y="373"/>
      <point x="365" y="471"/>
      <point x="406" y="542" type="curve" smooth="yes"/>
      <point x="438" y="594"/>
      <point x="452" y="610"/>
      <point x="473" y="610" type="curve" smooth="yes"/>
      <point x="482" y="610"/>
      <point x="490" y="607"/>
      <point x="499" y="602" type="curve"/>
      <point x="519" y="707" type="line"/>
      <point x="505" y="715"/>
      <point x="482" y="720"/>
      <point x="458" y="720" type="curve" smooth="yes"/>
      <point x="421" y="720"/>
      <point x="394" y="704"/>
      <point x="368" y="670" type="curve" smooth="yes"/>
      <point x="328" y="616"/>
      <point x="283" y="531"/>
      <point x="239" y="436" type="curve"/>
      <point x="217" y="714" type="line"/>
      <point x="89" y="714" type="line"/>
      <point x="146" y="272" type="line"/>
    </contour>
  </outline>
</glyph>
<glyph name="uni03D6" format="2">
  <advance width="656"/>
  <unicode hex="03D6"/>
  <outline>
    <contour>
      <point x="156" y="-10" type="curve" smooth="yes"/>
      <point x="213" y="-10"/>
      <point x="252" y="21"/>
      <point x="283" y="84" type="curve"/>
      <point x="283" y="22"/>
      <point x="320" y="-10"/>
      <point x="383" y="-10" type="curve" smooth="yes"/>
      <point x="535" y="-10"/>
      <point x="607" y="216"/>
      <point x="607" y="390" type="curve" smooth="yes"/>
      <point x="607" y="411"/>
      <point x="605" y="427"/>
      <point x="604" y="443" type="curve"/>
      <point x="676" y="443" type="line"/>
      <point x="698" y="545" type="line"/>
      <point x="116" y="545" type="line"/>
      <point x="48" y="496" type="line"/>
      <point x="36" y="443" type="line"/>
      <point x="110" y="443" type="line"/>
      <point x="73" y="359"/>
      <point x="38" y="240"/>
      <point x="38" y="152" type="curve" smooth="yes"/>
      <point x="38" y="51"/>
      <point x="74" y="-10"/>
    </contour>
    <contour>
      <point x="189" y="101" type="curve" smooth="yes"/>
      <point x="172" y="101"/>
      <point x="160" y="118"/>
      <point x="160" y="155" type="curve" smooth="yes"/>
      <point x="160" y="243"/>
      <point x="192" y="349"/>
      <point x="233" y="443" type="curve"/>
      <point x="485" y="443" type="line"/>
      <point x="487" y="424"/>
      <point x="487" y="407"/>
      <point x="487" y="390" type="curve" smooth="yes"/>
      <point x="487" y="296"/>
      <point x="451" y="101"/>
      <point x="389" y="101" type="curve" smooth="yes"/>
      <point x="371" y="101"/>
      <point x="362" y="116"/>
      <point x="362" y="147" type="curve" smooth="yes"/>
      <point x="362" y="168"/>
      <point x="367" y="198"/>
      <point x="376" y="240" type="curve" smooth="yes"/>
      <point x="394" y="324" type="line"/>
      <point x="277" y="324" type="line"/>
      <point x="259" y="240" type="line" smooth="yes"/>
      <point x="243" y="166"/>
      <point x="230" y="101"/>
    </contour>
  </outline>
</glyph>
<glyph name="uni03D7" format="2">
  <advance width="512"/>
  <unicode hex="03D7"/>
  <outline>
    <contour>
      <point x="308" y="-240" type="curve" smooth="yes"/>
      <point x="377" y="-240"/>
      <point x="411" y="-206"/>
      <point x="428" y="-127" type="curve" smooth="yes"/>
      <point x="476" y="100" type="line"/>
      <point x="466" y="96"/>
      <point x="448" y="94"/>
      <point x="437" y="94" type="curve" smooth="yes"/>
      <point x="414" y="94"/>
      <point x="401" y="112"/>
      <point x="401" y="150" type="curve" smooth="yes"/>
      <point x="401" y="253"/>
      <point x="443" y="383"/>
      <point x="533" y="545" type="curve"/>
      <point x="417" y="545" type="line"/>
      <point x="198" y="270" type="line"/>
      <point x="213" y="313"/>
      <point x="225" y="364"/>
      <point x="225" y="411" type="curve" smooth="yes"/>
      <point x="225" y="501"/>
      <point x="186" y="555"/>
      <point x="98" y="555" type="curve" smooth="yes"/>
      <point x="76" y="555"/>
      <point x="47" y="549"/>
      <point x="30" y="543" type="curve"/>
      <point x="37" y="445" type="line"/>
      <point x="47" y="449"/>
      <point x="59" y="451"/>
      <point x="70" y="451" type="curve" smooth="yes"/>
      <point x="93" y="451"/>
      <point x="106" y="433"/>
      <point x="106" y="395" type="curve" smooth="yes"/>
      <point x="106" y="293"/>
      <point x="64" y="164"/>
      <point x="-27" y="0" type="curve"/>
      <point x="92" y="0" type="line"/>
      <point x="307" y="269" type="line"/>
      <point x="291" y="223"/>
      <point x="281" y="177"/>
      <point x="281" y="134" type="curve" smooth="yes"/>
      <point x="281" y="73"/>
      <point x="299" y="29"/>
      <point x="339" y="9" type="curve"/>
      <point x="318" y="-90" type="line" smooth="yes"/>
      <point x="311" y="-124"/>
      <point x="298" y="-135"/>
      <point x="277" y="-135" type="curve" smooth="yes"/>
      <point x="264" y="-135"/>
      <point x="252" y="-131"/>
      <point x="244" y="-126" type="curve"/>
      <point x="244" y="-229" type="line"/>
      <point x="258" y="-235"/>
      <point x="283" y="-240"/>
    </contour>
  </outline>
</glyph>
<glyph name="uni03D8" format="2">
  <advance width="498"/>
  <unicode hex="03D8"/>
  <anchor x="194" y="0" name="bottom"/>
  <anchor x="345" y="714" name="top"/>
  <outline>
    <contour>
      <point x="127" y="0" type="line"/>
      <point x="251" y="0" type="line"/>
      <point x="284" y="153" type="line"/>
      <point x="431" y="179"/>
      <point x="501" y="369"/>
      <point x="501" y="513" type="curve" smooth="yes"/>
      <point x="501" y="656"/>
      <point x="434" y="724"/>
      <point x="330" y="724" type="curve" smooth="yes"/>
      <point x="133" y="724"/>
      <point x="58" y="505"/>
      <point x="58" y="364" type="curve" smooth="yes"/>
      <point x="58" y="240"/>
      <point x="99" y="178"/>
      <point x="161" y="159" type="curve"/>
    </contour>
    <contour>
      <point x="246" y="256" type="curve" smooth="yes"/>
      <point x="214" y="256"/>
      <point x="187" y="281"/>
      <point x="187" y="345" type="curve" smooth="yes"/>
      <point x="187" y="449"/>
      <point x="233" y="614"/>
      <point x="311" y="614" type="curve" smooth="yes"/>
      <point x="344" y="614"/>
      <point x="370" y="590"/>
      <point x="370" y="526" type="curve" smooth="yes"/>
      <point x="370" y="411"/>
      <point x="321" y="256"/>
    </contour>
  </outline>
</glyph>
<glyph name="uni03DB" format="2">
  <advance width="358"/>
  <unicode hex="03DB"/>
  <anchor x="82" y="-193" name="bottom"/>
  <anchor x="235" y="530" name="top"/>
  <outline>
    <contour>
      <point x="99" y="-193" type="curve" smooth="yes"/>
      <point x="214" y="-193"/>
      <point x="278" y="-128"/>
      <point x="278" y="-41" type="curve" smooth="yes"/>
      <point x="278" y="31"/>
      <point x="253" y="67"/>
      <point x="208" y="98" type="curve" smooth="yes"/>
      <point x="173" y="124"/>
      <point x="148" y="148"/>
      <point x="148" y="203" type="curve" smooth="yes"/>
      <point x="148" y="292"/>
      <point x="197" y="450"/>
      <point x="284" y="450" type="curve" smooth="yes"/>
      <point x="304" y="450"/>
      <point x="329" y="441"/>
      <point x="349" y="427" type="curve"/>
      <point x="397" y="521" type="line"/>
      <point x="363" y="544"/>
      <point x="322" y="555"/>
      <point x="276" y="555" type="curve" smooth="yes"/>
      <point x="97" y="555"/>
      <point x="21" y="340"/>
      <point x="21" y="183" type="curve" smooth="yes"/>
      <point x="22" y="104"/>
      <point x="43" y="59"/>
      <point x="106" y="20" type="curve" smooth="yes"/>
      <point x="135" y="2"/>
      <point x="146" y="-15"/>
      <point x="146" y="-41" type="curve" smooth="yes"/>
      <point x="146" y="-68"/>
      <point x="125" y="-88"/>
      <point x="84" y="-88" type="curve" smooth="yes"/>
      <point x="67" y="-88"/>
      <point x="45" y="-85"/>
      <point x="26" y="-78" type="curve"/>
      <point x="26" y="-187" type="line"/>
      <point x="46" y="-191"/>
      <point x="70" y="-193"/>
    </contour>
  </outline>
</glyph>
<glyph name="uni03DC" format="2">
  <advance width="376"/>
  <unicode hex="03DC"/>
  <anchor x="132" y="0" name="bottom"/>
  <anchor x="283" y="714" name="top"/>
  <outline>
    <contour>
      <point x="-2" y="0" type="line"/>
      <point x="123" y="0" type="line"/>
      <point x="186" y="300" type="line"/>
      <point x="253" y="300" type="line"/>
      <point x="232" y="203" type="line"/>
      <point x="322" y="203" type="line"/>
      <point x="366" y="409" type="line"/>
      <point x="209" y="409" type="line"/>
      <point x="251" y="604" type="line"/>
      <point x="422" y="604" type="line"/>
      <point x="445" y="714" type="line"/>
      <point x="149" y="714" type="line"/>
    </contour>
  </outline>
</glyph>
<glyph name="uni03DD" format="2">
  <advance width="400"/>
  <unicode hex="03DD"/>
  <anchor x="93" y="-240" name="bottom"/>
  <anchor x="256" y="530" name="top"/>
  <outline>
    <contour>
      <point x="-57" y="-240" type="line"/>
      <point x="63" y="-240" type="line"/>
      <point x="147" y="153" type="line"/>
      <point x="237" y="153" type="line"/>
      <point x="213" y="42" type="line"/>
      <point x="308" y="42" type="line"/>
      <point x="354" y="255" type="line"/>
      <point x="169" y="255" type="line"/>
      <point x="209" y="443" type="line"/>
      <point x="400" y="443" type="line"/>
      <point x="422" y="545" type="line"/>
      <point x="110" y="545" type="line"/>
    </contour>
  </outline>
</glyph>
<glyph name="uni03DE" format="2">
  <advance width="501"/>
  <unicode hex="03DE"/>
  <anchor x="195" y="0" name="bottom"/>
  <anchor x="346" y="714" name="top"/>
  <outline>
    <contour>
      <point x="370" y="-13" type="curve" smooth="yes"/>
      <point x="405" y="-13"/>
      <point x="431" y="-8"/>
      <point x="447" y="-2" type="curve"/>
      <point x="448" y="98" type="line"/>
      <point x="437" y="94"/>
      <point x="425" y="91"/>
      <point x="413" y="91" type="curve" smooth="yes"/>
      <point x="392" y="91"/>
      <point x="375" y="102"/>
      <point x="375" y="136" type="curve" smooth="yes"/>
      <point x="375" y="173"/>
      <point x="385" y="205"/>
      <point x="397" y="245" type="curve" smooth="yes"/>
      <point x="451" y="427" type="line"/>
      <point x="240" y="427" type="line"/>
      <point x="254" y="483" type="line" smooth="yes"/>
      <point x="264" y="518"/>
      <point x="275" y="557"/>
      <point x="275" y="605" type="curve" smooth="yes"/>
      <point x="275" y="672"/>
      <point x="230" y="724"/>
      <point x="155" y="724" type="curve" smooth="yes"/>
      <point x="120" y="724"/>
      <point x="86" y="717"/>
      <point x="69" y="711" type="curve"/>
      <point x="77" y="613" type="line"/>
      <point x="88" y="616"/>
      <point x="100" y="619"/>
      <point x="112" y="619" type="curve" smooth="yes"/>
      <point x="133" y="619"/>
      <point x="150" y="609"/>
      <point x="150" y="575" type="curve" smooth="yes"/>
      <point x="150" y="540"/>
      <point x="137" y="501"/>
      <point x="127" y="465" type="curve" smooth="yes"/>
      <point x="86" y="317" type="line"/>
      <point x="295" y="317" type="line"/>
      <point x="276" y="243" type="line" smooth="yes"/>
      <point x="261" y="199"/>
      <point x="250" y="157"/>
      <point x="250" y="106" type="curve" smooth="yes"/>
      <point x="250" y="38"/>
      <point x="295" y="-13"/>
    </contour>
  </outline>
</glyph>
<glyph name="uni03DF" format="2">
  <advance width="431"/>
  <unicode hex="03DF"/>
  <anchor x="109" y="-240" name="bottom"/>
  <anchor x="322" y="765" name="top"/>
  <outline>
    <contour>
      <point x="284" y="-240" type="curve" smooth="yes"/>
      <point x="306" y="-240"/>
      <point x="330" y="-236"/>
      <point x="346" y="-229" type="curve"/>
      <point x="346" y="-130" type="line"/>
      <point x="335" y="-133"/>
      <point x="323" y="-136"/>
      <point x="312" y="-136" type="curve" smooth="yes"/>
      <point x="290" y="-136"/>
      <point x="277" y="-121"/>
      <point x="277" y="-88" type="curve" smooth="yes"/>
      <point x="277" y="-61"/>
      <point x="289" y="-19"/>
      <point x="305" y="25" type="curve" smooth="yes"/>
      <point x="395" y="277" type="line"/>
      <point x="395" y="354" type="line"/>
      <point x="165" y="308" type="line"/>
      <point x="230" y="484" type="line" smooth="yes"/>
      <point x="248" y="531"/>
      <point x="266" y="589"/>
      <point x="266" y="629" type="curve" smooth="yes"/>
      <point x="266" y="713"/>
      <point x="228" y="765"/>
      <point x="139" y="765" type="curve" smooth="yes"/>
      <point x="117" y="765"/>
      <point x="87" y="759"/>
      <point x="71" y="752" type="curve"/>
      <point x="78" y="655" type="line"/>
      <point x="88" y="658"/>
      <point x="100" y="661"/>
      <point x="112" y="661" type="curve" smooth="yes"/>
      <point x="134" y="661"/>
      <point x="146" y="646"/>
      <point x="146" y="613" type="curve" smooth="yes"/>
      <point x="146" y="586"/>
      <point x="134" y="544"/>
      <point x="119" y="501" type="curve" smooth="yes"/>
      <point x="32" y="258" type="line"/>
      <point x="32" y="184" type="line"/>
      <point x="263" y="231" type="line"/>
      <point x="193" y="42" type="line" smooth="yes"/>
      <point x="175" y="-6"/>
      <point x="157" y="-64"/>
      <point x="157" y="-105" type="curve" smooth="yes"/>
      <point x="157" y="-188"/>
      <point x="196" y="-240"/>
    </contour>
  </outline>
</glyph>
<glyph name="uni03F0" format="2">
  <advance width="512"/>
  <unicode hex="03F0"/>
  <anchor x="200" y="0" name="bottom"/>
  <anchor x="312" y="530" name="top"/>
  <outline>
    <contour>
      <point x="410" y="-10" type="curve" smooth="yes"/>
      <point x="431" y="-10"/>
      <point x="453" y="-6"/>
      <point x="470" y="0" type="curve"/>
      <point x="470" y="100" type="line"/>
      <point x="459" y="96"/>
      <point x="448" y="94"/>
      <point x="437" y="94" type="curve" smooth="yes"/>
      <point x="414" y="94"/>
      <point x="401" y="112"/>
      <point x="401" y="150" type="curve" smooth="yes"/>
      <point x="401" y="253"/>
      <point x="443" y="383"/>
      <point x="533" y="545" type="curve"/>
      <point x="417" y="545" type="line"/>
      <point x="198" y="270" type="line"/>
      <point x="213" y="313"/>
      <point x="225" y="364"/>
      <point x="225" y="411" type="curve" smooth="yes"/>
      <point x="225" y="501"/>
      <point x="186" y="555"/>
      <point x="98" y="555" type="curve" smooth="yes"/>
      <point x="76" y="555"/>
      <point x="47" y="549"/>
      <point x="30" y="543" type="curve"/>
      <point x="37" y="445" type="line"/>
      <point x="47" y="449"/>
      <point x="59" y="451"/>
      <point x="70" y="451" type="curve" smooth="yes"/>
      <point x="93" y="451"/>
      <point x="106" y="433"/>
      <point x="106" y="395" type="curve" smooth="yes"/>
      <point x="106" y="293"/>
      <point x="64" y="164"/>
      <point x="-27" y="0" type="curve"/>
      <point x="92" y="0" type="line"/>
      <point x="307" y="269" type="line"/>
      <point x="291" y="223"/>
      <point x="281" y="177"/>
      <point x="281" y="134" type="curve" smooth="yes"/>
      <point x="281" y="44"/>
      <point x="321" y="-10"/>
    </contour>
  </outline>
</glyph>
<glyph name="uni03F1" format="2">
  <advance width="453"/>
  <unicode hex="03F1"/>
  <anchor x="120" y="-240" name="bottom"/>
  <anchor x="283" y="530" name="top"/>
  <outline>
    <contour>
      <point x="183" y="-240" type="curve"/>
      <point x="292" y="-240" type="line"/>
      <point x="302" y="-222"/>
      <point x="310" y="-197"/>
      <point x="310" y="-175" type="curve" smooth="yes"/>
      <point x="310" y="-118"/>
      <point x="273" y="-93"/>
      <point x="205" y="-93" type="curve" smooth="yes"/>
      <point x="143" y="-93"/>
      <point x="121" y="-67"/>
      <point x="121" y="-21" type="curve" smooth="yes"/>
      <point x="121" y="-2"/>
      <point x="121" y="16"/>
      <point x="124" y="34" type="curve"/>
      <point x="126" y="34" type="line"/>
      <point x="143" y="14"/>
      <point x="171" y="-4"/>
      <point x="212" y="-4" type="curve" smooth="yes"/>
      <point x="371" y="-4"/>
      <point x="429" y="224"/>
      <point x="429" y="365" type="curve" smooth="yes"/>
      <point x="429" y="486"/>
      <point x="372" y="553"/>
      <point x="269" y="553" type="curve" smooth="yes"/>
      <point x="126" y="553"/>
      <point x="57" y="405"/>
      <point x="23" y="227" type="curve" smooth="yes"/>
      <point x="9" y="155"/>
      <point x="-1" y="72"/>
      <point x="-1" y="-5" type="curve" smooth="yes"/>
      <point x="-1" y="-132"/>
      <point x="43" y="-193"/>
      <point x="153" y="-193" type="curve" smooth="yes"/>
      <point x="178" y="-193"/>
      <point x="189" y="-201"/>
      <point x="189" y="-217" type="curve" smooth="yes"/>
      <point x="189" y="-227"/>
      <point x="186" y="-235"/>
    </contour>
    <contour>
      <point x="196" y="95" type="curve" smooth="yes"/>
      <point x="170" y="95"/>
      <point x="146" y="115"/>
      <point x="137" y="133" type="curve"/>
      <point x="157" y="302"/>
      <point x="205" y="454"/>
      <point x="261" y="454" type="curve" smooth="yes"/>
      <point x="294" y="454"/>
      <point x="308" y="427"/>
      <point x="308" y="365" type="curve" smooth="yes"/>
      <point x="308" y="268"/>
      <point x="270" y="95"/>
    </contour>
  </outline>
</glyph>
<glyph name="uni03FA" format="2">
  <advance width="632"/>
  <unicode hex="03FA"/>
  <anchor x="260" y="0" name="bottom"/>
  <anchor x="411" y="714" name="top"/>
  <outline>
    <contour>
      <point x="-3" y="0" type="line"/>
      <point x="115" y="0" type="line"/>
      <point x="201" y="411" type="line" smooth="yes"/>
      <point x="209" y="445"/>
      <point x="214" y="481"/>
      <point x="221" y="522" type="curve"/>
      <point x="224" y="522" type="line"/>
      <point x="245" y="226" type="line"/>
      <point x="353" y="226" type="line"/>
      <point x="499" y="525" type="line"/>
      <point x="501" y="525" type="line"/>
      <point x="494" y="496"/>
      <point x="486" y="470"/>
      <point x="480" y="440" type="curve" smooth="yes"/>
      <point x="388" y="0" type="line"/>
      <point x="509" y="0" type="line"/>
      <point x="661" y="714" type="line"/>
      <point x="486" y="714" type="line"/>
      <point x="334" y="417" type="line"/>
      <point x="332" y="417" type="line"/>
      <point x="317" y="714" type="line"/>
      <point x="148" y="714" type="line"/>
    </contour>
  </outline>
</glyph>
<glyph name="uni03FB" format="2">
  <advance width="556"/>
  <unicode hex="03FB"/>
  <anchor x="171" y="-240" name="bottom"/>
  <anchor x="334" y="530" name="top"/>
  <outline>
    <contour>
      <point x="-57" y="-240" type="line"/>
      <point x="56" y="-240" type="line"/>
      <point x="168" y="288" type="line" smooth="yes"/>
      <point x="175" y="321"/>
      <point x="181" y="354"/>
      <point x="187" y="387" type="curve"/>
      <point x="211" y="171" type="line"/>
      <point x="303" y="171" type="line"/>
      <point x="417" y="387" type="line"/>
      <point x="409" y="353"/>
      <point x="399" y="317"/>
      <point x="392" y="282" type="curve" smooth="yes"/>
      <point x="332" y="0" type="line"/>
      <point x="446" y="0" type="line"/>
      <point x="561" y="545" type="line"/>
      <point x="409" y="545" type="line"/>
      <point x="282" y="315" type="line"/>
      <point x="261" y="545" type="line"/>
      <point x="110" y="545" type="line"/>
    </contour>
  </outline>
</glyph>
<glyph name="uni03FC" format="2">
  <advance width="452"/>
  <unicode hex="03FC"/>
  <anchor x="120" y="-240" name="bottom"/>
  <anchor x="283" y="530" name="top"/>
  <outline>
    <contour>
      <point x="-90" y="-164" type="line"/>
      <point x="190" y="-164" type="line"/>
      <point x="209" y="-76" type="line"/>
      <point x="-72" y="-76" type="line"/>
    </contour>
    <component base="rho"/>
  </outline>
</glyph>
<glyph name="afii10028" format="2">
  <advance width="463"/>
  <unicode hex="041A"/>
  <anchor x="176" y="0" name="bottom"/>
  <anchor x="327" y="714" name="top"/>
  <outline>
    <contour>
      <point x="-2" y="0" type="line"/>
      <point x="123" y="0" type="line"/>
      <point x="199" y="364" type="line"/>
      <point x="277" y="0" type="line"/>
      <point x="409" y="0" type="line"/>
      <point x="321" y="366" type="line"/>
      <point x="557" y="714" type="line"/>
      <point x="421" y="714" type="line"/>
      <point x="201" y="372" type="line"/>
      <point x="274" y="714" type="line"/>
      <point x="149" y="714" type="line"/>
    </contour>
  </outline>
</glyph>
<glyph name="afii10193" format="2">
  <advance width="453"/>
  <unicode hex="045F"/>
  <anchor x="122" y="-232" name="bottom"/>
  <anchor x="283" y="530" name="top"/>
  <outline>
    <contour>
      <point x="130" y="-10" type="curve" smooth="yes"/>
      <point x="177" y="-10"/>
      <point x="217" y="19"/>
      <point x="248" y="66" type="curve"/>
      <point x="251" y="66" type="line"/>
      <point x="247" y="0" type="line"/>
      <point x="342.993" y="0" type="line"/>
      <point x="458" y="545" type="line"/>
      <point x="339" y="545" type="line"/>
      <point x="277" y="259" type="line" smooth="yes"/>
      <point x="257" y="162"/>
      <point x="228" y="98"/>
      <point x="181" y="98" type="curve" smooth="yes"/>
      <point x="158" y="98"/>
      <point x="148" y="114"/>
      <point x="148" y="140" type="curve" smooth="yes"/>
      <point x="148" y="162"/>
      <point x="152" y="191"/>
      <point x="159" y="221" type="curve" smooth="yes"/>
      <point x="227" y="545" type="line"/>
      <point x="108" y="545" type="line"/>
      <point x="32" y="192" type="line" smooth="yes"/>
      <point x="27" y="163"/>
      <point x="22" y="131"/>
      <point x="22" y="107" type="curve" smooth="yes"/>
      <point x="22" y="33"/>
      <point x="60" y="-10"/>
    </contour>
    <contour>
      <point x="54" y="-232" type="line"/>
      <point x="170" y="-232" type="line"/>
      <point x="222" y="-31" type="line"/>
      <point x="204" y="-31" type="line"/>
      <point x="101" y="-62" type="line"/>
    </contour>
  </outline>
</glyph>
<glyph name="uni0460" format="2">
  <advance width="735"/>
  <unicode hex="0460"/>
  <anchor x="312" y="0" name="bottom"/>
  <anchor x="463" y="714" name="top"/>
  <outline>
    <contour>
      <point x="121" y="0" type="curve"/>
      <point x="236" y="0" type="line"/>
      <point x="353" y="278" type="line"/>
      <point x="357" y="193"/>
      <point x="365" y="99"/>
      <point x="381" y="0" type="curve"/>
      <point x="491" y="0" type="line"/>
      <point x="669" y="255"/>
      <point x="747" y="476"/>
      <point x="790.002" y="714" type="curve"/>
      <point x="661" y="714" type="line"/>
      <point x="638" y="541"/>
      <point x="570" y="351"/>
      <point x="467" y="181" type="curve"/>
      <point x="465" y="181" type="line"/>
      <point x="442" y="352"/>
      <point x="455" y="544"/>
      <point x="492" y="714" type="curve"/>
      <point x="385" y="714" type="line"/>
      <point x="372" y="654"/>
      <point x="363" y="593"/>
      <point x="356" y="532" type="curve"/>
      <point x="260" y="314" type="line" smooth="yes"/>
      <point x="239" y="267"/>
      <point x="223" y="225"/>
      <point x="209" y="181" type="curve"/>
      <point x="207" y="181" type="line"/>
      <point x="172" y="351"/>
      <point x="186" y="543"/>
      <point x="238.008" y="714" type="curve"/>
      <point x="115" y="714" type="line"/>
      <point x="55" y="484"/>
      <point x="53" y="281"/>
    </contour>
  </outline>
</glyph>
<glyph name="uni0461" format="2">
  <advance width="628"/>
  <unicode hex="0461"/>
  <anchor x="258" y="0" name="bottom"/>
  <anchor x="370" y="530" name="top"/>
  <outline>
    <contour>
      <point x="94" y="0" type="curve"/>
      <point x="187" y="0" type="line"/>
      <point x="283" y="173" type="line"/>
      <point x="287" y="116"/>
      <point x="294" y="58"/>
      <point x="306" y="0" type="curve"/>
      <point x="394" y="0" type="line"/>
      <point x="533" y="144"/>
      <point x="608" y="328"/>
      <point x="655" y="545" type="curve"/>
      <point x="535" y="545" type="line"/>
      <point x="501" y="392"/>
      <point x="465" y="280"/>
      <point x="392" y="156" type="curve"/>
      <point x="390" y="156" type="line"/>
      <point x="375" y="286"/>
      <point x="383" y="415"/>
      <point x="412" y="545" type="curve"/>
      <point x="296" y="545" type="line"/>
      <point x="284" y="477"/>
      <point x="277" y="407"/>
      <point x="275" y="337" type="curve"/>
      <point x="217" y="230" type="line" smooth="yes"/>
      <point x="204" y="205"/>
      <point x="191" y="183"/>
      <point x="181" y="156" type="curve"/>
      <point x="178" y="156" type="line"/>
      <point x="157" y="279"/>
      <point x="160" y="422"/>
      <point x="186" y="545" type="curve"/>
      <point x="63" y="545" type="line"/>
      <point x="40" y="369"/>
      <point x="51" y="176"/>
    </contour>
  </outline>
</glyph>
<glyph name="uni0462" format="2">
  <advance width="457"/>
  <unicode hex="0462"/>
  <anchor x="173" y="0" name="bottom"/>
  <anchor x="325" y="714" name="top"/>
  <outline>
    <contour>
      <point x="8" y="0" type="line"/>
      <point x="164" y="0" type="line" smooth="yes"/>
      <point x="348" y="0"/>
      <point x="423" y="136"/>
      <point x="423" y="272" type="curve" smooth="yes"/>
      <point x="423" y="365"/>
      <point x="378" y="438"/>
      <point x="250" y="438" type="curve" smooth="yes"/>
      <point x="225" y="438" type="line"/>
      <point x="250" y="556" type="line"/>
      <point x="367" y="556" type="line"/>
      <point x="387" y="651" type="line"/>
      <point x="270" y="651" type="line"/>
      <point x="294" y="761" type="line"/>
      <point x="169" y="761" type="line"/>
      <point x="145" y="651" type="line"/>
      <point x="78" y="651" type="line"/>
      <point x="58" y="556" type="line"/>
      <point x="125" y="556" type="line"/>
    </contour>
    <contour>
      <point x="156" y="109" type="line"/>
      <point x="203" y="329" type="line"/>
      <point x="221" y="329" type="line" smooth="yes"/>
      <point x="268" y="329"/>
      <point x="294" y="310"/>
      <point x="294" y="262" type="curve" smooth="yes"/>
      <point x="294" y="177"/>
      <point x="258" y="109"/>
      <point x="187" y="109" type="curve" smooth="yes"/>
    </contour>
  </outline>
</glyph>
<glyph name="uni0463" format="2">
  <advance width="444"/>
  <unicode hex="0463"/>
  <anchor x="167" y="0" name="bottom"/>
  <anchor x="303" y="644" name="top"/>
  <outline>
    <contour>
      <point x="189" y="-10" type="curve" smooth="yes"/>
      <point x="317" y="-10"/>
      <point x="398" y="72"/>
      <point x="398" y="192" type="curve" smooth="yes"/>
      <point x="398" y="286"/>
      <point x="347" y="332"/>
      <point x="251" y="332" type="curve" smooth="yes"/>
      <point x="233" y="332"/>
      <point x="217" y="331"/>
      <point x="208" y="329" type="curve"/>
      <point x="235" y="457" type="line"/>
      <point x="328" y="457" type="line"/>
      <point x="347" y="545" type="line"/>
      <point x="254" y="545" type="line"/>
      <point x="276" y="644" type="line"/>
      <point x="156" y="644" type="line"/>
      <point x="134" y="545" type="line"/>
      <point x="57" y="545" type="line"/>
      <point x="38" y="457" type="line"/>
      <point x="115" y="457" type="line"/>
      <point x="58" y="190" type="line" smooth="yes"/>
      <point x="53" y="165"/>
      <point x="50" y="140"/>
      <point x="50" y="118" type="curve" smooth="yes"/>
      <point x="50" y="38"/>
      <point x="92" y="-10"/>
    </contour>
    <contour>
      <point x="206" y="82" type="curve" smooth="yes"/>
      <point x="181" y="82"/>
      <point x="168" y="98"/>
      <point x="168" y="127" type="curve" smooth="yes"/>
      <point x="168" y="148"/>
      <point x="175" y="189"/>
      <point x="188" y="236" type="curve"/>
      <point x="201" y="238"/>
      <point x="215" y="240"/>
      <point x="228" y="240" type="curve" smooth="yes"/>
      <point x="260" y="240"/>
      <point x="275" y="222"/>
      <point x="275" y="183" type="curve" smooth="yes"/>
      <point x="274" y="143"/>
      <point x="254" y="82"/>
    </contour>
  </outline>
</glyph>
<glyph name="uni0467" format="2">
  <advance width="470"/>
  <unicode hex="0467"/>
  <anchor x="179" y="0" name="bottom"/>
  <anchor x="302" y="545" name="top"/>
  <outline>
    <contour>
      <point x="-57" y="0" type="line"/>
      <point x="60.991" y="0" type="line"/>
      <point x="156" y="201" type="line"/>
      <point x="167" y="201" type="line"/>
      <point x="125" y="0" type="line"/>
      <point x="230" y="0" type="line"/>
      <point x="272" y="201" type="line"/>
      <point x="283" y="201" type="line"/>
      <point x="292" y="0" type="line"/>
      <point x="411" y="0" type="line"/>
      <point x="366" y="545" type="line"/>
      <point x="220" y="545" type="line"/>
    </contour>
    <contour>
      <point x="208" y="304" type="line"/>
      <point x="246" y="387"/>
      <point x="258" y="416"/>
      <point x="272" y="453" type="curve"/>
      <point x="271" y="434"/>
      <point x="272" y="399"/>
      <point x="276" y="304" type="curve"/>
    </contour>
  </outline>
</glyph>
<glyph name="uni0489" format="2">
  <advance width="905"/>
  <unicode hex="0489"/>
  <outline>
    <contour>
      <point x="665" y="454" type="line"/>
      <point x="704" y="484"/>
      <point x="768" y="531"/>
      <point x="804" y="553" type="curve"/>
      <point x="764" y="592" type="line"/>
      <point x="712" y="576"/>
      <point x="652" y="549"/>
      <point x="609" y="522" type="curve"/>
      <point x="606" y="514" type="line"/>
    </contour>
    <contour>
      <point x="130" y="-53" type="line"/>
      <point x="182" y="-36"/>
      <point x="243" y="-9"/>
      <point x="285" y="17" type="curve"/>
      <point x="288" y="26" type="line"/>
      <point x="229" y="85" type="line"/>
      <point x="184" y="49"/>
      <point x="135" y="17"/>
      <point x="89" y="-11" type="curve"/>
    </contour>
    <contour>
      <point x="174" y="208" type="curve"/>
      <point x="181" y="211" type="line"/>
      <point x="181" y="295" type="line"/>
      <point x="131" y="301"/>
      <point x="74" y="309"/>
      <point x="14" y="328" type="curve"/>
      <point x="14" y="268" type="line"/>
      <point x="62" y="244"/>
      <point x="124" y="219"/>
    </contour>
    <contour>
      <point x="391" y="-184" type="curve"/>
      <point x="448" y="-184" type="line"/>
      <point x="472" y="-137"/>
      <point x="497" y="-73"/>
      <point x="509" y="-25" type="curve"/>
      <point x="506" y="-17" type="line"/>
      <point x="421" y="-17" type="line"/>
      <point x="417" y="-51"/>
      <point x="407" y="-109"/>
    </contour>
    <contour>
      <point x="724" y="-90" type="curve"/>
      <point x="765" y="-50" type="line"/>
      <point x="750" y="-1"/>
      <point x="721" y="63"/>
      <point x="695" y="105" type="curve"/>
      <point x="687" y="108" type="line"/>
      <point x="628" y="49" type="line"/>
      <point x="652" y="18"/>
      <point x="687" y="-31"/>
    </contour>
    <contour>
      <point x="205" y="431" type="line"/>
      <point x="264" y="491" type="line"/>
      <point x="239" y="520"/>
      <point x="197" y="579"/>
      <point x="168" y="630" type="curve"/>
      <point x="127" y="590" type="line"/>
      <point x="144" y="540"/>
      <point x="172" y="476"/>
      <point x="197" y="435" type="curve"/>
    </contour>
    <contour>
      <point x="878" y="214" type="curve"/>
      <point x="878" y="272" type="line"/>
      <point x="834" y="295"/>
      <point x="767" y="319"/>
      <point x="719" y="332" type="curve"/>
      <point x="711" y="328" type="line"/>
      <point x="711" y="244" type="line"/>
      <point x="747" y="240"/>
      <point x="797" y="232"/>
    </contour>
    <contour>
      <point x="388" y="557" type="line"/>
      <point x="472" y="557" type="line"/>
      <point x="478" y="609"/>
      <point x="487" y="654"/>
      <point x="504" y="724" type="curve"/>
      <point x="445" y="724" type="line"/>
      <point x="421" y="679"/>
      <point x="397" y="614"/>
      <point x="385" y="565" type="curve"/>
    </contour>
  </outline>
</glyph>
<glyph name="uni048F" format="2">
  <advance width="453"/>
  <unicode hex="048F"/>
  <anchor x="121" y="-236" name="bottom"/>
  <anchor x="283" y="530" name="top"/>
  <anchor x="489" y="530" name="topright"/>
  <outline>
    <contour>
      <point x="281" y="-84" type="line"/>
      <point x="340" y="-66" type="line"/>
      <point x="249" y="230" type="line"/>
      <point x="189" y="212" type="line"/>
    </contour>
    <component base="p"/>
  </outline>
</glyph>
<glyph name="uni049F" format="2">
  <advance width="428"/>
  <unicode hex="049F"/>
  <anchor x="158" y="0" name="bottom"/>
  <anchor x="324" y="763" name="top"/>
  <outline>
    <contour>
      <point x="-6" y="0" type="line"/>
      <point x="114" y="0" type="line"/>
      <point x="172" y="271" type="line"/>
      <point x="242" y="0" type="line"/>
      <point x="371" y="0" type="line"/>
      <point x="290" y="279" type="line"/>
      <point x="475" y="545" type="line"/>
      <point x="343" y="545" type="line"/>
      <point x="175" y="289" type="line"/>
      <point x="240" y="596" type="line"/>
      <point x="341" y="596" type="line"/>
      <point x="360" y="684" type="line"/>
      <point x="259" y="684" type="line"/>
      <point x="276" y="763" type="line"/>
      <point x="156" y="763" type="line"/>
      <point x="139" y="684" type="line"/>
      <point x="87" y="684" type="line"/>
      <point x="69" y="596" type="line"/>
      <point x="121" y="596" type="line"/>
    </contour>
  </outline>
</glyph>
<glyph name="uni04AC" format="2">
  <advance width="388"/>
  <unicode hex="04AC"/>
  <anchor x="94" y="-207" name="bottom"/>
  <anchor x="289" y="714" name="top"/>
  <outline>
    <contour>
      <point x="103" y="-207" type="line"/>
      <point x="224" y="-207" type="line"/>
      <point x="293" y="110" type="line"/>
      <point x="219" y="110" type="line"/>
      <point x="323" y="603" type="line"/>
      <point x="442" y="603" type="line"/>
      <point x="466" y="714" type="line"/>
      <point x="103" y="714" type="line"/>
      <point x="79" y="603" type="line"/>
      <point x="198" y="603" type="line"/>
      <point x="70" y="0" type="line"/>
      <point x="147" y="0" type="line"/>
    </contour>
  </outline>
</glyph>
<glyph name="uni04BF" format="2">
  <advance width="548"/>
  <unicode hex="04BF"/>
  <anchor x="177" y="-195" name="bottom"/>
  <anchor x="330" y="530" name="top"/>
  <outline>
    <contour>
      <point x="198" y="-195" type="line"/>
      <point x="315" y="-195" type="line"/>
      <point x="354" y="-5" type="line"/>
      <point x="390" y="0"/>
      <point x="421" y="11"/>
      <point x="452" y="30" type="curve"/>
      <point x="452" y="123" type="line"/>
      <point x="410" y="100"/>
      <point x="374" y="88"/>
      <point x="333" y="88" type="curve" smooth="yes"/>
      <point x="283" y="88"/>
      <point x="262" y="119"/>
      <point x="262" y="178" type="curve" smooth="yes"/>
      <point x="262" y="196"/>
      <point x="264" y="215"/>
      <point x="267" y="233" type="curve"/>
      <point x="276" y="233" type="line" smooth="yes"/>
      <point x="442" y="233"/>
      <point x="535" y="307"/>
      <point x="535" y="426" type="curve" smooth="yes"/>
      <point x="535" y="509"/>
      <point x="478" y="554"/>
      <point x="401" y="554" type="curve" smooth="yes"/>
      <point x="277" y="554"/>
      <point x="199" y="449"/>
      <point x="165" y="321" type="curve"/>
      <point x="139" y="321"/>
      <point x="124" y="328"/>
      <point x="124" y="353" type="curve" smooth="yes"/>
      <point x="124" y="369"/>
      <point x="132" y="395"/>
      <point x="148" y="424" type="curve"/>
      <point x="56" y="424" type="line"/>
      <point x="35" y="396"/>
      <point x="21" y="359"/>
      <point x="21" y="326" type="curve" smooth="yes"/>
      <point x="21" y="266"/>
      <point x="50" y="235"/>
      <point x="148" y="233" type="curve"/>
      <point x="145" y="211"/>
      <point x="144" y="189"/>
      <point x="144" y="165" type="curve" smooth="yes"/>
      <point x="144" y="80"/>
      <point x="179" y="23"/>
      <point x="239" y="2" type="curve"/>
    </contour>
    <contour>
      <point x="285" y="320" type="line"/>
      <point x="307" y="407"/>
      <point x="344" y="459"/>
      <point x="384" y="459" type="curve" smooth="yes"/>
      <point x="409" y="459"/>
      <point x="424" y="442"/>
      <point x="424" y="416" type="curve" smooth="yes"/>
      <point x="424" y="361"/>
      <point x="390" y="320"/>
      <point x="288" y="320" type="curve" smooth="yes"/>
    </contour>
  </outline>
</glyph>
<glyph name="uni04F7" format="2">
  <advance width="329"/>
  <unicode hex="04F7"/>
  <anchor x="67" y="-194" name="bottom"/>
  <anchor x="220" y="530" name="top"/>
  <outline>
    <contour>
      <point x="10" y="-194" type="line"/>
      <point x="127" y="-194" type="line"/>
      <point x="190" y="103" type="line"/>
      <point x="133" y="103" type="line"/>
      <point x="205" y="442" type="line"/>
      <point x="351" y="442" type="line"/>
      <point x="373" y="545" type="line"/>
      <point x="107" y="545" type="line"/>
      <point x="-9" y="0" type="line"/>
      <point x="52" y="0" type="line"/>
    </contour>
  </outline>
</glyph>
<glyph name="uni04FE" format="2">
  <advance width="437"/>
  <unicode hex="04FE"/>
  <anchor x="163" y="0" name="bottom"/>
  <anchor x="314" y="714" name="top"/>
  <outline>
    <contour>
      <point x="-58" y="0" type="line"/>
      <point x="75" y="0" type="line"/>
      <point x="210" y="236" type="line"/>
      <point x="238" y="0" type="line"/>
      <point x="374" y="0" type="line"/>
      <point x="319" y="310" type="line"/>
      <point x="406" y="310" type="line"/>
      <point x="429" y="416" type="line"/>
      <point x="337" y="416" type="line"/>
      <point x="511" y="714" type="line"/>
      <point x="377" y="714" type="line"/>
      <point x="262" y="495" type="line"/>
      <point x="236" y="714" type="line"/>
      <point x="105" y="714" type="line"/>
      <point x="155" y="416" type="line"/>
      <point x="69" y="416" type="line"/>
      <point x="47" y="310" type="line"/>
      <point x="130" y="310" type="line"/>
    </contour>
  </outline>
</glyph>
<glyph name="uni0512" format="2">
  <advance width="589"/>
  <unicode hex="0512"/>
  <anchor x="193" y="-216" name="bottom"/>
  <anchor x="390" y="714" name="top"/>
  <outline>
    <contour>
      <point x="352" y="-216" type="curve" smooth="yes"/>
      <point x="448" y="-216"/>
      <point x="491" y="-135"/>
      <point x="510" y="-44" type="curve" smooth="yes"/>
      <point x="545" y="122" type="line"/>
      <point x="427" y="122" type="line"/>
      <point x="553" y="714" type="line"/>
      <point x="227" y="714" type="line"/>
      <point x="127" y="372"/>
      <point x="105" y="301"/>
      <point x="82" y="235" type="curve" smooth="yes"/>
      <point x="55" y="155"/>
      <point x="35" y="101"/>
      <point x="-9" y="101" type="curve" smooth="yes"/>
      <point x="-19" y="101"/>
      <point x="-34" y="104"/>
      <point x="-48" y="110" type="curve"/>
      <point x="-48" y="1" type="line"/>
      <point x="-33" y="-5"/>
      <point x="-12" y="-8"/>
      <point x="6" y="-8" type="curve" smooth="yes"/>
      <point x="107" y="-8"/>
      <point x="148" y="68"/>
      <point x="194" y="206" type="curve" smooth="yes"/>
      <point x="217" y="273"/>
      <point x="250" y="385"/>
      <point x="312" y="596" type="curve"/>
      <point x="403" y="596" type="line"/>
      <point x="276" y="0" type="line"/>
      <point x="398" y="0" type="line"/>
      <point x="389" y="-42" type="line" smooth="yes"/>
      <point x="383" y="-76"/>
      <point x="371" y="-109"/>
      <point x="334" y="-109" type="curve" smooth="yes"/>
      <point x="322" y="-109"/>
      <point x="305" y="-106"/>
      <point x="287" y="-98" type="curve"/>
      <point x="287" y="-203" type="line"/>
      <point x="304" y="-210"/>
      <point x="319" y="-216"/>
    </contour>
  </outline>
</glyph>
<glyph name="uni0525" format="2">
  <advance width="476"/>
  <unicode hex="0525"/>
  <anchor x="141" y="-194" name="bottom"/>
  <anchor x="295" y="530" name="top"/>
  <outline>
    <contour>
      <point x="244" y="-194" type="line"/>
      <point x="360" y="-194" type="line"/>
      <point x="424" y="103" type="line"/>
      <point x="366" y="103" type="line"/>
      <point x="418" y="348" type="line" smooth="yes"/>
      <point x="425" y="384"/>
      <point x="430" y="415"/>
      <point x="430" y="439" type="curve" smooth="yes"/>
      <point x="430" y="525"/>
      <point x="378" y="555"/>
      <point x="321" y="555" type="curve" smooth="yes"/>
      <point x="274" y="555"/>
      <point x="233" y="526"/>
      <point x="203" y="477" type="curve"/>
      <point x="200" y="477" type="line"/>
      <point x="205" y="545" type="line"/>
      <point x="109" y="545" type="line"/>
      <point x="-7" y="0" type="line"/>
      <point x="114" y="0" type="line"/>
      <point x="174" y="287" type="line" smooth="yes"/>
      <point x="195" y="383"/>
      <point x="223" y="446"/>
      <point x="270" y="446" type="curve" smooth="yes"/>
      <point x="294" y="446"/>
      <point x="304" y="431"/>
      <point x="304" y="405" type="curve" smooth="yes"/>
      <point x="304" y="383"/>
      <point x="298" y="351"/>
      <point x="292" y="320" type="curve" smooth="yes"/>
      <point x="224" y="0" type="line"/>
      <point x="285" y="0" type="line"/>
    </contour>
  </outline>
</glyph>
<glyph name="uni052A" format="2">
  <advance width="1024"/>
  <unicode hex="052A"/>
  <anchor x="412" y="-207" name="bottom"/>
  <anchor x="607" y="714" name="top"/>
  <outline>
    <contour>
      <point x="449" y="316" type="line"/>
      <point x="644" y="316" type="line"/>
      <point x="668" y="426" type="line"/>
      <point x="473" y="426" type="line"/>
    </contour>
    <component base="afii10021"/>
    <component base="afii10028" xOffset="561"/>
  </outline>
</glyph>
<glyph name="uni052E" format="2">
  <advance width="534"/>
  <unicode hex="052E"/>
  <anchor x="167" y="-207" name="bottom"/>
  <anchor x="362" y="714" name="top"/>
  <outline>
    <contour>
      <point x="299" y="-207" type="line"/>
      <point x="422" y="-207" type="line"/>
      <point x="489" y="110" type="line"/>
      <point x="406" y="110" type="line"/>
      <point x="299" y="0" type="line"/>
      <point x="343" y="0" type="line"/>
    </contour>
    <component base="afii10029"/>
  </outline>
</glyph>
<glyph name="uni1AB3" format="2">
  <unicode hex="1AB3"/>
  <anchor x="55" y="530" name="_top"/>
  <anchor x="104" y="867" name="top"/>
  <outline>
    <contour>
      <point x="53" y="567" type="curve"/>
      <point x="74" y="567" type="line"/>
      <point x="109" y="611"/>
      <point x="160" y="654"/>
      <point x="223" y="692" type="curve"/>
      <point x="234" y="742" type="line"/>
      <point x="196" y="732"/>
      <point x="156" y="712"/>
      <point x="126" y="695" type="curve"/>
      <point x="163" y="867" type="line"/>
      <point x="92" y="867" type="line"/>
      <point x="56" y="695" type="line"/>
      <point x="35" y="710"/>
      <point x="3" y="731"/>
      <point x="-33" y="742" type="curve"/>
      <point x="-43" y="692" type="line"/>
      <point x="5" y="654"/>
      <point x="36" y="611"/>
    </contour>
  </outline>
</glyph>
<glyph name="uni1AB6" format="2">
  <unicode hex="1AB6"/>
  <anchor x="-13" y="0" name="_bottom"/>
  <anchor x="-54" y="-275" name="bottom"/>
  <outline>
    <contour>
      <point x="-557" y="-275" type="curve"/>
      <point x="-479" y="-275" type="line"/>
      <point x="-471" y="-197"/>
      <point x="-440" y="-142"/>
      <point x="-399" y="-142" type="curve" smooth="yes"/>
      <point x="-327" y="-142"/>
      <point x="-344" y="-275"/>
      <point x="-219" y="-275" type="curve" smooth="yes"/>
      <point x="-90" y="-275"/>
      <point x="-107" y="-142"/>
      <point x="-48" y="-142" type="curve" smooth="yes"/>
      <point x="13" y="-142"/>
      <point x="-6" y="-275"/>
      <point x="123" y="-275" type="curve" smooth="yes"/>
      <point x="249" y="-275"/>
      <point x="231" y="-142"/>
      <point x="303" y="-142" type="curve" smooth="yes"/>
      <point x="343" y="-142"/>
      <point x="374" y="-191"/>
      <point x="384" y="-275" type="curve"/>
      <point x="462" y="-275" type="line"/>
      <point x="455" y="-145"/>
      <point x="403" y="-58"/>
      <point x="298" y="-58" type="curve" smooth="yes"/>
      <point x="174" y="-58"/>
      <point x="181" y="-191"/>
      <point x="123" y="-191" type="curve" smooth="yes"/>
      <point x="56" y="-191"/>
      <point x="81" y="-58"/>
      <point x="-48" y="-58" type="curve" smooth="yes"/>
      <point x="-176" y="-58"/>
      <point x="-151" y="-191"/>
      <point x="-219" y="-191" type="curve" smooth="yes"/>
      <point x="-277" y="-191"/>
      <point x="-270" y="-58"/>
      <point x="-392" y="-58" type="curve" smooth="yes"/>
      <point x="-503" y="-58"/>
      <point x="-551" y="-159"/>
    </contour>
  </outline>
</glyph>
<glyph name="uni1AB7" format="2">
  <unicode hex="1AB7"/>
  <anchor x="-59" y="0" name="_bottom"/>
  <anchor x="-91" y="-233" name="bottom"/>
  <outline>
    <contour>
      <point x="-43" y="-233" type="curve"/>
      <point x="-26" y="-151" type="line"/>
      <point x="-41" y="-151"/>
      <point x="-49" y="-146"/>
      <point x="-49" y="-128" type="curve" smooth="yes"/>
      <point x="-49" y="-124"/>
      <point x="-49" y="-117"/>
      <point x="-46" y="-107" type="curve" smooth="yes"/>
      <point x="-28" y="-30" type="line"/>
      <point x="-125" y="-30" type="line"/>
      <point x="-144" y="-108" type="line" smooth="yes"/>
      <point x="-148" y="-125"/>
      <point x="-150" y="-143"/>
      <point x="-150" y="-152" type="curve" smooth="yes"/>
      <point x="-150" y="-197"/>
      <point x="-130" y="-233"/>
    </contour>
  </outline>
</glyph>
<glyph name="uni1AB8" format="2">
  <unicode hex="1AB8"/>
  <anchor x="-59" y="0" name="_bottom"/>
  <anchor x="-92" y="-233" name="bottom"/>
  <outline>
    <contour>
      <point x="40" y="-233" type="curve"/>
      <point x="58" y="-151" type="line"/>
      <point x="42" y="-151"/>
      <point x="34" y="-146"/>
      <point x="34" y="-128" type="curve" smooth="yes"/>
      <point x="34" y="-124"/>
      <point x="34" y="-117"/>
      <point x="37" y="-107" type="curve" smooth="yes"/>
      <point x="55" y="-30" type="line"/>
      <point x="-42" y="-30" type="line"/>
      <point x="-60" y="-108" type="line" smooth="yes"/>
      <point x="-64" y="-125"/>
      <point x="-66" y="-143"/>
      <point x="-66" y="-152" type="curve" smooth="yes"/>
      <point x="-66" y="-197"/>
      <point x="-46" y="-233"/>
    </contour>
    <contour>
      <point x="-126" y="-233" type="curve"/>
      <point x="-108" y="-151" type="line"/>
      <point x="-123" y="-151"/>
      <point x="-132" y="-146"/>
      <point x="-132" y="-128" type="curve" smooth="yes"/>
      <point x="-132" y="-124"/>
      <point x="-132" y="-117"/>
      <point x="-129" y="-107" type="curve" smooth="yes"/>
      <point x="-111" y="-30" type="line"/>
      <point x="-207" y="-30" type="line"/>
      <point x="-226" y="-108" type="line" smooth="yes"/>
      <point x="-230" y="-125"/>
      <point x="-232" y="-143"/>
      <point x="-232" y="-152" type="curve" smooth="yes"/>
      <point x="-232" y="-197"/>
      <point x="-212" y="-233"/>
    </contour>
  </outline>
</glyph>
<glyph name="uni1ABA" format="2">
  <unicode hex="1ABA"/>
  <anchor x="-48" y="0" name="_bottom"/>
  <anchor x="-78" y="-240" name="bottom"/>
  <outline>
    <contour>
      <point x="-180" y="-175" type="line"/>
      <point x="-87" y="-175" type="line"/>
      <point x="51" y="40" type="line"/>
      <point x="-41" y="40" type="line"/>
    </contour>
    <contour>
      <point x="-131" y="-240" type="curve" smooth="yes"/>
      <point x="-81" y="-240"/>
      <point x="-53" y="-200"/>
      <point x="-53" y="-153" type="curve" smooth="yes"/>
      <point x="-53" y="-117"/>
      <point x="-71" y="-98"/>
      <point x="-111" y="-98" type="curve" smooth="yes"/>
      <point x="-163" y="-98"/>
      <point x="-190" y="-139"/>
      <point x="-190" y="-184" type="curve" smooth="yes"/>
      <point x="-190" y="-219"/>
      <point x="-170" y="-240"/>
    </contour>
  </outline>
</glyph>
<glyph name="uni1C84" format="2">
  <advance width="360"/>
  <unicode hex="1C84"/>
  <anchor x="142" y="0" name="bottom"/>
  <anchor x="293" y="713" name="top"/>
  <outline>
    <contour>
      <point x="37" y="0" type="line"/>
      <point x="165" y="0" type="line"/>
      <point x="421" y="713" type="line"/>
      <point x="103" y="713" type="line"/>
      <point x="80" y="602" type="line"/>
      <point x="260" y="602" type="line"/>
    </contour>
  </outline>
</glyph>
<glyph name="uni1C85" format="2">
  <advance width="672"/>
  <unicode hex="1C85"/>
  <anchor x="280" y="0" name="bottom"/>
  <anchor x="392" y="530" name="top"/>
  <outline>
    <contour>
      <point x="-6" y="0" type="line"/>
      <point x="114" y="0" type="line"/>
      <point x="208" y="442" type="line"/>
      <point x="312" y="442" type="line"/>
      <point x="218" y="0" type="line"/>
      <point x="338" y="0" type="line"/>
      <point x="432" y="442" type="line"/>
      <point x="536" y="442" type="line"/>
      <point x="443" y="0" type="line"/>
      <point x="563" y="0" type="line"/>
      <point x="679" y="545" type="line"/>
      <point x="110" y="545" type="line"/>
    </contour>
  </outline>
</glyph>
<glyph name="uni1D03" format="2">
  <advance width="435"/>
  <unicode hex="1D03"/>
  <anchor x="144" y="0" name="bottom"/>
  <anchor x="260" y="545" name="top"/>
  <outline>
    <contour>
      <point x="0" y="239" type="line"/>
      <point x="414" y="239" type="line"/>
      <point x="433" y="332" type="line"/>
      <point x="19" y="332" type="line"/>
    </contour>
    <component base="uni0299"/>
  </outline>
</glyph>
<glyph name="uni1D24" format="2">
  <advance width="367"/>
  <unicode hex="1D24"/>
  <anchor x="128" y="0" name="bottom"/>
  <anchor x="240" y="530" name="top"/>
  <outline>
    <contour>
      <point x="160" y="-10" type="curve" smooth="yes"/>
      <point x="205" y="-10"/>
      <point x="254" y="1"/>
      <point x="295" y="22" type="curve"/>
      <point x="295" y="124" type="line"/>
      <point x="258" y="104"/>
      <point x="217" y="93"/>
      <point x="184" y="93" type="curve" smooth="yes"/>
      <point x="154" y="93"/>
      <point x="131" y="106"/>
      <point x="131" y="134" type="curve" smooth="yes"/>
      <point x="131" y="177"/>
      <point x="155" y="195"/>
      <point x="231" y="240" type="curve" smooth="yes"/>
      <point x="305" y="283"/>
      <point x="355" y="331"/>
      <point x="355" y="420" type="curve" smooth="yes"/>
      <point x="355" y="502"/>
      <point x="307" y="554"/>
      <point x="211" y="554" type="curve" smooth="yes"/>
      <point x="161" y="554"/>
      <point x="117" y="539"/>
      <point x="75" y="514" type="curve"/>
      <point x="104" y="426" type="line"/>
      <point x="128" y="440"/>
      <point x="156" y="454"/>
      <point x="189" y="454" type="curve" smooth="yes"/>
      <point x="214" y="454"/>
      <point x="232" y="443"/>
      <point x="232" y="418" type="curve" smooth="yes"/>
      <point x="232" y="373"/>
      <point x="192" y="349"/>
      <point x="125" y="309" type="curve" smooth="yes"/>
      <point x="52" y="265"/>
      <point x="4" y="213"/>
      <point x="4" y="123" type="curve" smooth="yes"/>
      <point x="7" y="24"/>
      <point x="73" y="-10"/>
    </contour>
  </outline>
</glyph>
<glyph name="uni1D28" format="2">
  <advance width="439"/>
  <unicode hex="1D28"/>
  <outline>
    <contour>
      <point x="-6" y="0" type="line"/>
      <point x="114" y="0" type="line"/>
      <point x="210" y="446" type="line"/>
      <point x="307" y="446" type="line"/>
      <point x="211" y="0" type="line"/>
      <point x="330" y="0" type="line"/>
      <point x="448" y="549" type="line"/>
      <point x="113" y="549" type="line"/>
    </contour>
  </outline>
</glyph>
<glyph name="uni1D7A" format="2">
  <advance width="743"/>
  <unicode hex="1D7A"/>
  <anchor x="100" y="0" name="bottom_1"/>
  <anchor x="462" y="0" name="bottom_2"/>
  <anchor x="134" y="265" name="center_1"/>
  <anchor x="555" y="265" name="center_2"/>
  <anchor x="230" y="661" name="top_1"/>
  <anchor x="623" y="760" name="top_2"/>
  <anchor x="318" y="860" name="topright_1"/>
  <anchor x="798" y="760" name="topright_2"/>
  <outline>
    <contour>
      <point x="-102" y="-81" type="line"/>
      <point x="10" y="-81" type="line"/>
      <point x="780" y="760" type="line"/>
      <point x="668" y="760" type="line"/>
    </contour>
    <component base="t"/>
    <component base="h" xOffset="291"/>
  </outline>
</glyph>
<glyph name="uni1D7B" format="2">
  <advance width="297"/>
  <unicode hex="1D7B"/>
  <anchor x="93" y="0" name="bottom"/>
  <anchor x="205" y="530" name="top"/>
  <outline>
    <contour>
      <point x="28" y="231" type="line"/>
      <point x="250" y="231" type="line"/>
      <point x="270" y="327" type="line"/>
      <point x="49" y="327" type="line"/>
    </contour>
    <component base="uni026A"/>
  </outline>
</glyph>
<glyph name="uni1D7F" format="2">
  <advance width="459"/>
  <unicode hex="1D7F"/>
  <anchor x="174" y="0" name="bottom"/>
  <anchor x="286" y="530" name="top"/>
  <outline>
    <contour>
      <point x="-9" y="230" type="line"/>
      <point x="452" y="230" type="line"/>
      <point x="473" y="326" type="line"/>
      <point x="12" y="326" type="line"/>
    </contour>
    <component base="uni028A"/>
  </outline>
</glyph>
<glyph name="macronacutecomb" format="2">
  <unicode hex="1DC4"/>
  <anchor x="58" y="530" name="_top"/>
  <anchor x="91" y="734" name="top"/>
  <outline>
    <contour>
      <point x="-31" y="598" type="line"/>
      <point x="98" y="598" type="line"/>
      <point x="204" y="670" type="line"/>
      <point x="161" y="734" type="line"/>
      <point x="75" y="676" type="line"/>
      <point x="-31" y="676" type="line"/>
    </contour>
  </outline>
</glyph>
<glyph name="macrongravecomb" format="2">
  <unicode hex="1DC6"/>
  <anchor x="60" y="545" name="_top"/>
  <anchor x="37" y="734" name="top"/>
  <outline>
    <contour>
      <point x="167" y="598" type="line"/>
      <point x="210" y="662" type="line"/>
      <point x="103" y="734" type="line"/>
      <point x="-25" y="734" type="line"/>
      <point x="-25" y="657" type="line"/>
      <point x="81" y="657" type="line"/>
    </contour>
  </outline>
</glyph>
<glyph name="zigzagbelow" format="2">
  <unicode hex="1DCF"/>
  <anchor x="-227" y="0" name="_bottom"/>
  <anchor x="-261" y="-241" name="bottom"/>
  <outline>
    <contour>
      <point x="-267" y="-241" type="line"/>
      <point x="-215" y="-241" type="line"/>
      <point x="-158" y="-112" type="line"/>
      <point x="-280" y="-112" type="line"/>
      <point x="-246" y="-34" type="line"/>
      <point x="-299" y="-34" type="line"/>
      <point x="-355" y="-163" type="line"/>
      <point x="-233" y="-163" type="line"/>
    </contour>
  </outline>
</glyph>
<glyph name="uni1E10" format="2">
  <advance width="505"/>
  <unicode hex="1E10"/>
  <anchor x="145" y="-240" name="bottom"/>
  <anchor x="348" y="714" name="top"/>
  <anchor x="284" y="357" name="center"/>
  <anchor x="580" y="714" name="topright"/>
  <outline>
    <contour>
      <point x="128" y="-240" type="curve" smooth="yes"/>
      <point x="202" y="-240"/>
      <point x="261" y="-205"/>
      <point x="261" y="-121" type="curve" smooth="yes"/>
      <point x="261" y="-77"/>
      <point x="232" y="-50"/>
      <point x="191" y="-42" type="curve"/>
      <point x="236" y="26" type="line"/>
      <point x="173" y="26" type="line"/>
      <point x="105" y="-81" type="line"/>
      <point x="145" y="-84"/>
      <point x="165" y="-99"/>
      <point x="165" y="-123" type="curve" smooth="yes"/>
      <point x="165" y="-151"/>
      <point x="145" y="-168"/>
      <point x="111" y="-168" type="curve" smooth="yes"/>
      <point x="89" y="-168"/>
      <point x="69" y="-165"/>
      <point x="55" y="-161" type="curve"/>
      <point x="55" y="-231" type="line"/>
      <point x="79" y="-238"/>
      <point x="103" y="-240"/>
    </contour>
    <component base="D"/>
  </outline>
</glyph>
<glyph name="uni1E11" format="2">
  <advance width="455"/>
  <unicode hex="1E11"/>
  <anchor x="117" y="-240" name="bottom"/>
  <anchor x="333" y="760" name="top"/>
  <anchor x="266" y="265" name="center"/>
  <anchor x="541" y="760" name="topright"/>
  <outline>
    <contour>
      <point x="129" y="-240" type="curve" smooth="yes"/>
      <point x="203" y="-240"/>
      <point x="262" y="-205"/>
      <point x="262" y="-121" type="curve" smooth="yes"/>
      <point x="262" y="-77"/>
      <point x="233" y="-50"/>
      <point x="192" y="-42" type="curve"/>
      <point x="247" y="65" type="line"/>
      <point x="184" y="65" type="line"/>
      <point x="106" y="-81" type="line"/>
      <point x="146" y="-84"/>
      <point x="166" y="-99"/>
      <point x="166" y="-123" type="curve" smooth="yes"/>
      <point x="166" y="-151"/>
      <point x="146" y="-168"/>
      <point x="112" y="-168" type="curve" smooth="yes"/>
      <point x="90" y="-168"/>
      <point x="70" y="-165"/>
      <point x="56" y="-161" type="curve"/>
      <point x="56" y="-231" type="line"/>
      <point x="80" y="-238"/>
      <point x="104" y="-240"/>
    </contour>
    <component base="d"/>
  </outline>
</glyph>
<glyph name="longsdiagonalstroke" format="2">
  <advance width="252"/>
  <unicode hex="1E9C"/>
  <anchor x="19" y="-240" name="bottom"/>
  <anchor x="232" y="765" name="top"/>
  <outline>
    <contour>
      <point x="45" y="357" type="line"/>
      <point x="320" y="487" type="line"/>
      <point x="292" y="543" type="line"/>
      <point x="18" y="413" type="line"/>
    </contour>
    <component base="longs"/>
  </outline>
</glyph>
<glyph name="longshighstroke" format="2">
  <advance width="252"/>
  <unicode hex="1E9D"/>
  <anchor x="19" y="-240" name="bottom"/>
  <anchor x="232" y="765" name="top"/>
  <outline>
    <contour>
      <point x="47" y="497" type="line"/>
      <point x="302" y="497" type="line"/>
      <point x="315" y="560" type="line"/>
      <point x="60" y="560" type="line"/>
    </contour>
    <component base="longs"/>
  </outline>
</glyph>
<glyph name="uni1FBD" format="2">
  <advance width="424"/>
  <unicode hex="1FBD"/>
  <anchor x="252" y="545" name="_top"/>
  <outline>
    <contour>
      <point x="218" y="600" type="line"/>
      <point x="293" y="602"/>
      <point x="344" y="656"/>
      <point x="344" y="709" type="curve" smooth="yes"/>
      <point x="344" y="748"/>
      <point x="326" y="765"/>
      <point x="293" y="765" type="curve" smooth="yes"/>
      <point x="260" y="765"/>
      <point x="240" y="743"/>
      <point x="240" y="715" type="curve" smooth="yes"/>
      <point x="240" y="689"/>
      <point x="259" y="678"/>
      <point x="274" y="677" type="curve"/>
      <point x="269" y="651"/>
      <point x="245" y="638"/>
      <point x="226" y="635" type="curve"/>
    </contour>
  </outline>
</glyph>
<glyph name="uni1FC1" format="2">
  <advance width="424"/>
  <unicode hex="1FC1"/>
  <anchor x="271" y="545" name="_top"/>
  <outline>
    <contour>
      <point x="177" y="759" type="curve"/>
      <point x="223" y="759" type="line"/>
      <point x="230" y="789"/>
      <point x="247" y="797"/>
      <point x="267" y="797" type="curve" smooth="yes"/>
      <point x="300" y="797"/>
      <point x="336" y="760"/>
      <point x="381" y="760" type="curve" smooth="yes"/>
      <point x="422" y="760"/>
      <point x="456" y="790"/>
      <point x="471" y="863" type="curve"/>
      <point x="424" y="863" type="line"/>
      <point x="416" y="834"/>
      <point x="403" y="825"/>
      <point x="381" y="825" type="curve" smooth="yes"/>
      <point x="350" y="825"/>
      <point x="313" y="862"/>
      <point x="268" y="862" type="curve" smooth="yes"/>
      <point x="225" y="862"/>
      <point x="194" y="838"/>
    </contour>
    <contour>
      <point x="205" y="612" type="curve" smooth="yes"/>
      <point x="240" y="612"/>
      <point x="264" y="642"/>
      <point x="264" y="685" type="curve" smooth="yes"/>
      <point x="264" y="711"/>
      <point x="251" y="724"/>
      <point x="227" y="724" type="curve" smooth="yes"/>
      <point x="190" y="724"/>
      <point x="165" y="695"/>
      <point x="165" y="652" type="curve" smooth="yes"/>
      <point x="165" y="625"/>
      <point x="178" y="612"/>
    </contour>
    <contour>
      <point x="365" y="612" type="curve" smooth="yes"/>
      <point x="401" y="612"/>
      <point x="424" y="643"/>
      <point x="424" y="685" type="curve" smooth="yes"/>
      <point x="424" y="711"/>
      <point x="411" y="724"/>
      <point x="388" y="724" type="curve" smooth="yes"/>
      <point x="351" y="724"/>
      <point x="326" y="694"/>
      <point x="326" y="652" type="curve" smooth="yes"/>
      <point x="326" y="625"/>
      <point x="339" y="612"/>
    </contour>
  </outline>
</glyph>
<glyph name="uni1FCD" format="2">
  <advance width="424"/>
  <unicode hex="1FCD"/>
  <outline>
    <contour>
      <point x="161" y="635" type="curve"/>
      <point x="153" y="600" type="line"/>
      <point x="228" y="602"/>
      <point x="279" y="656"/>
      <point x="279" y="707" type="curve" smooth="yes"/>
      <point x="279" y="748"/>
      <point x="261" y="765"/>
      <point x="228" y="765" type="curve" smooth="yes"/>
      <point x="195" y="765"/>
      <point x="175" y="743"/>
      <point x="175" y="715" type="curve" smooth="yes"/>
      <point x="175" y="689"/>
      <point x="191" y="678"/>
      <point x="209" y="677" type="curve"/>
      <point x="204" y="651"/>
      <point x="180" y="638"/>
    </contour>
    <contour>
      <point x="343" y="605" type="curve"/>
      <point x="401" y="605" type="line"/>
      <point x="404" y="616" type="line"/>
      <point x="403" y="641"/>
      <point x="401" y="724"/>
      <point x="401" y="757" type="curve"/>
      <point x="302" y="757" type="line"/>
      <point x="300" y="747" type="line"/>
      <point x="306" y="705"/>
      <point x="326" y="646"/>
    </contour>
  </outline>
</glyph>
<glyph name="uni1FCE" format="2">
  <advance width="424"/>
  <unicode hex="1FCE"/>
  <anchor x="269" y="530" name="_top"/>
  <anchor x="308" y="765" name="top"/>
  <outline>
    <contour>
      <point x="284" y="605" type="line"/>
      <point x="341" y="605" type="line"/>
      <point x="374" y="646"/>
      <point x="419" y="705"/>
      <point x="443" y="747" type="curve"/>
      <point x="443" y="757" type="line"/>
      <point x="343" y="757" type="line"/>
      <point x="326" y="709"/>
      <point x="299" y="651"/>
      <point x="284" y="617" type="curve"/>
    </contour>
    <contour>
      <point x="160" y="600" type="line"/>
      <point x="234" y="601"/>
      <point x="286" y="656"/>
      <point x="286" y="707" type="curve" smooth="yes"/>
      <point x="286" y="748"/>
      <point x="268" y="765"/>
      <point x="235" y="765" type="curve" smooth="yes"/>
      <point x="202" y="765"/>
      <point x="181" y="743"/>
      <point x="181" y="714" type="curve" smooth="yes"/>
      <point x="181" y="689"/>
      <point x="201" y="677"/>
      <point x="216" y="676" type="curve"/>
      <point x="211" y="651"/>
      <point x="187" y="638"/>
      <point x="168" y="635" type="curve"/>
    </contour>
  </outline>
</glyph>
<glyph name="uni1FCF" format="2">
  <advance width="424"/>
  <unicode hex="1FCF"/>
  <outline>
    <contour>
      <point x="173" y="779" type="curve"/>
      <point x="219" y="779" type="line"/>
      <point x="226" y="809"/>
      <point x="240" y="817"/>
      <point x="260" y="817" type="curve" smooth="yes"/>
      <point x="292" y="817"/>
      <point x="313" y="780"/>
      <point x="360" y="780" type="curve" smooth="yes"/>
      <point x="402" y="780"/>
      <point x="432" y="810"/>
      <point x="447" y="883" type="curve"/>
      <point x="400" y="883" type="line"/>
      <point x="392" y="854"/>
      <point x="380" y="845"/>
      <point x="360" y="845" type="curve" smooth="yes"/>
      <point x="330" y="845"/>
      <point x="304" y="882"/>
      <point x="261" y="882" type="curve" smooth="yes"/>
      <point x="217" y="882"/>
      <point x="190" y="858"/>
    </contour>
    <contour>
      <point x="225" y="633" type="curve"/>
      <point x="217" y="599" type="line"/>
      <point x="297" y="601"/>
      <point x="343" y="651"/>
      <point x="343" y="702" type="curve" smooth="yes"/>
      <point x="343" y="744"/>
      <point x="324" y="761"/>
      <point x="291" y="761" type="curve" smooth="yes"/>
      <point x="258" y="761"/>
      <point x="238" y="739"/>
      <point x="238" y="711" type="curve" smooth="yes"/>
      <point x="238" y="686"/>
      <point x="255" y="675"/>
      <point x="273" y="674" type="curve"/>
      <point x="267" y="648"/>
      <point x="243" y="637"/>
    </contour>
  </outline>
</glyph>
<glyph name="uni1FDD" format="2">
  <advance width="424"/>
  <unicode hex="1FDD"/>
  <outline>
    <contour>
      <point x="236" y="600" type="curve"/>
      <point x="244" y="637" type="line"/>
      <point x="224" y="640"/>
      <point x="207" y="650"/>
      <point x="207" y="669" type="curve" smooth="yes"/>
      <point x="207" y="672"/>
      <point x="207" y="675"/>
      <point x="208" y="677" type="curve"/>
      <point x="233" y="678"/>
      <point x="257" y="699"/>
      <point x="257" y="726" type="curve" smooth="yes"/>
      <point x="257" y="746"/>
      <point x="247" y="765"/>
      <point x="214" y="765" type="curve" smooth="yes"/>
      <point x="176" y="765"/>
      <point x="153" y="724"/>
      <point x="153" y="687" type="curve" smooth="yes"/>
      <point x="153" y="636"/>
      <point x="182" y="601"/>
    </contour>
    <contour>
      <point x="319" y="605" type="curve"/>
      <point x="377" y="605" type="line"/>
      <point x="380" y="616" type="line"/>
      <point x="377" y="675"/>
      <point x="377" y="730"/>
      <point x="378" y="757" type="curve"/>
      <point x="278" y="757" type="line"/>
      <point x="276" y="747" type="line"/>
      <point x="282" y="705"/>
      <point x="302" y="646"/>
    </contour>
  </outline>
</glyph>
<glyph name="uni1FDE" format="2">
  <advance width="424"/>
  <unicode hex="1FDE"/>
  <outline>
    <contour>
      <point x="270" y="617" type="curve"/>
      <point x="270" y="605" type="line"/>
      <point x="327" y="605" type="line"/>
      <point x="360" y="646"/>
      <point x="405" y="705"/>
      <point x="429" y="747" type="curve"/>
      <point x="429" y="757" type="line"/>
      <point x="329" y="757" type="line"/>
      <point x="312" y="709"/>
      <point x="285" y="651"/>
    </contour>
    <contour>
      <point x="249" y="600" type="curve"/>
      <point x="256" y="637" type="line"/>
      <point x="235" y="640"/>
      <point x="219" y="651"/>
      <point x="219" y="670" type="curve" smooth="yes"/>
      <point x="219" y="672"/>
      <point x="220" y="675"/>
      <point x="220" y="677" type="curve"/>
      <point x="251" y="678"/>
      <point x="270" y="702"/>
      <point x="270" y="732" type="curve" smooth="yes"/>
      <point x="270" y="753"/>
      <point x="257" y="765"/>
      <point x="231" y="765" type="curve" smooth="yes"/>
      <point x="189" y="765"/>
      <point x="165" y="721"/>
      <point x="165" y="684" type="curve" smooth="yes"/>
      <point x="165" y="636"/>
      <point x="194" y="601"/>
    </contour>
  </outline>
</glyph>
<glyph name="uni1FDF" format="2">
  <advance width="424"/>
  <unicode hex="1FDF"/>
  <anchor x="264" y="530" name="_top"/>
  <anchor x="320" y="883" name="top"/>
  <outline>
    <contour>
      <point x="173" y="779" type="curve"/>
      <point x="219" y="779" type="line"/>
      <point x="226" y="809"/>
      <point x="240" y="817"/>
      <point x="260" y="817" type="curve" smooth="yes"/>
      <point x="292" y="817"/>
      <point x="313" y="780"/>
      <point x="360" y="780" type="curve" smooth="yes"/>
      <point x="402" y="780"/>
      <point x="432" y="810"/>
      <point x="447" y="883" type="curve"/>
      <point x="400" y="883" type="line"/>
      <point x="392" y="854"/>
      <point x="380" y="845"/>
      <point x="360" y="845" type="curve" smooth="yes"/>
      <point x="330" y="845"/>
      <point x="304" y="882"/>
      <point x="261" y="882" type="curve" smooth="yes"/>
      <point x="217" y="882"/>
      <point x="190" y="858"/>
    </contour>
    <contour>
      <point x="308" y="599" type="curve"/>
      <point x="315" y="633" type="line"/>
      <point x="294" y="635"/>
      <point x="282" y="649"/>
      <point x="282" y="661" type="curve" smooth="yes"/>
      <point x="282" y="666"/>
      <point x="284" y="672"/>
      <point x="285" y="675" type="curve"/>
      <point x="309" y="675"/>
      <point x="337" y="692"/>
      <point x="337" y="724" type="curve" smooth="yes"/>
      <point x="337" y="745"/>
      <point x="325" y="762"/>
      <point x="292" y="762" type="curve" smooth="yes"/>
      <point x="253" y="762"/>
      <point x="229" y="721"/>
      <point x="229" y="680" type="curve" smooth="yes"/>
      <point x="229" y="628"/>
      <point x="259" y="600"/>
    </contour>
  </outline>
</glyph>
<glyph name="uni1FED" format="2">
  <advance width="424"/>
  <unicode hex="1FED"/>
  <outline>
    <contour>
      <point x="282" y="609" type="curve"/>
      <point x="341" y="609" type="line"/>
      <point x="344" y="621" type="line"/>
      <point x="340" y="652"/>
      <point x="338" y="735"/>
      <point x="338" y="772" type="curve"/>
      <point x="237" y="772" type="line"/>
      <point x="235" y="762" type="line"/>
      <point x="242" y="723"/>
      <point x="267" y="644"/>
    </contour>
    <contour>
      <point x="148" y="601" type="curve" smooth="yes"/>
      <point x="183" y="601"/>
      <point x="213" y="631"/>
      <point x="213" y="679" type="curve" smooth="yes"/>
      <point x="213" y="709"/>
      <point x="197" y="725"/>
      <point x="170" y="725" type="curve" smooth="yes"/>
      <point x="126" y="725"/>
      <point x="102" y="689"/>
      <point x="102" y="647" type="curve" smooth="yes"/>
      <point x="102" y="616"/>
      <point x="118" y="601"/>
    </contour>
    <contour>
      <point x="427" y="601" type="curve" smooth="yes"/>
      <point x="462" y="601"/>
      <point x="492" y="631"/>
      <point x="492" y="679" type="curve" smooth="yes"/>
      <point x="492" y="709"/>
      <point x="476" y="725"/>
      <point x="450" y="725" type="curve" smooth="yes"/>
      <point x="406" y="725"/>
      <point x="382" y="689"/>
      <point x="382" y="647" type="curve" smooth="yes"/>
      <point x="382" y="616"/>
      <point x="398" y="601"/>
    </contour>
  </outline>
</glyph>
<glyph name="uni1FEF" format="2">
  <advance width="424"/>
  <unicode hex="1FEF"/>
  <anchor x="277" y="530" name="_top"/>
  <outline>
    <contour>
      <point x="264" y="606" type="curve"/>
      <point x="328" y="606" type="line"/>
      <point x="331" y="619" type="line"/>
      <point x="324" y="651"/>
      <point x="315" y="730"/>
      <point x="315" y="772" type="curve"/>
      <point x="208" y="772" type="line"/>
      <point x="206" y="762" type="line"/>
      <point x="215" y="725"/>
      <point x="245" y="641"/>
    </contour>
  </outline>
</glyph>
<glyph name="uni1FFD" format="2">
  <advance width="424"/>
  <unicode hex="1FFD"/>
  <anchor x="282" y="530" name="_top"/>
  <outline>
    <contour>
      <point x="228" y="619" type="curve"/>
      <point x="225" y="606" type="line"/>
      <point x="300" y="606" type="line"/>
      <point x="327" y="641"/>
      <point x="381" y="725"/>
      <point x="403" y="762" type="curve"/>
      <point x="405" y="772" type="line"/>
      <point x="294" y="772" type="line"/>
      <point x="283" y="740"/>
      <point x="245" y="651"/>
    </contour>
  </outline>
</glyph>
<glyph name="uni1FFE" format="2">
  <advance width="424"/>
  <unicode hex="1FFE"/>
  <anchor x="247" y="530" name="_top"/>
  <anchor x="287" y="765" name="top"/>
  <outline>
    <contour>
      <point x="311" y="600" type="curve"/>
      <point x="319" y="637" type="line"/>
      <point x="299" y="640"/>
      <point x="282" y="650"/>
      <point x="282" y="669" type="curve" smooth="yes"/>
      <point x="282" y="672"/>
      <point x="282" y="675"/>
      <point x="283" y="677" type="curve"/>
      <point x="308" y="678"/>
      <point x="332" y="699"/>
      <point x="332" y="726" type="curve" smooth="yes"/>
      <point x="332" y="746"/>
      <point x="322" y="765"/>
      <point x="289" y="765" type="curve" smooth="yes"/>
      <point x="251" y="765"/>
      <point x="228" y="724"/>
      <point x="228" y="687" type="curve" smooth="yes"/>
      <point x="228" y="636"/>
      <point x="257" y="601"/>
    </contour>
  </outline>
</glyph>
<glyph name="quoteright" format="2">
  <advance width="217"/>
  <unicode hex="2019"/>
  <outline>
    <contour>
      <point x="60" y="449" type="curve"/>
      <point x="158" y="449" type="line"/>
      <point x="201" y="523"/>
      <point x="241" y="610"/>
      <point x="274" y="704" type="curve"/>
      <point x="272" y="714" type="line"/>
      <point x="153" y="714" type="line"/>
      <point x="127" y="623"/>
      <point x="96" y="535"/>
    </contour>
  </outline>
</glyph>
<glyph name="uni2023" format="2">
  <advance width="431"/>
  <unicode hex="2023"/>
  <outline>
    <contour>
      <point x="41" y="173" type="line"/>
      <point x="419" y="373" type="line"/>
      <point x="126" y="572" type="line"/>
    </contour>
  </outline>
</glyph>
<glyph name="primeReversed" format="2">
  <advance width="325"/>
  <unicode hex="2035"/>
  <outline>
    <contour>
      <point x="201" y="480" type="line"/>
      <point x="288" y="480" type="line"/>
      <point x="253" y="714" type="line"/>
      <point x="133" y="714" type="line"/>
    </contour>
  </outline>
</glyph>
<glyph name="guilsinglleft" format="2">
  <advance width="276"/>
  <unicode hex="2039"/>
  <outline>
    <contour>
      <point x="123" y="45" type="line"/>
      <point x="220" y="87" type="line"/>
      <point x="145" y="268" type="line"/>
      <point x="279" y="442" type="line"/>
      <point x="194" y="495" type="line"/>
      <point x="22" y="277" type="line"/>
      <point x="21" y="265" type="line"/>
    </contour>
  </outline>
</glyph>
<glyph name="hyphenbullet" format="2">
  <advance width="279"/>
  <unicode hex="2043"/>
  <outline>
    <contour>
      <point x="11" y="211" type="line"/>
      <point x="239" y="211" type="line"/>
      <point x="264" y="327" type="line"/>
      <point x="36" y="327" type="line"/>
    </contour>
  </outline>
</glyph>
<glyph name="bracketleftwithquill" format="2">
  <advance width="286"/>
  <unicode hex="2045"/>
  <outline>
    <contour>
      <point x="53" y="244" type="line"/>
      <point x="258" y="244" type="line"/>
      <point x="278" y="340" type="line"/>
      <point x="73" y="340" type="line"/>
    </contour>
    <component base="bracketleft"/>
  </outline>
</glyph>
<glyph name="bracketrightwithquill" format="2">
  <advance width="285"/>
  <unicode hex="2046"/>
  <outline>
    <contour>
      <point x="14" y="244" type="line"/>
      <point x="218" y="244" type="line"/>
      <point x="238" y="340" type="line"/>
      <point x="34" y="340" type="line"/>
    </contour>
    <component base="bracketright"/>
  </outline>
</glyph>
<glyph name="tironiansignet" format="2">
  <advance width="600"/>
  <unicode hex="204A"/>
  <outline>
    <contour>
      <point x="423" y="0" type="line"/>
      <point x="520" y="0" type="line"/>
      <point x="520" y="545" type="line"/>
      <point x="39" y="545" type="line"/>
      <point x="39" y="449" type="line"/>
      <point x="423" y="449" type="line"/>
    </contour>
  </outline>
</glyph>
<glyph name="zerosuperior" format="2">
  <advance width="303"/>
  <unicode hex="2070"/>
  <outline>
    <contour>
      <point x="181" y="406" type="curve" smooth="yes"/>
      <point x="307" y="406"/>
      <point x="365" y="584"/>
      <point x="365" y="728" type="curve" smooth="yes"/>
      <point x="365" y="811"/>
      <point x="326" y="855"/>
      <point x="256" y="855" type="curve" smooth="yes"/>
      <point x="135" y="855"/>
      <point x="72" y="686"/>
      <point x="72" y="532" type="curve" smooth="yes"/>
      <point x="72" y="451"/>
      <point x="110" y="406"/>
    </contour>
    <contour>
      <point x="189" y="484" type="curve" smooth="yes"/>
      <point x="172" y="484"/>
      <point x="164" y="500"/>
      <point x="164" y="535" type="curve" smooth="yes"/>
      <point x="164" y="609"/>
      <point x="201" y="775"/>
      <point x="249" y="775" type="curve" smooth="yes"/>
      <point x="265" y="775"/>
      <point x="274" y="759"/>
      <point x="274" y="723" type="curve" smooth="yes"/>
      <point x="274" y="652"/>
      <point x="234" y="484"/>
    </contour>
  </outline>
</glyph>
<glyph name="plussuperior" format="2">
  <advance width="339"/>
  <unicode hex="207A"/>
  <outline>
    <contour>
      <point x="183" y="344" type="line"/>
      <point x="249" y="344" type="line"/>
      <point x="249" y="451" type="line"/>
      <point x="354" y="451" type="line"/>
      <point x="354" y="517" type="line"/>
      <point x="249" y="517" type="line"/>
      <point x="249" y="625" type="line"/>
      <point x="183" y="625" type="line"/>
      <point x="183" y="517" type="line"/>
      <point x="79" y="517" type="line"/>
      <point x="79" y="451" type="line"/>
      <point x="183" y="451" type="line"/>
    </contour>
  </outline>
</glyph>
<glyph name="minussuperior" format="2">
  <advance width="339"/>
  <unicode hex="207B"/>
  <outline>
    <contour>
      <point x="78" y="451" type="line"/>
      <point x="354" y="451" type="line"/>
      <point x="354" y="517" type="line"/>
      <point x="78" y="517" type="line"/>
    </contour>
  </outline>
</glyph>
<glyph name="equalsuperior" format="2">
  <advance width="339"/>
  <unicode hex="207C"/>
  <outline>
    <contour>
      <point x="79" y="517" type="line"/>
      <point x="354" y="517" type="line"/>
      <point x="354" y="583" type="line"/>
      <point x="79" y="583" type="line"/>
    </contour>
    <contour>
      <point x="79" y="380" type="line"/>
      <point x="354" y="380" type="line"/>
      <point x="354" y="446" type="line"/>
      <point x="79" y="446" type="line"/>
    </contour>
  </outline>
</glyph>
<glyph name="parenleftsuperior" format="2">
  <advance width="203"/>
  <unicode hex="207D"/>
  <outline>
    <contour>
      <point x="107" y="218" type="curve"/>
      <point x="172" y="218" type="line"/>
      <point x="155" y="270"/>
      <point x="145" y="340"/>
      <point x="145" y="397" type="curve" smooth="yes"/>
      <point x="145" y="544"/>
      <point x="205" y="669"/>
      <point x="291" y="771" type="curve"/>
      <point x="221" y="771" type="line"/>
      <point x="124" y="666"/>
      <point x="72" y="542"/>
      <point x="72" y="401" type="curve" smooth="yes"/>
      <point x="72" y="339"/>
      <point x="84" y="266"/>
    </contour>
  </outline>
</glyph>
<glyph name="parenrightsuperior" format="2">
  <advance width="202"/>
  <unicode hex="207E"/>
  <outline>
    <contour>
      <point x="7" y="218" type="curve"/>
      <point x="78" y="218" type="line"/>
      <point x="174" y="324"/>
      <point x="225" y="448"/>
      <point x="225" y="589" type="curve" smooth="yes"/>
      <point x="225" y="653"/>
      <point x="213" y="722"/>
      <point x="189" y="771" type="curve"/>
      <point x="124" y="771" type="line"/>
      <point x="141" y="721"/>
      <point x="152" y="649"/>
      <point x="152" y="591" type="curve" smooth="yes"/>
      <point x="152" y="446"/>
      <point x="94" y="322"/>
    </contour>
  </outline>
</glyph>
<glyph name="uni20A5" format="2">
  <advance width="671"/>
  <unicode hex="20A5"/>
  <anchor x="280" y="0" name="bottom"/>
  <anchor x="392" y="545" name="top"/>
  <anchor x="707" y="545" name="topright"/>
  <outline>
    <contour>
      <point x="93" y="-110" type="line"/>
      <point x="151" y="-110" type="line"/>
      <point x="550" y="666" type="line"/>
      <point x="492" y="666" type="line"/>
    </contour>
    <component base="m"/>
  </outline>
</glyph>
<glyph name="uni20A9" format="2">
  <advance width="700"/>
  <unicode hex="20A9"/>
  <outline>
    <contour>
      <point x="70" y="0" type="line"/>
      <point x="212" y="0" type="line"/>
      <point x="304" y="255" type="line"/>
      <point x="393" y="255" type="line"/>
      <point x="385" y="0" type="line"/>
      <point x="524" y="0" type="line"/>
      <point x="619" y="255" type="line"/>
      <point x="695" y="255" type="line"/>
      <point x="709" y="323" type="line"/>
      <point x="644" y="323" type="line"/>
      <point x="670" y="395" type="line"/>
      <point x="723" y="395" type="line"/>
      <point x="738" y="463" type="line"/>
      <point x="695" y="463" type="line"/>
      <point x="788" y="714" type="line"/>
      <point x="662" y="714" type="line"/>
      <point x="577" y="463" type="line"/>
      <point x="484" y="463" type="line"/>
      <point x="492" y="714" type="line"/>
      <point x="387" y="714" type="line"/>
      <point x="293" y="463" type="line"/>
      <point x="197" y="463" type="line"/>
      <point x="206" y="714" type="line"/>
      <point x="92" y="714" type="line"/>
      <point x="84" y="463" type="line"/>
      <point x="42" y="463" type="line"/>
      <point x="27" y="395" type="line"/>
      <point x="82" y="395" type="line"/>
      <point x="80" y="323" type="line"/>
      <point x="13" y="323" type="line"/>
      <point x="-2" y="255" type="line"/>
      <point x="77" y="255" type="line"/>
    </contour>
    <contour>
      <point x="178" y="146" type="line"/>
      <point x="186" y="255" type="line"/>
      <point x="218" y="255" type="line"/>
    </contour>
    <contour>
      <point x="191" y="323" type="line"/>
      <point x="193" y="395" type="line"/>
      <point x="267" y="395" type="line"/>
      <point x="241" y="323" type="line"/>
    </contour>
    <contour>
      <point x="471" y="144" type="line"/>
      <point x="477" y="255" type="line"/>
      <point x="508" y="255" type="line"/>
    </contour>
    <contour>
      <point x="328" y="323" type="line"/>
      <point x="354" y="395" type="line"/>
      <point x="397" y="395" type="line"/>
      <point x="395" y="323" type="line"/>
    </contour>
    <contour>
      <point x="480" y="323" type="line"/>
      <point x="483" y="395" type="line"/>
      <point x="554" y="395" type="line"/>
      <point x="529" y="323" type="line"/>
    </contour>
    <contour>
      <point x="373" y="463" type="line"/>
      <point x="406" y="563" type="line"/>
      <point x="400" y="463" type="line"/>
    </contour>
  </outline>
</glyph>
<glyph name="CDoubleStruck" format="2">
  <advance width="632"/>
  <unicode hex="2102"/>
  <outline>
    <contour>
      <point x="334" y="-10" type="curve" smooth="yes"/>
      <point x="397" y="-10"/>
      <point x="451" y="-6"/>
      <point x="514" y="8" type="curve"/>
      <point x="514" y="67" type="line"/>
      <point x="458" y="52"/>
      <point x="398" y="43"/>
      <point x="343" y="43" type="curve" smooth="yes"/>
      <point x="284" y="43"/>
      <point x="234" y="54"/>
      <point x="194" y="74" type="curve"/>
      <point x="194" y="636" type="line"/>
      <point x="235" y="659"/>
      <point x="285" y="672"/>
      <point x="343" y="672" type="curve" smooth="yes"/>
      <point x="397" y="672"/>
      <point x="456" y="660"/>
      <point x="508" y="638" type="curve"/>
      <point x="534" y="694" type="line"/>
      <point x="470" y="719"/>
      <point x="409" y="725"/>
      <point x="345" y="725" type="curve" smooth="yes"/>
      <point x="124" y="725"/>
      <point x="2" y="574"/>
      <point x="2" y="358" type="curve" smooth="yes"/>
      <point x="2" y="133"/>
      <point x="111" y="-10"/>
    </contour>
    <contour>
      <point x="141" y="112" type="line"/>
      <point x="85" y="166"/>
      <point x="58" y="249"/>
      <point x="58" y="355" type="curve" smooth="yes"/>
      <point x="58" y="458"/>
      <point x="87" y="542"/>
      <point x="141" y="596" type="curve"/>
    </contour>
  </outline>
</glyph>
<glyph name="cadauna" format="2">
  <advance width="676"/>
  <unicode hex="2106"/>
  <anchor x="146" y="303" name="_top"/>
  <anchor x="500" y="339" name="top"/>
  <outline>
    <contour>
      <point x="174" y="358" type="curve" smooth="yes"/>
      <point x="210" y="358"/>
      <point x="236" y="366"/>
      <point x="261" y="381" type="curve"/>
      <point x="263" y="452" type="line"/>
      <point x="239" y="438"/>
      <point x="217" y="429"/>
      <point x="195" y="429" type="curve" smooth="yes"/>
      <point x="171" y="429"/>
      <point x="159" y="447"/>
      <point x="159" y="490" type="curve" smooth="yes"/>
      <point x="159" y="551"/>
      <point x="184" y="644"/>
      <point x="237" y="644" type="curve" smooth="yes"/>
      <point x="254" y="644"/>
      <point x="274" y="637"/>
      <point x="290" y="628" type="curve"/>
      <point x="319" y="695" type="line"/>
      <point x="296" y="707"/>
      <point x="265" y="716"/>
      <point x="233" y="716" type="curve" smooth="yes"/>
      <point x="132" y="717"/>
      <point x="73" y="601"/>
      <point x="73" y="485" type="curve" smooth="yes"/>
      <point x="73" y="396"/>
      <point x="116" y="358"/>
    </contour>
    <contour>
      <point x="27" y="0" type="line"/>
      <point x="122" y="0" type="line"/>
      <point x="618" y="714" type="line"/>
      <point x="522" y="714" type="line"/>
    </contour>
    <contour>
      <point x="413" y="-12" type="curve" smooth="yes"/>
      <point x="447" y="-12"/>
      <point x="473" y="6"/>
      <point x="495" y="42" type="curve"/>
      <point x="496" y="42" type="line"/>
      <point x="492" y="-6" type="line"/>
      <point x="559" y="-6" type="line"/>
      <point x="634" y="339" type="line"/>
      <point x="548" y="339" type="line"/>
      <point x="516" y="186" type="line" smooth="yes"/>
      <point x="498" y="100"/>
      <point x="478" y="59"/>
      <point x="449" y="59" type="curve" smooth="yes"/>
      <point x="435" y="59"/>
      <point x="425" y="70"/>
      <point x="425" y="91" type="curve" smooth="yes"/>
      <point x="425" y="103"/>
      <point x="429" y="121"/>
      <point x="432" y="135" type="curve" smooth="yes"/>
      <point x="475" y="339" type="line"/>
      <point x="390" y="339" type="line"/>
      <point x="347" y="140" type="line" smooth="yes"/>
      <point x="341" y="112"/>
      <point x="340" y="83"/>
      <point x="340" y="69" type="curve" smooth="yes"/>
      <point x="340" y="23"/>
      <point x="363" y="-12"/>
    </contour>
  </outline>
</glyph>
<glyph name="Escript" format="2">
  <advance width="603"/>
  <unicode hex="2130"/>
  <outline>
    <contour>
      <point x="178" y="-7" type="curve" smooth="yes"/>
      <point x="304" y="-7"/>
      <point x="422" y="87"/>
      <point x="422" y="208" type="curve" smooth="yes"/>
      <point x="422" y="236"/>
      <point x="412" y="302"/>
      <point x="339" y="302" type="curve" smooth="yes"/>
      <point x="259" y="302"/>
      <point x="199" y="235"/>
      <point x="199" y="156" type="curve" smooth="yes"/>
      <point x="199" y="132"/>
      <point x="200" y="108"/>
      <point x="205" y="84" type="curve"/>
      <point x="223" y="88" type="line"/>
      <point x="210" y="193"/>
      <point x="282" y="284"/>
      <point x="341" y="284" type="curve" smooth="yes"/>
      <point x="377" y="284"/>
      <point x="404" y="257"/>
      <point x="404" y="208" type="curve" smooth="yes"/>
      <point x="404" y="100"/>
      <point x="292" y="11"/>
      <point x="186" y="11" type="curve" smooth="yes"/>
      <point x="158" y="11"/>
      <point x="75" y="9"/>
      <point x="75" y="135" type="curve" smooth="yes"/>
      <point x="75" y="259"/>
      <point x="162" y="387"/>
      <point x="256" y="415" type="curve"/>
      <point x="284" y="387"/>
      <point x="327" y="374"/>
      <point x="353" y="374" type="curve" smooth="yes"/>
      <point x="355" y="374"/>
      <point x="398" y="371"/>
      <point x="398" y="400" type="curve" smooth="yes"/>
      <point x="398" y="430"/>
      <point x="336" y="441"/>
      <point x="283" y="443" type="curve"/>
      <point x="279" y="454"/>
      <point x="277" y="466"/>
      <point x="277" y="483" type="curve" smooth="yes"/>
      <point x="277" y="616"/>
      <point x="348" y="701"/>
      <point x="442" y="701" type="curve" smooth="yes"/>
      <point x="481" y="701"/>
      <point x="541" y="672"/>
      <point x="541" y="584" type="curve" smooth="yes"/>
      <point x="541" y="516"/>
      <point x="503" y="478"/>
      <point x="458" y="478" type="curve" smooth="yes"/>
      <point x="453" y="478"/>
      <point x="413" y="477"/>
      <point x="413" y="531" type="curve" smooth="yes"/>
      <point x="413" y="585"/>
      <point x="473" y="627"/>
      <point x="471" y="627" type="curve"/>
      <point x="466" y="637" type="line"/>
      <point x="406" y="613"/>
      <point x="386" y="569"/>
      <point x="386" y="530" type="curve" smooth="yes"/>
      <point x="386" y="491"/>
      <point x="411" y="460"/>
      <point x="456" y="460" type="curve" smooth="yes"/>
      <point x="530" y="460"/>
      <point x="565" y="535"/>
      <point x="565" y="582" type="curve" smooth="yes"/>
      <point x="565" y="636"/>
      <point x="537" y="728"/>
      <point x="410" y="728" type="curve" smooth="yes"/>
      <point x="283" y="728"/>
      <point x="192" y="640"/>
      <point x="187" y="557" type="curve" smooth="yes"/>
      <point x="183" y="497"/>
      <point x="212" y="457"/>
      <point x="229" y="440" type="curve"/>
      <point x="95" y="421"/>
      <point x="-20" y="318"/>
      <point x="-20" y="196" type="curve" smooth="yes"/>
      <point x="-20" y="78"/>
      <point x="56" y="-7"/>
    </contour>
    <contour>
      <point x="348" y="390" type="curve" smooth="yes"/>
      <point x="333" y="392"/>
      <point x="308" y="402"/>
      <point x="293" y="423" type="curve"/>
      <point x="303" y="425"/>
      <point x="320" y="424"/>
      <point x="332" y="422" type="curve" smooth="yes"/>
      <point x="347" y="420"/>
      <point x="380" y="411"/>
      <point x="380" y="400" type="curve" smooth="yes"/>
      <point x="380" y="389"/>
      <point x="362" y="388"/>
    </contour>
  </outline>
</glyph>
<glyph name="GammaDoubleStruck" format="2">
  <advance width="552"/>
  <unicode hex="213E"/>
  <outline>
    <contour>
      <point x="49" y="0" type="line"/>
      <point x="222" y="0" type="line"/>
      <point x="222" y="661" type="line"/>
      <point x="489" y="661" type="line"/>
      <point x="489" y="714" type="line"/>
      <point x="49" y="714" type="line"/>
    </contour>
    <contour>
      <point x="102" y="53" type="line"/>
      <point x="102" y="661" type="line"/>
      <point x="169" y="661" type="line"/>
      <point x="169" y="53" type="line"/>
    </contour>
  </outline>
</glyph>
<glyph name="ItaliciDoubleStruck" format="2">
  <advance width="343"/>
  <unicode hex="2148"/>
  <outline>
    <contour>
      <point x="-16" y="0" type="line"/>
      <point x="157" y="0" type="line"/>
      <point x="271" y="536" type="line"/>
      <point x="97" y="536" type="line"/>
    </contour>
    <contour>
      <point x="47" y="49" type="line"/>
      <point x="139" y="483" type="line"/>
      <point x="206" y="483" type="line"/>
      <point x="114" y="49" type="line"/>
    </contour>
    <contour>
      <point x="200" y="592" type="curve" smooth="yes"/>
      <point x="247" y="592"/>
      <point x="294" y="630"/>
      <point x="294" y="698" type="curve" smooth="yes"/>
      <point x="294" y="744"/>
      <point x="270" y="769"/>
      <point x="218" y="769" type="curve" smooth="yes"/>
      <point x="155" y="769"/>
      <point x="121" y="723"/>
      <point x="121" y="667" type="curve" smooth="yes"/>
      <point x="121" y="617"/>
      <point x="154" y="592"/>
    </contour>
    <contour>
      <point x="204" y="642" type="curve" smooth="yes"/>
      <point x="185" y="642"/>
      <point x="171" y="654"/>
      <point x="171" y="675" type="curve" smooth="yes"/>
      <point x="171" y="698"/>
      <point x="185" y="719"/>
      <point x="212" y="719" type="curve" smooth="yes"/>
      <point x="234" y="719"/>
      <point x="244" y="707"/>
      <point x="244" y="688" type="curve" smooth="yes"/>
      <point x="244" y="659"/>
      <point x="224" y="642"/>
    </contour>
  </outline>
</glyph>
<glyph name="uni2C6B" format="2">
  <advance width="389"/>
  <unicode hex="2C6B"/>
  <anchor x="95" y="-207" name="bottom"/>
  <anchor x="290" y="714" name="top"/>
  <outline>
    <contour>
      <point x="145" y="-207" type="line"/>
      <point x="266" y="-207" type="line"/>
      <point x="335" y="110" type="line"/>
      <point x="124" y="110" type="line"/>
      <point x="437" y="623" type="line"/>
      <point x="456" y="714" type="line"/>
      <point x="116" y="714" type="line"/>
      <point x="93" y="605" type="line"/>
      <point x="291" y="605" type="line"/>
      <point x="-21" y="90" type="line"/>
      <point x="-39.992" y="0" type="line"/>
      <point x="189" y="0" type="line"/>
    </contour>
  </outline>
</glyph>
<glyph name="uni2C6C" format="2">
  <advance width="339"/>
  <unicode hex="2C6C"/>
  <anchor x="73" y="-194" name="bottom"/>
  <anchor x="226" y="530" name="top"/>
  <outline>
    <contour>
      <point x="105" y="-194" type="line"/>
      <point x="221" y="-194" type="line"/>
      <point x="285" y="102" type="line"/>
      <point x="124" y="102" type="line"/>
      <point x="354" y="464" type="line"/>
      <point x="371" y="545" type="line"/>
      <point x="87" y="545" type="line"/>
      <point x="65" y="443" type="line"/>
      <point x="213" y="443" type="line"/>
      <point x="-23" y="74" type="line"/>
      <point x="-39" y="0" type="line"/>
      <point x="146" y="0" type="line"/>
    </contour>
  </outline>
</glyph>
<glyph name="enotch" format="2">
  <advance width="552"/>
  <unicode hex="2C78"/>
  <anchor x="155" y="0" name="bottom"/>
  <anchor x="267" y="530" name="top"/>
  <anchor x="458" y="530" name="topright"/>
  <outline>
    <contour>
      <point x="385" y="-11" type="curve" smooth="yes"/>
      <point x="473" y="-11"/>
      <point x="527" y="56"/>
      <point x="527" y="147" type="curve" smooth="yes"/>
      <point x="527" y="162"/>
      <point x="526" y="173"/>
      <point x="523" y="182" type="curve"/>
      <point x="434" y="182" type="line"/>
      <point x="436" y="174"/>
      <point x="437" y="165"/>
      <point x="437" y="153" type="curve" smooth="yes"/>
      <point x="437" y="115"/>
      <point x="415" y="87"/>
      <point x="380" y="87" type="curve" smooth="yes"/>
      <point x="357" y="87"/>
      <point x="339" y="101"/>
      <point x="330" y="124" type="curve"/>
      <point x="292" y="24" type="line"/>
      <point x="309" y="7"/>
      <point x="337" y="-11"/>
    </contour>
    <component base="e"/>
  </outline>
</glyph>
<glyph name="leftsubstitutionbracket" format="2">
  <advance width="500"/>
  <unicode hex="2E02"/>
  <outline>
    <contour>
      <point x="130" y="276" type="line"/>
      <point x="199" y="276" type="line"/>
      <point x="199" y="547" type="line"/>
      <point x="370" y="656" type="line"/>
      <point x="332" y="714" type="line"/>
      <point x="130" y="585" type="line"/>
    </contour>
  </outline>
</glyph>
<glyph name="rightraisedomissionbracket" format="2">
  <advance width="500"/>
  <unicode hex="2E0D"/>
  <outline>
    <contour>
      <point x="106" y="335" type="line"/>
      <point x="440" y="668" type="line"/>
      <point x="393" y="715" type="line"/>
      <point x="59" y="381" type="line"/>
    </contour>
  </outline>
</glyph>
<glyph name="reversedforkedparagraphos" format="2">
  <advance width="1000"/>
  <unicode hex="2E11"/>
  <outline>
    <contour>
      <point x="967" y="-344" type="line"/>
      <point x="998" y="-289" type="line"/>
      <point x="761" y="-153" type="line"/>
      <point x="1000" y="-153.009" type="line"/>
      <point x="1000" y="-90.991" type="line"/>
      <point x="0" y="-90.991" type="line"/>
      <point x="0" y="-153.009" type="line"/>
      <point x="635" y="-153" type="line"/>
    </contour>
  </outline>
</glyph>
<glyph name="downwardsancora" format="2">
  <advance width="750"/>
  <unicode hex="2E14"/>
  <outline>
    <contour>
      <point x="472" y="80" type="curve"/>
      <point x="424" y="128" type="line"/>
      <point x="370" y="107"/>
      <point x="325" y="113"/>
      <point x="276" y="152" type="curve"/>
      <point x="663" y="539" type="line"/>
      <point x="619" y="583" type="line"/>
      <point x="232" y="196" type="line"/>
      <point x="193" y="245"/>
      <point x="187" y="290"/>
      <point x="209" y="343" type="curve"/>
      <point x="160" y="391" type="line"/>
      <point x="112" y="295"/>
      <point x="132" y="207"/>
      <point x="209" y="129" type="curve"/>
      <point x="287" y="51"/>
      <point x="376" y="32"/>
    </contour>
  </outline>
</glyph>
<glyph name="uni2E17" format="2">
  <advance width="378"/>
  <unicode hex="2E17"/>
  <outline>
    <contour>
      <point x="56" y="299" type="line"/>
      <point x="397" y="451" type="line"/>
      <point x="370" y="514" type="line"/>
      <point x="28" y="362" type="line"/>
    </contour>
    <contour>
      <point x="19" y="95" type="line"/>
      <point x="360" y="247" type="line"/>
      <point x="332" y="310" type="line"/>
      <point x="-9" y="157" type="line"/>
    </contour>
  </outline>
</glyph>
<glyph name="rightlowparaphrasebracket" format="2">
  <advance width="500"/>
  <unicode hex="2E1D"/>
  <outline>
    <contour>
      <point x="106" y="-82" type="line"/>
      <point x="440" y="252" type="line"/>
      <point x="393" y="298" type="line"/>
      <point x="59" y="-36" type="line"/>
    </contour>
  </outline>
</glyph>
<glyph name="leftverticalbarwithquill" format="2">
  <advance width="551"/>
  <unicode hex="2E20"/>
  <outline>
    <contour>
      <point x="156" y="-240" type="line"/>
      <point x="238" y="-240" type="line"/>
      <point x="238" y="222" type="line"/>
      <point x="382" y="222" type="line"/>
      <point x="382" y="297" type="line"/>
      <point x="238" y="297" type="line"/>
      <point x="238" y="760" type="line"/>
      <point x="156" y="760" type="line"/>
    </contour>
  </outline>
</glyph>
<glyph name="brackhalftopleft" format="2">
  <advance width="339"/>
  <unicode hex="2E22"/>
  <outline>
    <contour>
      <point x="80" y="268" type="line"/>
      <point x="171" y="268" type="line"/>
      <point x="171" y="633" type="line"/>
      <point x="314" y="633" type="line"/>
      <point x="314" y="714" type="line"/>
      <point x="80" y="714" type="line"/>
    </contour>
  </outline>
</glyph>
<glyph name="threeemdash" format="2">
  <advance width="2589"/>
  <unicode hex="2E3B"/>
  <outline>
    <contour>
      <point x="18" y="219" type="line"/>
      <point x="2547" y="219" type="line"/>
      <point x="2569" y="321" type="line"/>
      <point x="40" y="321" type="line"/>
    </contour>
  </outline>
</glyph>
<glyph name="uni2E42" format="2">
  <advance width="431"/>
  <unicode hex="2E42"/>
  <outline>
    <contour>
      <point x="25" y="-136" type="curve"/>
      <point x="128" y="-136" type="line"/>
      <point x="123" y="-69"/>
      <point x="124" y="58"/>
      <point x="132" y="130" type="curve"/>
      <point x="15" y="130" type="line"/>
      <point x="6" y="117" type="line"/>
      <point x="7" y="32"/>
      <point x="11" y="-60"/>
    </contour>
    <contour>
      <point x="219" y="-136" type="curve"/>
      <point x="322" y="-136" type="line"/>
      <point x="317" y="-69"/>
      <point x="318" y="58"/>
      <point x="326" y="130" type="curve"/>
      <point x="209" y="130" type="line"/>
      <point x="200" y="117" type="line"/>
      <point x="200" y="32"/>
      <point x="205" y="-60"/>
    </contour>
  </outline>
</glyph>
<glyph name="uni2E43" format="2">
  <advance width="710"/>
  <unicode hex="2E43"/>
  <outline>
    <contour>
      <point x="267" y="219" type="curve" smooth="yes"/>
      <point x="669" y="219" type="line"/>
      <point x="690" y="320" type="line"/>
      <point x="265" y="320" type="line" smooth="yes"/>
      <point x="217" y="320"/>
      <point x="191" y="338"/>
      <point x="191" y="379" type="curve" smooth="yes"/>
      <point x="191" y="432"/>
      <point x="216" y="442"/>
      <point x="216" y="487" type="curve" smooth="yes"/>
      <point x="216" y="526"/>
      <point x="191" y="546"/>
      <point x="159" y="546" type="curve" smooth="yes"/>
      <point x="99" y="546"/>
      <point x="63" y="493"/>
      <point x="63" y="413" type="curve" smooth="yes"/>
      <point x="63" y="302"/>
      <point x="121" y="219"/>
    </contour>
  </outline>
</glyph>
<glyph name="uni2E44" format="2">
  <advance width="321"/>
  <unicode hex="2E44"/>
  <outline>
    <contour>
      <point x="167" y="500" type="line"/>
      <point x="367" y="689" type="line"/>
      <point x="276" y="761" type="line"/>
      <point x="100" y="557" type="line"/>
    </contour>
    <contour>
      <point x="49" y="-68" type="line"/>
      <point x="249" y="121" type="line"/>
      <point x="158" y="193" type="line"/>
      <point x="-18" y="-11" type="line"/>
    </contour>
  </outline>
</glyph>
<glyph name="uniA642" format="2">
  <advance width="389"/>
  <unicode hex="A642"/>
  <outline>
    <contour>
      <point x="47" y="321" type="line"/>
      <point x="360" y="321" type="line"/>
      <point x="381" y="417" type="line"/>
      <point x="68" y="417" type="line"/>
    </contour>
    <component base="uniA640"/>
  </outline>
</glyph>
<glyph name="uniA643" format="2">
  <advance width="339"/>
  <unicode hex="A643"/>
  <outline>
    <contour>
      <point x="22" y="231" type="line"/>
      <point x="305" y="231" type="line"/>
      <point x="325" y="327" type="line"/>
      <point x="43" y="327" type="line"/>
    </contour>
    <component base="uniA641"/>
  </outline>
</glyph>
<glyph name="uniA64B" format="2">
  <advance width="438"/>
  <unicode hex="A64B"/>
  <anchor x="159" y="-10" name="bottom"/>
  <anchor x="326" y="763" name="top"/>
  <outline>
    <contour>
      <point x="181" y="-10" type="curve" smooth="yes"/>
      <point x="306" y="-10"/>
      <point x="390" y="94"/>
      <point x="390" y="207" type="curve" smooth="yes"/>
      <point x="390" y="270"/>
      <point x="368" y="322"/>
      <point x="314" y="374" type="curve"/>
      <point x="415" y="442"/>
      <point x="488" y="570"/>
      <point x="520" y="760" type="curve"/>
      <point x="409" y="760" type="line"/>
      <point x="391" y="612"/>
      <point x="333" y="498"/>
      <point x="254" y="437" type="curve"/>
      <point x="224" y="469"/>
      <point x="210" y="522"/>
      <point x="210" y="574" type="curve" smooth="yes"/>
      <point x="210" y="596"/>
      <point x="212" y="616"/>
      <point x="214" y="634" type="curve"/>
      <point x="104" y="634" type="line"/>
      <point x="101" y="616"/>
      <point x="100" y="595"/>
      <point x="100" y="575" type="curve" smooth="yes"/>
      <point x="100" y="504"/>
      <point x="117" y="429"/>
      <point x="165" y="376" type="curve"/>
      <point x="67" y="317"/>
      <point x="8" y="247"/>
      <point x="8" y="148" type="curve" smooth="yes"/>
      <point x="8" y="48"/>
      <point x="72" y="-10"/>
    </contour>
    <contour>
      <point x="184" y="91" type="curve" smooth="yes"/>
      <point x="148" y="91"/>
      <point x="127" y="118"/>
      <point x="127" y="157" type="curve" smooth="yes"/>
      <point x="127" y="229"/>
      <point x="169" y="279"/>
      <point x="223" y="313" type="curve"/>
      <point x="254" y="278"/>
      <point x="272" y="241"/>
      <point x="272" y="201" type="curve" smooth="yes"/>
      <point x="271" y="143"/>
      <point x="243" y="91"/>
    </contour>
  </outline>
</glyph>
<glyph name="uniA650" format="2">
  <advance width="755"/>
  <unicode hex="A650"/>
  <anchor x="360" y="0" name="bottom"/>
  <anchor x="511" y="714" name="top"/>
  <outline>
    <contour>
      <point x="80" y="603" type="line"/>
      <point x="200" y="603" type="line"/>
      <point x="349" y="714" type="line"/>
      <point x="103" y="714" type="line"/>
    </contour>
    <component base="afii10045" xOffset="76"/>
  </outline>
</glyph>
<glyph name="uniA651" format="2">
  <advance width="682"/>
  <unicode hex="A651"/>
  <anchor x="318" y="0" name="bottom"/>
  <anchor x="421" y="545" name="top"/>
  <outline>
    <contour>
      <point x="44" y="438" type="line"/>
      <point x="154" y="438" type="line"/>
      <point x="290" y="545" type="line"/>
      <point x="67" y="545" type="line"/>
    </contour>
    <component base="afii10093" xOffset="64"/>
  </outline>
</glyph>
<glyph name="uniA655" format="2">
  <advance width="643"/>
  <unicode hex="A655"/>
  <anchor x="166" y="0" name="bottom"/>
  <anchor x="260" y="265" name="center"/>
  <anchor x="278" y="530" name="top"/>
  <anchor x="480" y="530" name="topright"/>
  <outline>
    <contour>
      <point x="392" y="332" type="line"/>
      <point x="370" y="230" type="line"/>
      <point x="463" y="230" type="line"/>
      <point x="414" y="0" type="line"/>
      <point x="534" y="0" type="line"/>
      <point x="650" y="545" type="line"/>
      <point x="530" y="545" type="line"/>
      <point x="485" y="332" type="line"/>
    </contour>
    <component base="o"/>
  </outline>
</glyph>
<glyph name="uniA657" format="2">
  <advance width="621"/>
  <unicode hex="A657"/>
  <anchor x="243" y="3" name="bottom"/>
  <anchor x="344" y="545" name="top"/>
  <outline>
    <contour>
      <point x="154" y="0" type="line"/>
      <point x="280" y="0" type="line"/>
      <point x="364" y="216" type="line"/>
      <point x="444" y="216" type="line"/>
      <point x="442" y="0" type="line"/>
      <point x="562" y="0" type="line"/>
      <point x="545" y="545" type="line"/>
      <point x="398" y="545" type="line"/>
    </contour>
    <contour>
      <point x="-7" y="0" type="line"/>
      <point x="113" y="0" type="line"/>
      <point x="159" y="216" type="line"/>
      <point x="305" y="216" type="line"/>
      <point x="327" y="313" type="line"/>
      <point x="180" y="313" type="line"/>
      <point x="229" y="545" type="line"/>
      <point x="109" y="545" type="line"/>
    </contour>
    <contour>
      <point x="398" y="306" type="line"/>
      <point x="423" y="379" type="line" smooth="yes"/>
      <point x="432" y="403"/>
      <point x="440" y="427"/>
      <point x="447" y="451" type="curve"/>
      <point x="453" y="451" type="line"/>
      <point x="450" y="422"/>
      <point x="447" y="375"/>
      <point x="446" y="354" type="curve" smooth="yes"/>
      <point x="444" y="306" type="line"/>
    </contour>
  </outline>
</glyph>
<glyph name="uniA660" format="2">
  <advance width="555"/>
  <unicode hex="A660"/>
  <outline>
    <contour>
      <point x="-88" y="-207" type="line"/>
      <point x="34" y="-207" type="line"/>
      <point x="78" y="0" type="line"/>
      <point x="434" y="0" type="line"/>
      <point x="587" y="714" type="line"/>
      <point x="462" y="714" type="line"/>
      <point x="333" y="110" type="line"/>
      <point x="177" y="110" type="line"/>
      <point x="306" y="714" type="line"/>
      <point x="181" y="714" type="line"/>
      <point x="53" y="110" type="line"/>
      <point x="-20" y="110" type="line"/>
    </contour>
  </outline>
</glyph>
<glyph name="uniA661" format="2">
  <advance width="470"/>
  <unicode hex="A661"/>
  <outline>
    <contour>
      <point x="-79" y="-195" type="line"/>
      <point x="37" y="-195" type="line"/>
      <point x="79" y="0" type="line"/>
      <point x="361" y="0" type="line"/>
      <point x="477" y="545" type="line"/>
      <point x="357" y="545" type="line"/>
      <point x="263" y="103" type="line"/>
      <point x="153" y="103" type="line"/>
      <point x="247" y="545" type="line"/>
      <point x="127" y="545" type="line"/>
      <point x="33" y="102" type="line"/>
      <point x="-16" y="102" type="line"/>
    </contour>
  </outline>
</glyph>
<glyph name="uniA662" format="2">
  <advance width="643"/>
  <unicode hex="A662"/>
  <anchor x="166" y="-205" name="bottom"/>
  <anchor x="363" y="714" name="top"/>
  <outline>
    <contour>
      <point x="274" y="0" type="line"/>
      <point x="399" y="0" type="line"/>
      <point x="527" y="604" type="line"/>
      <point x="697" y="604" type="line"/>
      <point x="721" y="714" type="line"/>
      <point x="425" y="714" type="line"/>
    </contour>
    <component base="afii10021"/>
  </outline>
</glyph>
<glyph name="uniA664" format="2">
  <advance width="645"/>
  <unicode hex="A664"/>
  <anchor x="202" y="0" name="bottom"/>
  <anchor x="353" y="714" name="top"/>
  <outline>
    <contour>
      <point x="515" y="604" type="line"/>
      <point x="699" y="604" type="line"/>
      <point x="722" y="714" type="line"/>
      <point x="421" y="714" type="line"/>
    </contour>
    <component base="afii10029"/>
  </outline>
</glyph>
<glyph name="uniA665" format="2">
  <advance width="564"/>
  <unicode hex="A665"/>
  <anchor x="169" y="0" name="bottom"/>
  <anchor x="281" y="530" name="top"/>
  <outline>
    <contour>
      <point x="228" y="0" type="line"/>
      <point x="348" y="0" type="line"/>
      <point x="442" y="442" type="line"/>
      <point x="587" y="442" type="line"/>
      <point x="610" y="545" type="line"/>
      <point x="344" y="545" type="line"/>
    </contour>
    <component base="afii10077"/>
  </outline>
</glyph>
<glyph name="uniA666" format="2">
  <advance width="820"/>
  <unicode hex="A666"/>
  <anchor x="292" y="0" name="bottom"/>
  <anchor x="443" y="714" name="top"/>
  <anchor x="771" y="714" name="topright"/>
  <outline>
    <contour>
      <point x="690" y="604" type="line"/>
      <point x="874" y="604" type="line"/>
      <point x="897" y="714" type="line"/>
      <point x="596" y="714" type="line"/>
    </contour>
    <component base="M"/>
  </outline>
</glyph>
<glyph name="uniA667" format="2">
  <advance width="687"/>
  <unicode hex="A667"/>
  <anchor x="234" y="0" name="bottom"/>
  <anchor x="346" y="530" name="top"/>
  <outline>
    <contour>
      <point x="547" y="442" type="line"/>
      <point x="709" y="442" type="line"/>
      <point x="731" y="545" type="line"/>
      <point x="466" y="545" type="line"/>
    </contour>
    <component base="afii10078"/>
  </outline>
</glyph>
<glyph name="uniA673" format="2">
  <advance width="547"/>
  <unicode hex="A673"/>
  <outline>
    <contour>
      <point x="320" y="285" type="line"/>
      <point x="387" y="402" type="line"/>
      <point x="526" y="402" type="line"/>
      <point x="456" y="522" type="line"/>
      <point x="526" y="643" type="line"/>
      <point x="387" y="643" type="line"/>
      <point x="320" y="760" type="line"/>
      <point x="252" y="643" type="line"/>
      <point x="113" y="643" type="line"/>
      <point x="182" y="522" type="line"/>
      <point x="113" y="402" type="line"/>
      <point x="252" y="402" type="line"/>
    </contour>
    <contour>
      <point x="320" y="364" type="line"/>
      <point x="275" y="442" type="line"/>
      <point x="182" y="442" type="line"/>
      <point x="228" y="522" type="line"/>
      <point x="182" y="603" type="line"/>
      <point x="275" y="603" type="line"/>
      <point x="320" y="681" type="line"/>
      <point x="365" y="603" type="line"/>
      <point x="457" y="603" type="line"/>
      <point x="411" y="522" type="line"/>
      <point x="457" y="442" type="line"/>
      <point x="365" y="442" type="line"/>
    </contour>
  </outline>
</glyph>
<glyph name="uniA680" format="2">
  <advance width="535"/>
  <unicode hex="A680"/>
  <anchor x="166" y="-205" name="bottom"/>
  <anchor x="363" y="714" name="top"/>
  <outline>
    <contour>
      <point x="226" y="655" type="line"/>
      <point x="339" y="655" type="line"/>
      <point x="396" y="920" type="line"/>
      <point x="283" y="920" type="line"/>
    </contour>
    <component base="afii10021"/>
  </outline>
</glyph>
<glyph name="uniA684" format="2">
  <advance width="897"/>
  <unicode hex="A684"/>
  <anchor x="162" y="0" name="bottom_1"/>
  <anchor x="610" y="0" name="bottom_2"/>
  <anchor x="314" y="714" name="top_1"/>
  <anchor x="761" y="714" name="top_2"/>
  <outline>
    <contour>
      <point x="250" y="317" type="line"/>
      <point x="518" y="317" type="line"/>
      <point x="542" y="426" type="line"/>
      <point x="274" y="426" type="line"/>
    </contour>
    <component base="afii10025"/>
    <component base="afii10028" xOffset="434"/>
  </outline>
</glyph>
